<?xml version="1.0" encoding="UTF-8" standalone="no"?>
<!-- Created with Inkscape (http://www.inkscape.org/) -->

<svg
   xmlns:dc="http://purl.org/dc/elements/1.1/"
   xmlns:cc="http://creativecommons.org/ns#"
   xmlns:rdf="http://www.w3.org/1999/02/22-rdf-syntax-ns#"
   xmlns:svg="http://www.w3.org/2000/svg"
   xmlns="http://www.w3.org/2000/svg"
   xmlns:sodipodi="http://sodipodi.sourceforge.net/DTD/sodipodi-0.dtd"
   xmlns:inkscape="http://www.inkscape.org/namespaces/inkscape"
   width="24"
   height="33.999989"
   viewBox="0 0 6.3499996 8.9958304"
   version="1.1"
   id="svg8"
   inkscape:version="0.92.2 2405546, 2018-03-11"
   sodipodi:docname="boot_front.svg">
  <defs
     id="defs2" />
  <sodipodi:namedview
     id="base"
     pagecolor="#ffffff"
     bordercolor="#666666"
     borderopacity="1.0"
     inkscape:pageopacity="0.0"
     inkscape:pageshadow="2"
     inkscape:zoom="16"
     inkscape:cx="9.1233394"
     inkscape:cy="19.63141"
     inkscape:document-units="mm"
     inkscape:current-layer="layer1"
     showgrid="true"
     units="px"
     inkscape:window-width="1916"
     inkscape:window-height="1160"
     inkscape:window-x="0"
     inkscape:window-y="38"
     inkscape:window-maximized="0"
     borderlayer="false"
     fit-margin-top="2"
     fit-margin-left="2"
     fit-margin-right="2"
     fit-margin-bottom="2"
     inkscape:snap-global="true"
     inkscape:snap-smooth-nodes="true"
     inkscape:snap-bbox="true"
     inkscape:bbox-nodes="true"
     inkscape:snap-nodes="true"
     inkscape:snap-bbox-midpoints="true">
    <inkscape:grid
       type="xygrid"
       id="grid4485"
       empspacing="8"
       spacingx="1.0583333"
       spacingy="1.0583333"
       originx="48.683308"
       originy="-49.741672" />
  </sodipodi:namedview>
  <metadata
     id="metadata5">
    <rdf:RDF>
      <cc:Work
         rdf:about="">
        <dc:format>image/svg+xml</dc:format>
        <dc:type
           rdf:resource="http://purl.org/dc/dcmitype/StillImage" />
        <dc:title></dc:title>
      </cc:Work>
    </rdf:RDF>
  </metadata>
  <g
     inkscape:label="Layer 1"
     inkscape:groupmode="layer"
     id="layer1"
     transform="translate(48.683384,-238.26249)">
    <g
       id="g9964">
      <path
         style="opacity:1;fill:#455a64;fill-opacity:1;stroke:#000000;stroke-width:4;stroke-linecap:round;stroke-linejoin:round;stroke-miterlimit:2;stroke-dasharray:none;stroke-dashoffset:0.99968505;stroke-opacity:1"
         d="M 17,43 V 59 H 29 V 43 c 0,2.209139 -3.269222,3 -6,3 -2.293278,0 -6,-0.790861 -6,-3 z"
         transform="matrix(0.26458333,0,0,0.26458333,-51.593767,228.47291)"
         id="path9954"
         inkscape:connector-curvature="0"
         sodipodi:nodetypes="ccccsc" />
      <path
         sodipodi:nodetypes="ccccsc"
         inkscape:connector-curvature="0"
         id="rect9939"
         transform="matrix(0.26458333,0,0,0.26458333,-51.593767,228.47291)"
         d="M 17,43 V 59 H 29 V 43 c 0,2.209139 -3.269222,3 -6,3 -2.293278,0 -6,-0.790861 -6,-3 z"
         style="opacity:1;fill:#455a64;fill-opacity:1;stroke:none;stroke-width:1.99999988;stroke-linecap:round;stroke-linejoin:round;stroke-miterlimit:2;stroke-dasharray:none;stroke-dashoffset:0.99968505;stroke-opacity:1" />
      <path
         id="path9956"
         transform="matrix(0.26458333,0,0,0.26458333,-51.593767,228.47291)"
         d="m 29,43.21875 c -0.0094,0.03079 -0.01993,0.05545 -0.0293,0.08594 -0.03311,0.226064 -0.103605,0.434987 -0.205078,0.628906 -1.257208,3.771421 -2.669814,5.037762 -6.390625,5.691406 -4.625,0.812523 -5.1875,4.25 -5.1875,4.25 L 29,58.011719 Z"
         style="opacity:0.2;fill:#000000;fill-opacity:1;stroke:none;stroke-width:1.99999988;stroke-linecap:round;stroke-linejoin:round;stroke-miterlimit:2;stroke-dasharray:none;stroke-dashoffset:0.99968505;stroke-opacity:1"
         inkscape:connector-curvature="0" />
    </g>
    <g
       id="g9925"
       transform="translate(2.1166331,-6.1924986e-6)">
      <path
         id="path9916"
         transform="matrix(0.26458333,0,0,0.26458333,-51.593767,228.47291)"
         d="m 15,51 c -4.418278,0 -8.0000002,3.581722 -8,8 v 4 4 h 16 v -4 -4 c 1.4e-4,-4.418278 -3.581722,-8 -8,-8 z"
         style="opacity:1;fill:none;fill-opacity:1;stroke:#000000;stroke-width:4;stroke-linecap:round;stroke-linejoin:round;stroke-miterlimit:2;stroke-dasharray:none;stroke-dashoffset:0.99968505;stroke-opacity:1"
         inkscape:connector-curvature="0" />
      <path
         sodipodi:nodetypes="sscccss"
         inkscape:connector-curvature="0"
         id="path9904"
         transform="matrix(0.26458333,0,0,0.26458333,-51.593767,228.47291)"
         d="m 15,51 c -4.418278,0 -8.0000002,3.581722 -8,8 l -1.266e-4,3.999977 h 7.9999996 8 L 23,59 c 1.4e-4,-4.418278 -3.581722,-8 -8,-8 z"
         style="opacity:1;fill:#455a64;fill-opacity:1;stroke:none;stroke-width:1.99999988;stroke-linecap:round;stroke-linejoin:round;stroke-miterlimit:2;stroke-dasharray:none;stroke-dashoffset:0.99968505;stroke-opacity:1" />
      <rect
         ry="1.2049733e-05"
         y="245.14165"
         x="-49.741718"
         height="1.0583333"
         width="4.2333331"
         id="rect9909"
         style="opacity:1;fill:#212121;fill-opacity:1;stroke:none;stroke-width:0.52916664;stroke-linecap:round;stroke-linejoin:round;stroke-miterlimit:2;stroke-dasharray:none;stroke-dashoffset:0.99968505;stroke-opacity:1" />
      <path
         id="path9911"
         transform="matrix(0.26458333,0,0,0.26458333,-51.593767,228.47291)"
         d="M 22.005859,55.138672 C 20.371286,58.92624 16.7098,63 11,63 h 4 8 v -4 c 4.4e-5,-1.401051 -0.361358,-2.716049 -0.994141,-3.861328 z"
         style="opacity:0.3;fill:#000000;fill-opacity:1;stroke:none;stroke-width:1.99999988;stroke-linecap:round;stroke-linejoin:round;stroke-miterlimit:2;stroke-dasharray:none;stroke-dashoffset:0.99968505;stroke-opacity:1"
         inkscape:connector-curvature="0" />
    </g>
    <rect
       style="opacity:1;fill:none;fill-opacity:0.97044337;stroke:none;stroke-width:4.23333311;stroke-linecap:butt;stroke-linejoin:round;stroke-miterlimit:4;stroke-dasharray:none;stroke-dashoffset:0.99968505;stroke-opacity:1"
       id="rect8018"
       width="4.2333331"
       height="1.0583333"
       x="-47.625069"
       y="238.79166"
       ry="0.52916664" />
  </g>
</svg>
