<?xml version="1.0" encoding="UTF-8" standalone="no"?>
<!-- Created with Inkscape (http://www.inkscape.org/) -->

<svg
   xmlns:dc="http://purl.org/dc/elements/1.1/"
   xmlns:cc="http://creativecommons.org/ns#"
   xmlns:rdf="http://www.w3.org/1999/02/22-rdf-syntax-ns#"
   xmlns:svg="http://www.w3.org/2000/svg"
   xmlns="http://www.w3.org/2000/svg"
   xmlns:sodipodi="http://sodipodi.sourceforge.net/DTD/sodipodi-0.dtd"
   xmlns:inkscape="http://www.inkscape.org/namespaces/inkscape"
   width="48.037327"
   height="35.936115"
   viewBox="0 0 12.709875 9.5080974"
   version="1.1"
   id="svg8"
   inkscape:version="0.92.2 2405546, 2018-03-11"
   sodipodi:docname="helmet_front.svg">
  <defs
     id="defs2" />
  <sodipodi:namedview
     id="base"
     pagecolor="#ffffff"
     bordercolor="#666666"
     borderopacity="1.0"
     inkscape:pageopacity="0.0"
     inkscape:pageshadow="2"
     inkscape:zoom="5.6568544"
     inkscape:cx="-8.86139"
     inkscape:cy="-9.0632737"
     inkscape:document-units="mm"
     inkscape:current-layer="layer1"
     showgrid="true"
     units="px"
     inkscape:window-width="1916"
     inkscape:window-height="1160"
     inkscape:window-x="0"
     inkscape:window-y="38"
     inkscape:window-maximized="0"
     borderlayer="false"
     fit-margin-top="2"
     fit-margin-left="2"
     fit-margin-right="2"
     fit-margin-bottom="2"
     inkscape:snap-global="true"
     inkscape:snap-smooth-nodes="true"
     inkscape:snap-bbox="true"
     inkscape:bbox-nodes="true"
     inkscape:snap-nodes="true"
     inkscape:snap-bbox-midpoints="true">
    <inkscape:grid
       type="xygrid"
       id="grid4485"
       empspacing="8"
       spacingx="1.0583333"
       spacingy="1.0583333"
       originx="48.692875"
       originy="-74.629398" />
  </sodipodi:namedview>
  <metadata
     id="metadata5">
    <rdf:RDF>
      <cc:Work
         rdf:about="">
        <dc:format>image/svg+xml</dc:format>
        <dc:type
           rdf:resource="http://purl.org/dc/dcmitype/StillImage" />
        <dc:title></dc:title>
      </cc:Work>
    </rdf:RDF>
  </metadata>
  <g
     inkscape:label="Layer 1"
     inkscape:groupmode="layer"
     id="layer1"
     transform="translate(48.692941,-212.8625)">
    <path
       inkscape:connector-curvature="0"
       id="path9877"
       d="m -42.338003,214.45117 c -2.632983,0 -4.767438,2.27323 -4.767438,5.07742 v 1.26935 a 4.7674378,1.26936 0 0 1 4.767438,-1.26935 4.7674378,1.26936 0 0 1 4.767438,1.26935 v -1.26935 c 8.3e-5,-2.80419 -2.134454,-5.07742 -4.767438,-5.07742 z"
       style="opacity:1;fill:none;fill-opacity:1;stroke:#b89602;stroke-width:2.11666656;stroke-linecap:round;stroke-linejoin:round;stroke-miterlimit:10;stroke-dasharray:none;stroke-dashoffset:0.99968505;stroke-opacity:1" />
    <path
       inkscape:connector-curvature="0"
       style="opacity:1;fill:#fdd835;fill-opacity:1;stroke:none;stroke-width:2.64583325;stroke-linecap:round;stroke-linejoin:miter;stroke-miterlimit:2;stroke-dasharray:none;stroke-dashoffset:0.99968505;stroke-opacity:0.97029706"
       d="m -42.338003,214.45117 c -2.632983,0 -4.767438,2.27323 -4.767438,5.07742 v 1.26935 a 4.7674378,1.26936 0 0 1 4.767438,-1.26935 4.7674378,1.26936 0 0 1 4.767438,1.26935 v -1.26935 c 8.3e-5,-2.80419 -2.134454,-5.07742 -4.767438,-5.07742 z"
       id="path9828" />
    <path
       inkscape:connector-curvature="0"
       style="opacity:1;fill:#ecc102;fill-opacity:1;stroke:none;stroke-width:2.64583325;stroke-linecap:round;stroke-linejoin:miter;stroke-miterlimit:2;stroke-dasharray:none;stroke-dashoffset:0.99968505;stroke-opacity:0.97029706"
       d="m -38.585508,216.40417 c -0.133414,1.31889 -1.875884,2.56856 -3.679168,3.12566 a 4.7674378,1.26936 0 0 1 4.694111,1.26811 v -1.26935 c 3.5e-5,-1.17964 -0.381283,-2.26241 -1.014943,-3.12442 z"
       id="path9849" />
    <path
       style="opacity:1;fill:#d9b002;fill-opacity:1;stroke:none;stroke-width:3.74177861;stroke-linecap:round;stroke-linejoin:miter;stroke-miterlimit:2;stroke-dasharray:none;stroke-dashoffset:0.99968505;stroke-opacity:0.97029706"
       d="m -42.338003,218.25923 a 4.7674378,2.5387136 0 0 0 -4.767439,2.53871 4.7674378,1.2693634 0 0 1 4.767439,-1.26935 4.7674378,1.2693634 0 0 1 4.767438,1.26935 4.7674378,2.5387136 0 0 0 -4.767438,-2.53871 z"
       id="path9841"
       inkscape:connector-curvature="0" />
    <ellipse
       style="opacity:1;fill:#fff59d;fill-opacity:1;stroke:none;stroke-width:3.74455714;stroke-linecap:round;stroke-linejoin:miter;stroke-miterlimit:2;stroke-dasharray:none;stroke-dashoffset:0.99968505;stroke-opacity:0.97029706"
       id="path9856"
       cx="-142.18651"
       cy="161.13113"
       rx="1.2116976"
       ry="0.62521487"
       transform="matrix(0.85184416,-0.52379531,0.47658376,0.87912907,0,0)" />
    <path
       style="opacity:1;fill:#fdd835;fill-opacity:1;stroke:#b89602;stroke-width:1.05833328;stroke-linecap:round;stroke-linejoin:round;stroke-miterlimit:2;stroke-dasharray:none;stroke-dashoffset:0.99968505;stroke-opacity:1"
       d="m -44.450051,215.50833 v -1.5875 h 4.233334 v 1.5875"
       id="path9902"
       inkscape:connector-curvature="0"
       sodipodi:nodetypes="cccc" />
  </g>
</svg>
