<?xml version="1.0" encoding="UTF-8" standalone="no"?>
<!-- Created with Inkscape (http://www.inkscape.org/) -->

<svg
   xmlns:dc="http://purl.org/dc/elements/1.1/"
   xmlns:cc="http://creativecommons.org/ns#"
   xmlns:rdf="http://www.w3.org/1999/02/22-rdf-syntax-ns#"
   xmlns:svg="http://www.w3.org/2000/svg"
   xmlns="http://www.w3.org/2000/svg"
   xmlns:xlink="http://www.w3.org/1999/xlink"
   xmlns:sodipodi="http://sodipodi.sourceforge.net/DTD/sodipodi-0.dtd"
   xmlns:inkscape="http://www.inkscape.org/namespaces/inkscape"
   width="1920"
   height="380.00003"
   viewBox="0 0 507.99997 100.54168"
   version="1.1"
   id="svg8"
   inkscape:version="0.92.2 2405546, 2018-03-11"
   sodipodi:docname="ground.svg">
  <defs
     id="defs2">
    <linearGradient
       inkscape:collect="always"
       id="linearGradient9805">
      <stop
         style="stop-color:#4e342e;stop-opacity:1;"
         offset="0"
         id="stop9801" />
      <stop
         style="stop-color:#32221e;stop-opacity:1"
         offset="1"
         id="stop9803" />
    </linearGradient>
    <linearGradient
       inkscape:collect="always"
       id="linearGradient4697">
      <stop
         style="stop-color:#d1edc8;stop-opacity:1"
         offset="0"
         id="stop4693" />
      <stop
         id="stop5268"
         offset="0.12500015"
         style="stop-color:#afd88b;stop-opacity:1;" />
      <stop
         id="stop4703"
         offset="0.37500012"
         style="stop-color:#8bc34a;stop-opacity:1;" />
      <stop
         id="stop4701"
         offset="0.74057293"
         style="stop-color:#8bc34a;stop-opacity:1;" />
      <stop
         style="stop-color:#5a7e30;stop-opacity:1;"
         offset="0.90180576"
         id="stop7453" />
      <stop
         id="stop7455"
         offset="0.94323778"
         style="stop-color:#466125;stop-opacity:1;" />
      <stop
         style="stop-color:#202b11;stop-opacity:1"
         offset="1"
         id="stop4695" />
    </linearGradient>
    <linearGradient
       inkscape:collect="always"
       id="linearGradient4648">
      <stop
         style="stop-color:#121212;stop-opacity:1"
         offset="0"
         id="stop4644" />
      <stop
         id="stop5266"
         offset="0.25"
         style="stop-color:#3c2522;stop-opacity:1;" />
      <stop
         style="stop-color:#231614;stop-opacity:1"
         offset="1"
         id="stop4646" />
    </linearGradient>
    <linearGradient
       inkscape:collect="always"
       xlink:href="#linearGradient4648"
       id="linearGradient4650"
       x1="237.06667"
       y1="229.26665"
       x2="237.06667"
       y2="296.99997"
       gradientUnits="userSpaceOnUse"
       gradientTransform="translate(0,2.1166724)" />
    <linearGradient
       inkscape:collect="always"
       xlink:href="#linearGradient4697"
       id="linearGradient4699"
       x1="254"
       y1="195.39998"
       x2="254"
       y2="229.26665"
       gradientUnits="userSpaceOnUse"
       gradientTransform="translate(0,2.1166724)" />
    <linearGradient
       inkscape:collect="always"
       xlink:href="#linearGradient9805"
       id="linearGradient9807"
       x1="237.06667"
       y1="231.38332"
       x2="237.06667"
       y2="294.88333"
       gradientUnits="userSpaceOnUse" />
  </defs>
  <sodipodi:namedview
     id="base"
     pagecolor="#ffffff"
     bordercolor="#666666"
     borderopacity="1.0"
     inkscape:pageopacity="0.0"
     inkscape:pageshadow="2"
     inkscape:zoom="0.35355339"
     inkscape:cx="430.61003"
     inkscape:cy="108.17847"
     inkscape:document-units="mm"
     inkscape:current-layer="layer1"
     showgrid="true"
     units="px"
     inkscape:window-width="1916"
     inkscape:window-height="1160"
     inkscape:window-x="0"
     inkscape:window-y="38"
     inkscape:window-maximized="0"
     inkscape:snap-page="false"
     inkscape:snap-global="true"
     fit-margin-top="2"
     fit-margin-left="0"
     fit-margin-right="0"
     fit-margin-bottom="2">
    <inkscape:grid
       type="xygrid"
       id="grid4485"
       empspacing="8"
       spacingx="4.2333333"
       spacingy="4.2333333"
       originy="15.345836"
       originx="0" />
  </sodipodi:namedview>
  <metadata
     id="metadata5">
    <rdf:RDF>
      <cc:Work
         rdf:about="">
        <dc:format>image/svg+xml</dc:format>
        <dc:type
           rdf:resource="http://purl.org/dc/dcmitype/StillImage" />
        <dc:title></dc:title>
      </cc:Work>
    </rdf:RDF>
  </metadata>
  <g
     inkscape:label="Layer 1"
     inkscape:groupmode="layer"
     id="layer1"
     transform="translate(0,-196.98748)">
    <rect
       style="opacity:1;fill:url(#linearGradient4650);fill-opacity:1;stroke:none;stroke-width:1.05799997;stroke-linecap:round;stroke-linejoin:miter;stroke-miterlimit:2;stroke-dasharray:none;stroke-dashoffset:0.99968505;stroke-opacity:0.97029706"
       id="rect4516"
       width="508"
       height="65.616669"
       x="0"
       y="231.38332" />
    <path
       style="opacity:0.2;fill:#000000;fill-opacity:1;stroke:none;stroke-width:3.99873996;stroke-linecap:round;stroke-linejoin:miter;stroke-miterlimit:2;stroke-dasharray:none;stroke-dashoffset:0.99968505;stroke-opacity:0.97029706"
       d="m 1557.0488,856.06836 a 15.556349,7.7781743 0 0 0 -15.5566,7.7793 15.556349,7.7781743 0 0 0 15.5566,7.77734 15.556349,7.7781743 0 0 0 15.5567,-7.77734 15.556349,7.7781743 0 0 0 -15.5567,-7.7793 z m 309.7129,4.24414 a 33.941122,13.435029 0 0 0 -33.9414,13.43359 33.941122,13.435029 0 0 0 33.9414,13.43555 33.941122,13.435029 0 0 0 33.9414,-13.43555 33.941122,13.435029 0 0 0 -33.9414,-13.43359 z m -1361.17967,4.24219 a 17.677669,4.2426402 0 0 0 -17.67773,4.24219 17.677669,4.2426402 0 0 0 17.67773,4.24218 17.677669,4.2426402 0 0 0 17.67774,-4.24218 17.677669,4.2426402 0 0 0 -17.67774,-4.24219 z m -147.07812,1.41406 a 9.1923883,9.8994953 0 0 0 -9.19336,9.89844 9.1923883,9.8994953 0 0 0 9.19336,9.90039 9.1923883,9.8994953 0 0 0 9.1914,-9.90039 9.1923883,9.8994953 0 0 0 -9.1914,-9.89844 z m 869.03319,0 a 32.526913,14.142136 0 0 0 -32.5273,14.14258 32.526913,14.142136 0 0 0 32.5273,14.14062 32.526913,14.142136 0 0 0 32.5274,-14.14062 32.526913,14.142136 0 0 0 -32.5274,-14.14258 z M 62.224609,878.69727 a 16.970561,13.435029 0 0 0 -16.970703,13.43359 16.970561,13.435029 0 0 0 16.50586,13.41797 31.819805,11.313708 0 0 0 -2.363282,4.25976 31.819805,11.313708 0 0 0 31.820313,11.31446 31.819805,11.313708 0 0 0 31.820313,-11.31446 31.819805,11.313708 0 0 0 -31.820313,-11.3125 31.819805,11.313708 0 0 0 -15.130859,1.37305 16.970561,13.435029 0 0 0 3.109374,-7.73828 16.970561,13.435029 0 0 0 -16.970703,-13.43359 z m 1528.058591,1.41406 a 24.748737,10.606601 0 0 0 -24.748,10.60547 24.748737,10.606601 0 0 0 24.748,10.60742 24.748737,10.606601 0 0 0 24.748,-10.60742 24.748737,10.606601 0 0 0 -24.748,-10.60547 z m -772.16015,5.65625 a 53.033006,14.849242 0 0 0 -53.03321,14.84961 53.033006,14.849242 0 0 0 3.1211,4.97461 24.748737,12.020815 0 0 0 -1,-0.0254 24.748737,12.020815 0 0 0 -24.74805,12.02148 24.748737,12.020815 0 0 0 24.74805,12.01953 24.748737,12.020815 0 0 0 24.74804,-12.01953 24.748737,12.020815 0 0 0 -1.68164,-4.35547 53.033006,14.849242 0 0 0 27.84571,2.23438 53.033006,14.849242 0 0 0 22.04101,-1.36524 11.313708,9.8994953 0 0 0 -0.12109,1.36524 11.313708,9.8994953 0 0 0 11.31445,9.89843 11.313708,9.8994953 0 0 0 11.3125,-9.89843 11.313708,9.8994953 0 0 0 -2.25976,-5.91992 53.033006,14.849242 0 0 0 10.74609,-8.92969 53.033006,14.849242 0 0 0 -53.0332,-14.84961 z m -600.33399,2.82812 a 21.213203,9.8994953 0 0 0 -21.21289,9.90039 21.213203,9.8994953 0 0 0 21.21289,9.89844 21.213203,9.8994953 0 0 0 21.21289,-9.89844 21.213203,9.8994953 0 0 0 -21.21289,-9.90039 z m 289.91406,2.82813 a 36.769553,14.142136 0 0 0 -36.76953,14.14258 36.769553,14.142136 0 0 0 36.76953,14.14257 36.769553,14.142136 0 0 0 2.39454,-0.0332 16.263457,6.3639612 0 0 0 -0.98047,2.1543 16.263457,6.3639612 0 0 0 16.26367,6.36328 16.263457,6.3639612 0 0 0 16.26367,-6.36328 16.263457,6.3639612 0 0 0 -9.38867,-5.75977 36.769553,14.142136 0 0 0 12.2168,-10.5039 36.769553,14.142136 0 0 0 -36.76954,-14.14258 z m 1026.71878,8.48633 a 43.840622,21.920311 0 0 0 -43.8399,21.91992 43.840622,21.920311 0 0 0 41.0352,21.84961 31.112697,12.020815 0 0 0 -1.4375,3.60547 31.112697,12.020815 0 0 0 7.9277,7.99414 28.991379,11.313708 0 0 0 -23.4844,11.09765 28.991379,11.313708 0 0 0 28.9903,11.31446 28.991379,11.313708 0 0 0 28.8222,-10.11914 36.062445,12.727922 0 0 0 6.5333,0.21875 36.062445,12.727922 0 0 0 36.0624,-12.72657 36.062445,12.727922 0 0 0 -24.6835,-12.06836 31.112697,12.020815 0 0 0 -21.8672,-7.39257 43.840622,21.920311 0 0 0 9.7812,-13.77344 43.840622,21.920311 0 0 0 -43.8398,-21.91992 z m -445.4766,1.41406 a 49.497474,19.798991 0 0 0 -49.498,19.79883 49.497474,19.798991 0 0 0 49.498,19.79883 49.497474,19.798991 0 0 0 9.7129,-0.40626 38.183766,16.263457 0 0 0 -1.2285,4.01172 38.183766,16.263457 0 0 0 38.1836,16.26368 38.183766,16.263457 0 0 0 38.1836,-16.26368 38.183766,16.263457 0 0 0 -38.1836,-16.26172 38.183766,16.263457 0 0 0 -0.5684,0.008 49.497474,19.798991 0 0 0 3.3965,-7.15039 49.497474,19.798991 0 0 0 -49.4961,-19.79883 z m 228.3945,0 a 53.033006,19.091883 0 0 0 -53.0332,19.0918 53.033006,19.091883 0 0 0 53.0332,19.09179 53.033006,19.091883 0 0 0 53.0332,-19.09179 53.033006,19.091883 0 0 0 -53.0332,-19.0918 z m 437.6993,4.24219 a 26.870057,9.8994953 0 0 0 -26.8711,9.90039 26.870057,9.8994953 0 0 0 9.5019,7.55078 42.426406,15.556349 0 0 0 -32.1289,15.07617 42.426406,15.556349 0 0 0 42.4278,15.55664 42.426406,15.556349 0 0 0 42.4257,-15.55664 42.426406,15.556349 0 0 0 -23.0664,-13.82617 26.870057,9.8994953 0 0 0 14.5801,-8.80078 26.870057,9.8994953 0 0 0 -26.8691,-9.90039 z m -1620.68949,1.41406 a 7.0710678,7.7781743 0 0 0 -7.07031,7.7793 7.0710678,7.7781743 0 0 0 7.07031,7.77734 7.0710678,7.7781743 0 0 0 7.07227,-7.77734 7.0710678,7.7781743 0 0 0 -7.07227,-7.7793 z m 255.26562,0 a 9.1923883,5.6568542 0 0 0 -9.1914,5.65625 9.1923883,5.6568542 0 0 0 9.1914,5.6582 9.1923883,5.6568542 0 0 0 9.19336,-5.6582 9.1923883,5.6568542 0 0 0 -9.19336,-5.65625 z m 161.22071,14.14258 a 7.7781743,6.3639612 0 0 0 -7.77735,6.36328 7.7781743,6.3639612 0 0 0 7.77735,6.36523 7.7781743,6.3639612 0 0 0 7.77929,-6.36523 7.7781743,6.3639612 0 0 0 -7.77929,-6.36328 z m 155.56445,0 a 30.405593,17.677669 0 0 0 -30.40625,17.67773 30.405593,17.677669 0 0 0 30.40625,17.67774 30.405593,17.677669 0 0 0 30.4043,-17.67774 30.405593,17.677669 0 0 0 -30.4043,-17.67773 z m -267.28711,21.21289 a 13.435029,9.8994953 0 0 0 -13.43555,9.90039 13.435029,9.8994953 0 0 0 13.43555,9.89844 13.435029,9.8994953 0 0 0 13.43555,-9.89844 13.435029,9.8994953 0 0 0 -13.43555,-9.90039 z m -113.13672,7.07031 a 31.819805,20.506095 0 0 0 -30.29492,14.26563 36.062445,10.606601 0 0 0 -29.10156,-4.36524 36.062445,10.606601 0 0 0 -36.0625,10.60742 36.062445,10.606601 0 0 0 36.0625,10.60547 36.062445,10.606601 0 0 0 1.26562,-0.0117 31.112697,19.091883 0 0 0 -0.55859,3.54688 31.112697,19.091883 0 0 0 31.11133,19.09179 31.112697,19.091883 0 0 0 29.31836,-12.76757 31.819805,20.506095 0 0 0 30.08008,-20.46485 31.819805,20.506095 0 0 0 -31.82032,-20.50781 z m 1456.64064,12.72852 a 31.819805,12.727922 0 0 0 -31.8203,12.72851 31.819805,12.727922 0 0 0 31.8203,12.72852 31.819805,12.727922 0 0 0 31.8183,-12.72852 31.819805,12.727922 0 0 0 -31.8183,-12.72851 z m -69.2969,4.24218 a 14.849242,9.8994953 0 0 0 -14.8496,9.90039 14.849242,9.8994953 0 0 0 14.8496,9.89844 14.849242,9.8994953 0 0 0 14.8477,-9.89844 14.849242,9.8994953 0 0 0 -14.8477,-9.90039 z m -754.48436,5.65821 a 22.627417,7.7781743 0 0 0 -22.62696,7.77734 22.627417,7.7781743 0 0 0 22.62696,7.7793 22.627417,7.7781743 0 0 0 22.6289,-7.7793 22.627417,7.7781743 0 0 0 -22.6289,-7.77734 z m 150.61526,7.07031 a 19.091883,7.7781743 0 0 0 -19.0918,7.77734 19.091883,7.7781743 0 0 0 19.0918,7.7793 19.091883,7.7781743 0 0 0 5.7968,-0.37695 47.376154,17.677669 0 0 0 -17.8183,13.81254 47.376154,17.677669 0 0 0 0.4121,2.1484 34.64823,15.556349 0 0 0 -32.9395,15.5293 34.64823,15.556349 0 0 0 34.6485,15.5547 34.64823,15.556349 0 0 0 34.6484,-15.5547 34.64823,15.556349 0 0 0 -0.037,-0.4707 47.376154,17.677669 0 0 0 10.6445,0.4707 47.376154,17.677669 0 0 0 27.6172,-3.3418 15.556349,9.8994953 0 0 0 -0.041,0.5117 15.556349,9.8994953 0 0 0 15.5567,9.9004 15.556349,9.8994953 0 0 0 15.5566,-9.9004 15.556349,9.8994953 0 0 0 -13.3203,-9.7832 47.376154,17.677669 0 0 0 2.0058,-5.0644 47.376154,17.677669 0 0 0 -47.375,-17.67778 47.376154,17.677669 0 0 0 -22.0527,2.04297 19.091883,7.7781743 0 0 0 5.7891,-5.58008 19.091883,7.7781743 0 0 0 -19.0918,-7.77734 z m 263.0429,2.17187 a 23.334523,8.4852804 0 0 0 -23.3339,8.48438 23.334523,8.4852804 0 0 0 0.2207,1.08594 42.426406,19.798991 0 0 0 -8.7071,-0.42774 42.426406,19.798991 0 0 0 -42.4258,19.79888 42.426406,19.798991 0 0 0 42.4258,19.7988 42.426406,19.798991 0 0 0 18.6563,-2.0313 33.941122,16.970561 0 0 0 -0.2715,2.0313 33.941122,16.970561 0 0 0 33.9414,16.9707 33.941122,16.970561 0 0 0 33.9414,-16.9707 33.941122,16.970561 0 0 0 -33.9414,-16.9707 33.941122,16.970561 0 0 0 -10.6719,0.8828 42.426406,19.798991 0 0 0 0.7735,-3.7109 42.426406,19.798991 0 0 0 -8.7246,-12.002 23.334523,8.4852804 0 0 0 21.4511,-8.45508 23.334523,8.4852804 0 0 0 -23.334,-8.48438 z m -550.12887,11.97071 a 26.162951,13.435029 0 0 0 -26.16211,13.43555 26.162951,13.435029 0 0 0 26.16211,13.4336 26.162951,13.435029 0 0 0 17.45118,-3.4473 56.568542,23.334523 0 0 0 -2.60157,6.9824 56.568542,23.334523 0 0 0 56.56836,23.336 56.568542,23.334523 0 0 0 25.91797,-2.6016 23.334523,8.4852804 0 0 0 22.87305,6.8438 23.334523,8.4852804 0 0 0 23.33398,-8.4844 23.334523,8.4852804 0 0 0 -21.83398,-8.459 56.568542,23.334523 0 0 0 6.27734,-10.6348 56.568542,23.334523 0 0 0 -56.56836,-23.3339 56.568542,23.334523 0 0 0 -46.20898,9.9004 26.162951,13.435029 0 0 0 0.95312,-3.5352 26.162951,13.435029 0 0 0 -26.16211,-13.43555 z m -638.51757,2.82812 a 26.870057,9.8994953 0 0 0 -26.86914,9.90043 26.870057,9.8994953 0 0 0 2.62304,4.2441 53.740114,15.556349 0 0 0 -53.53515,15.5547 53.740114,15.556349 0 0 0 53.74023,15.5547 53.740114,15.556349 0 0 0 41.0332,-5.5117 17.677669,9.1923883 0 0 0 -0.0215,0.2187 17.677669,9.1923883 0 0 0 17.67773,9.1934 17.677669,9.1923883 0 0 0 17.67774,-9.1934 17.677669,9.1923883 0 0 0 -17.67774,-9.1914 17.677669,9.1923883 0 0 0 -5.20703,0.418 53.740114,15.556349 0 0 0 0.25782,-1.4883 53.740114,15.556349 0 0 0 -16.49415,-11.1914 26.870057,9.8994953 0 0 0 13.66602,-8.6074 26.870057,9.8994953 0 0 0 -26.87109,-9.90043 z m 183.14062,0 a 19.091883,7.0710678 0 0 0 -19.0918,7.07033 19.091883,7.0710678 0 0 0 19.0918,7.0723 19.091883,7.0710678 0 0 0 19.0918,-7.0723 19.091883,7.0710678 0 0 0 -19.0918,-7.07033 z m 202.93945,2.82813 a 36.769553,7.0710678 0 0 0 -36.76953,7.0723 36.769553,7.0710678 0 0 0 36.76953,7.0703 36.769553,7.0710678 0 0 0 6.05665,-0.1 17.677669,9.8994953 0 0 0 -1.81446,4.3418 17.677669,9.8994953 0 0 0 17.67774,9.9004 17.677669,9.8994953 0 0 0 17.67773,-9.9004 17.677669,9.8994953 0 0 0 -7.21875,-7.9668 36.769553,7.0710678 0 0 0 4.39063,-3.3457 36.769553,7.0710678 0 0 0 -36.76954,-7.0723 z m 1064.19527,9.9004 a 28.991379,9.1923883 0 0 0 -28.9902,9.1914 28.991379,9.1923883 0 0 0 1.002,2.3809 43.840622,17.677669 0 0 0 -36.3575,17.4179 43.840622,17.677669 0 0 0 43.8399,17.6778 43.840622,17.677669 0 0 0 43.8418,-17.6778 43.840622,17.677669 0 0 0 -10.6895,-11.5332 28.991379,9.1923883 0 0 0 16.3457,-8.2656 28.991379,9.1923883 0 0 0 -28.9922,-9.1914 z m -1129.95503,1.4141 a 44.547726,15.556349 0 0 0 -44.54883,15.5566 44.547726,15.556349 0 0 0 44.54883,15.5547 44.547726,15.556349 0 0 0 44.54687,-15.5547 44.547726,15.556349 0 0 0 -44.54687,-15.5566 z m 1351.28123,14.1425 a 35.355338,14.142136 0 0 0 -35.3554,14.1407 35.355338,14.142136 0 0 0 35.3554,14.1425 35.355338,14.142136 0 0 0 35.3535,-14.1425 35.355338,14.142136 0 0 0 -35.3535,-14.1407 z m -1019.64842,24.041 a 22.627417,9.1923883 0 0 0 -22.6289,9.1915 22.627417,9.1923883 0 0 0 22.6289,9.1933 22.627417,9.1923883 0 0 0 22.62695,-9.1933 22.627417,9.1923883 0 0 0 -22.62695,-9.1915 z m 842.16402,5.6563 a 19.091883,6.3639612 0 0 0 -19.0918,6.3633 19.091883,6.3639612 0 0 0 19.0918,6.3652 19.091883,6.3639612 0 0 0 19.0918,-6.3652 19.091883,6.3639612 0 0 0 -19.0918,-6.3633 z m -1449.57027,4.2422 a 17.677669,8.4852804 0 0 0 -17.67578,8.4863 17.677669,8.4852804 0 0 0 17.67578,8.4844 17.677669,8.4852804 0 0 0 17.67774,-8.4844 17.677669,8.4852804 0 0 0 -17.67774,-8.4863 z"
       transform="matrix(0.26458333,0,0,0.26458333,0,11.249983)"
       id="path4518"
       inkscape:connector-curvature="0" />
    <circle
       style="opacity:1;fill:#5d4037;fill-opacity:1;stroke:none;stroke-width:3.9987402;stroke-linecap:round;stroke-linejoin:miter;stroke-miterlimit:2;stroke-dasharray:none;stroke-dashoffset:0.99968505;stroke-opacity:0.97029706"
       id="path4580"
       cx="0"
       cy="0"
       r="0"
       transform="matrix(0.26458333,0,0,0.26458333,0,11.249983)" />
    <rect
       style="opacity:1;fill:url(#linearGradient4699);fill-opacity:1;stroke:none;stroke-width:1.05799997;stroke-linecap:round;stroke-linejoin:miter;stroke-miterlimit:2;stroke-dasharray:none;stroke-dashoffset:0.99968505;stroke-opacity:0.97029706"
       id="rect4681"
       width="508"
       height="33.866665"
       x="0"
       y="197.51665" />
    <path
       id="path9797"
       d="m 102.89863,295.7489 a 4.1159506,2.0579753 0 0 0 4.11602,-2.05827 4.1159506,2.0579753 0 0 0 -4.11602,-2.05776 4.1159506,2.0579753 0 0 0 -4.116045,2.05776 4.1159506,2.0579753 0 0 0 4.116045,2.05827 z m -81.944872,-1.12293 a 8.9802551,3.5546847 0 0 0 8.980328,-3.5543 8.9802551,3.5546847 0 0 0 -8.980328,-3.55483 8.9802551,3.5546847 0 0 0 -8.980329,3.55483 8.9802551,3.5546847 0 0 0 8.980329,3.5543 z m 360.145452,-1.12241 a 4.6772165,1.1225319 0 0 0 4.67723,-1.12241 4.6772165,1.1225319 0 0 0 -4.67723,-1.12241 4.6772165,1.1225319 0 0 0 -4.67724,1.12241 4.6772165,1.1225319 0 0 0 4.67724,1.12241 z m 38.91442,-0.37414 a 2.4321527,2.6192414 0 0 0 2.43241,-2.61896 2.4321527,2.6192414 0 0 0 -2.43241,-2.61948 2.4321527,2.6192414 0 0 0 -2.43189,2.61948 2.4321527,2.6192414 0 0 0 2.43189,2.61896 z m -229.9317,0 a 8.606079,3.7417734 0 0 0 8.60618,-3.74189 8.606079,3.7417734 0 0 0 -8.60618,-3.74137 8.606079,3.7417734 0 0 0 -8.60621,3.74137 8.606079,3.7417734 0 0 0 8.60621,3.74189 z m 308.32226,-3.36775 a 4.4901275,3.5546847 0 0 0 4.49017,-3.55431 4.4901275,3.5546847 0 0 0 -4.36718,-3.55017 8.41899,2.9934185 0 0 0 0.62529,-1.12706 8.41899,2.9934185 0 0 0 -8.41913,-2.99362 8.41899,2.9934185 0 0 0 -8.41912,2.99362 8.41899,2.9934185 0 0 0 8.41912,2.9931 8.41899,2.9934185 0 0 0 4.00337,-0.36329 4.4901275,3.5546847 0 0 0 -0.82268,2.04742 4.4901275,3.5546847 0 0 0 4.49016,3.55431 z M 94.10536,289.38753 a 6.5481032,2.8063298 0 0 0 6.54791,-2.80603 6.5481032,2.8063298 0 0 0 -6.54791,-2.80655 6.5481032,2.8063298 0 0 0 -6.547908,2.80655 6.5481032,2.8063298 0 0 0 6.547908,2.80603 z m 204.3007,-1.49655 a 14.031649,3.9288619 0 0 0 14.03171,-3.92896 14.031649,3.9288619 0 0 0 -0.82579,-1.3162 6.5481032,3.1805073 0 0 0 0.26458,0.007 6.5481032,3.1805073 0 0 0 6.54792,-3.18068 6.5481032,3.1805073 0 0 0 -6.54792,-3.18017 6.5481032,3.1805073 0 0 0 -6.54792,3.18017 6.5481032,3.1805073 0 0 0 0.44493,1.15238 14.031649,3.9288619 0 0 0 -7.36751,-0.59118 14.031649,3.9288619 0 0 0 -5.83168,0.36122 2.9934185,2.6192414 0 0 0 0.032,-0.36122 2.9934185,2.6192414 0 0 0 -2.99362,-2.61896 2.9934185,2.6192414 0 0 0 -2.9931,2.61896 2.9934185,2.6192414 0 0 0 0.5979,1.56631 14.031649,3.9288619 0 0 0 -2.84324,2.36265 14.031649,3.9288619 0 0 0 14.0317,3.92896 z m 158.83837,-0.74827 a 5.6126599,2.6192414 0 0 0 5.61258,-2.61948 5.6126599,2.6192414 0 0 0 -5.61258,-2.61896 5.6126599,2.6192414 0 0 0 -5.61258,2.61896 5.6126599,2.6192414 0 0 0 5.61258,2.61948 z M 380.538,286.39443 a 9.7286108,3.7417734 0 0 0 9.72861,-3.74189 9.7286108,3.7417734 0 0 0 -9.72861,-3.74189 9.7286108,3.7417734 0 0 0 -0.63355,0.009 4.3030396,1.683798 0 0 0 0.25941,-0.57 4.3030396,1.683798 0 0 0 -4.30309,-1.68361 4.3030396,1.683798 0 0 0 -4.3031,1.68361 4.3030396,1.683798 0 0 0 2.48409,1.52394 9.7286108,3.7417734 0 0 0 -3.23236,2.77916 9.7286108,3.7417734 0 0 0 9.7286,3.74189 z m -271.65267,-2.24534 a 11.599498,5.7997489 0 0 0 11.59931,-5.79965 11.599498,5.7997489 0 0 0 -10.85723,-5.78104 8.231901,3.1805073 0 0 0 0.38033,-0.95395 8.231901,3.1805073 0 0 0 -2.09753,-2.11511 7.6706356,2.9934185 0 0 0 6.21358,-2.93625 7.6706356,2.9934185 0 0 0 -7.67035,-2.99362 7.6706356,2.9934185 0 0 0 -7.625876,2.67735 9.5415218,3.367596 0 0 0 -1.728602,-0.0579 9.5415218,3.367596 0 0 0 -9.54151,3.36723 9.5415218,3.367596 0 0 0 6.530842,3.19309 8.231901,3.1805073 0 0 0 5.785697,1.95595 11.599498,5.7997489 0 0 0 -2.587943,3.64422 11.599498,5.7997489 0 0 0 11.599282,5.79965 z m 117.86568,-0.37414 a 13.096206,5.238483 0 0 0 13.09635,-5.23844 13.096206,5.238483 0 0 0 -13.09635,-5.23844 13.096206,5.238483 0 0 0 -2.56987,0.10749 10.102788,4.3030396 0 0 0 0.32504,-1.06143 10.102788,4.3030396 0 0 0 -10.10274,-4.3031 10.102788,4.3030396 0 0 0 -10.10275,4.3031 10.102788,4.3030396 0 0 0 10.10275,4.30258 10.102788,4.3030396 0 0 0 0.15039,-0.002 13.096206,5.238483 0 0 0 -0.89866,1.89187 13.096206,5.238483 0 0 0 13.09584,5.23844 z m -60.42938,0 a 14.031649,5.051394 0 0 0 14.0317,-5.05137 14.031649,5.051394 0 0 0 -14.0317,-5.05137 14.031649,5.051394 0 0 0 -14.0317,5.05137 14.031649,5.051394 0 0 0 14.0317,5.05137 z M 50.513695,282.65254 a 7.1093692,2.6192414 0 0 0 7.109645,-2.61948 7.1093692,2.6192414 0 0 0 -2.514044,-1.99781 11.22532,4.1159506 0 0 0 8.500771,-3.9889 11.22532,4.1159506 0 0 0 -11.225688,-4.11603 11.22532,4.1159506 0 0 0 -11.225133,4.11603 11.22532,4.1159506 0 0 0 6.102985,3.65817 7.1093692,2.6192414 0 0 0 -3.857652,2.32854 7.1093692,2.6192414 0 0 0 7.109116,2.61948 z M 479.32112,282.2784 a 1.8708867,2.0579753 0 0 0 1.87068,-2.05827 1.8708867,2.0579753 0 0 0 -1.87068,-2.05775 1.8708867,2.0579753 0 0 0 -1.87121,2.05775 1.8708867,2.0579753 0 0 0 1.87121,2.05827 z m -67.53903,0 a 2.4321527,1.4967093 0 0 0 2.43189,-1.49655 2.4321527,1.4967093 0 0 0 -2.43189,-1.49706 2.4321527,1.4967093 0 0 0 -2.43241,1.49706 2.4321527,1.4967093 0 0 0 2.43241,1.49655 z m -42.65631,-3.74189 a 2.0579753,1.683798 0 0 0 2.05775,-1.68361 2.0579753,1.683798 0 0 0 -2.05775,-1.68414 2.0579753,1.683798 0 0 0 -2.05827,1.68414 2.0579753,1.683798 0 0 0 2.05827,1.68361 z m -41.15976,0 a 8.044813,4.6772165 0 0 0 8.04498,-4.67723 8.044813,4.6772165 0 0 0 -8.04498,-4.67723 8.044813,4.6772165 0 0 0 -8.04447,4.67723 8.044813,4.6772165 0 0 0 8.04447,4.67723 z m 70.71971,-5.61257 a 3.5546847,2.6192414 0 0 0 3.55482,-2.61948 3.5546847,2.6192414 0 0 0 -3.55482,-2.61896 3.5546847,2.6192414 0 0 0 -3.55482,2.61896 3.5546847,2.6192414 0 0 0 3.55482,2.61948 z m 29.93409,-1.87069 a 8.41899,5.4255709 0 0 0 8.01553,-3.77445 9.5415218,2.8063298 0 0 0 7.69979,1.15497 9.5415218,2.8063298 0 0 0 9.54154,-2.80654 9.5415218,2.8063298 0 0 0 -9.54154,-2.80604 9.5415218,2.8063298 0 0 0 -0.33486,0.003 8.231901,5.051394 0 0 0 0.14779,-0.93845 8.231901,5.051394 0 0 0 -8.23154,-5.05137 8.231901,5.051394 0 0 0 -7.75715,3.37809 8.41899,5.4255709 0 0 0 -7.95869,5.41466 8.41899,5.4255709 0 0 0 8.41913,5.42602 z M 43.21699,267.6855 a 8.41899,3.367596 0 0 0 8.419121,-3.36776 8.41899,3.367596 0 0 0 -8.419121,-3.36775 8.41899,3.367596 0 0 0 -8.418592,3.36775 8.41899,3.367596 0 0 0 8.418592,3.36776 z m 18.334804,-1.12241 a 3.9288619,2.6192414 0 0 0 3.928957,-2.61948 3.9288619,2.6192414 0 0 0 -3.928957,-2.61896 3.9288619,2.6192414 0 0 0 -3.928454,2.61896 3.9288619,2.6192414 0 0 0 3.928454,2.61948 z m 199.623986,-1.49707 a 5.9868373,2.0579753 0 0 0 5.98672,-2.05776 5.9868373,2.0579753 0 0 0 -5.98672,-2.05827 5.9868373,2.0579753 0 0 0 -5.98723,2.05827 5.9868373,2.0579753 0 0 0 5.98723,2.05776 z m -39.85029,-1.87069 a 5.051394,2.0579753 0 0 0 5.05137,-2.05775 5.051394,2.0579753 0 0 0 -5.05137,-2.05828 5.051394,2.0579753 0 0 0 -1.53373,0.0997 12.534941,4.6772165 0 0 0 4.71442,-3.65457 12.534941,4.6772165 0 0 0 -0.10903,-0.56843 9.1673441,4.1159506 0 0 0 8.71524,-4.10879 9.1673441,4.1159506 0 0 0 -9.16742,-4.11552 9.1673441,4.1159506 0 0 0 -9.16739,4.11552 9.1673441,4.1159506 0 0 0 0.01,0.12454 12.534941,4.6772165 0 0 0 -2.81636,-0.12454 12.534941,4.6772165 0 0 0 -7.30705,0.88418 4.1159506,2.6192414 0 0 0 0.0108,-0.13539 4.1159506,2.6192414 0 0 0 -4.11604,-2.61948 4.1159506,2.6192414 0 0 0 -4.11602,2.61948 4.1159506,2.6192414 0 0 0 3.52433,2.58847 12.534941,4.6772165 0 0 0 -0.5307,1.33996 12.534941,4.6772165 0 0 0 12.53463,4.67725 12.534941,4.6772165 0 0 0 5.83478,-0.54054 5.051394,2.0579753 0 0 0 -1.5317,1.4764 5.051394,2.0579753 0 0 0 5.05137,2.05775 z m -69.59676,-0.57464 a 6.1739258,2.2450637 0 0 0 6.17376,-2.24482 6.1739258,2.2450637 0 0 0 -0.0584,-0.28733 11.22532,5.238483 0 0 0 2.30376,0.11318 11.22532,5.238483 0 0 0 11.22516,-5.23846 11.22532,5.238483 0 0 0 -11.22516,-5.23843 11.22532,5.238483 0 0 0 -4.93615,0.53745 8.9802551,4.4901275 0 0 0 0.0718,-0.53745 8.9802551,4.4901275 0 0 0 -8.98032,-4.49016 8.9802551,4.4901275 0 0 0 -8.98033,4.49016 8.9802551,4.4901275 0 0 0 8.98033,4.49016 8.9802551,4.4901275 0 0 0 2.8236,-0.23357 11.22532,5.238483 0 0 0 -0.20465,0.98184 11.22532,5.238483 0 0 0 2.30838,3.17553 6.1739258,2.2450637 0 0 0 -5.6756,2.23708 6.1739258,2.2450637 0 0 0 6.17379,2.24482 z m 145.55492,-3.16725 a 6.9222807,3.5546847 0 0 0 6.92206,-3.55482 6.9222807,3.5546847 0 0 0 -6.92206,-3.55431 6.9222807,3.5546847 0 0 0 -4.61729,0.9121 14.967093,6.1739258 0 0 0 0.68833,-1.84743 14.967093,6.1739258 0 0 0 -14.96704,-6.17431 14.967093,6.1739258 0 0 0 -6.85746,0.68834 6.1739258,2.2450637 0 0 0 -6.05183,-1.81076 6.1739258,2.2450637 0 0 0 -6.17378,2.24483 6.1739258,2.2450637 0 0 0 5.7769,2.23811 14.967093,6.1739258 0 0 0 -1.66088,2.81379 14.967093,6.1739258 0 0 0 14.96705,6.17376 14.967093,6.1739258 0 0 0 12.22613,-2.61948 6.9222807,3.5546847 0 0 0 -0.25218,0.93536 6.9222807,3.5546847 0 0 0 6.92205,3.55482 z m 168.94111,-0.74827 a 7.1093692,2.6192414 0 0 0 7.10913,-2.61949 7.1093692,2.6192414 0 0 0 -0.69402,-1.12292 14.218738,4.1159506 0 0 0 14.16451,-4.11551 14.218738,4.1159506 0 0 0 -14.21877,-4.11552 14.218738,4.1159506 0 0 0 -10.8567,1.45831 4.6772165,2.4321527 0 0 0 0.006,-0.0579 4.6772165,2.4321527 0 0 0 -4.67723,-2.43242 4.6772165,2.4321527 0 0 0 -4.67723,2.43242 4.6772165,2.4321527 0 0 0 4.67723,2.43189 4.6772165,2.4321527 0 0 0 1.37769,-0.11059 14.218738,4.1159506 0 0 0 -0.0682,0.39378 14.218738,4.1159506 0 0 0 4.36408,2.96105 7.1093692,2.6192414 0 0 0 -3.6158,2.27738 7.1093692,2.6192414 0 0 0 7.10964,2.61949 z m -48.45596,0 a 5.051394,1.8708867 0 0 0 5.05138,-1.87069 5.051394,1.8708867 0 0 0 -5.05138,-1.87122 5.051394,1.8708867 0 0 0 -5.05137,1.87122 5.051394,1.8708867 0 0 0 5.05137,1.87069 z m -53.69439,-0.74828 a 9.7286108,1.8708867 0 0 0 9.7286,-1.87121 9.7286108,1.8708867 0 0 0 -9.7286,-1.87069 9.7286108,1.8708867 0 0 0 -1.60249,0.0264 4.6772165,2.6192414 0 0 0 0.48008,-1.14877 4.6772165,2.6192414 0 0 0 -4.67724,-2.61948 4.6772165,2.6192414 0 0 0 -4.67723,2.61948 4.6772165,2.6192414 0 0 0 1.90996,2.10788 9.7286108,1.8708867 0 0 0 -1.16169,0.88522 9.7286108,1.8708867 0 0 0 9.72861,1.87121 z M 82.50608,255.33741 a 7.6706356,2.4321527 0 0 0 7.670323,-2.43189 7.6706356,2.4321527 0 0 0 -0.265112,-0.62995 11.599498,4.6772165 0 0 0 9.619588,-4.60848 11.599498,4.6772165 0 0 0 -11.599306,-4.67725 11.599498,4.6772165 0 0 0 -11.59981,4.67725 11.599498,4.6772165 0 0 0 2.828264,3.05149 7.6706356,2.4321527 0 0 0 -4.3248,2.18694 7.6706356,2.4321527 0 0 0 7.670853,2.43189 z m 298.96726,-0.37415 a 11.786586,4.1159506 0 0 0 11.78688,-4.11601 11.786586,4.1159506 0 0 0 -11.78688,-4.11552 11.786586,4.1159506 0 0 0 -11.78635,4.11552 11.786586,4.1159506 0 0 0 11.78635,4.11601 z M 23.946857,251.22139 a 9.3544331,3.7417734 0 0 0 9.354449,-3.74139 9.3544331,3.7417734 0 0 0 -9.354449,-3.74187 9.3544331,3.7417734 0 0 0 -9.353947,3.74187 9.3544331,3.7417734 0 0 0 9.353947,3.74139 z m 269.781973,-6.36084 a 5.9868373,2.4321527 0 0 0 5.98723,-2.43192 5.9868373,2.4321527 0 0 0 -5.98723,-2.4324 5.9868373,2.4321527 0 0 0 -5.98671,2.4324 5.9868373,2.4321527 0 0 0 5.98671,2.43192 z M 70.90627,243.36398 a 5.051394,1.683798 0 0 0 5.051372,-1.68362 5.051394,1.683798 0 0 0 -5.051372,-1.68413 5.051394,1.683798 0 0 0 -5.051372,1.68413 5.051394,1.683798 0 0 0 5.051372,1.68362 z m 383.53213,-1.12241 a 4.6772165,2.2450637 0 0 0 4.67672,-2.24534 4.6772165,2.2450637 0 0 0 -4.67672,-2.24483 4.6772165,2.2450637 0 0 0 -4.67724,2.24483 4.6772165,2.2450637 0 0 0 4.67724,2.24534 z"
       style="opacity:1;fill:url(#linearGradient9807);fill-opacity:1;stroke:none;stroke-width:1.05799997;stroke-linecap:round;stroke-linejoin:miter;stroke-miterlimit:2;stroke-dasharray:none;stroke-dashoffset:0.99968505;stroke-opacity:0.97029706"
       inkscape:connector-curvature="0" />
  </g>
</svg>
