<?xml version="1.0" encoding="UTF-8" standalone="no"?>
<!-- Created with Inkscape (http://www.inkscape.org/) -->

<svg
   xmlns:dc="http://purl.org/dc/elements/1.1/"
   xmlns:cc="http://creativecommons.org/ns#"
   xmlns:rdf="http://www.w3.org/1999/02/22-rdf-syntax-ns#"
   xmlns:svg="http://www.w3.org/2000/svg"
   xmlns="http://www.w3.org/2000/svg"
   xmlns:sodipodi="http://sodipodi.sourceforge.net/DTD/sodipodi-0.dtd"
   xmlns:inkscape="http://www.inkscape.org/namespaces/inkscape"
   width="196"
   height="132.00002"
   viewBox="0 0 51.858328 34.925004"
   version="1.1"
   id="svg8"
   inkscape:version="0.92.2 2405546, 2018-03-11"
   sodipodi:docname="move_keys_wasd.svg">
  <defs
     id="defs2" />
  <sodipodi:namedview
     id="base"
     pagecolor="#ffffff"
     bordercolor="#666666"
     borderopacity="1.0"
     inkscape:pageopacity="0.0"
     inkscape:pageshadow="2"
     inkscape:zoom="5.6568542"
     inkscape:cx="99.079907"
     inkscape:cy="58.197822"
     inkscape:document-units="mm"
     inkscape:current-layer="layer1"
     showgrid="true"
     units="px"
     inkscape:window-width="1916"
     inkscape:window-height="1160"
     inkscape:window-x="0"
     inkscape:window-y="38"
     inkscape:window-maximized="0"
     fit-margin-top="2"
     fit-margin-bottom="2"
     fit-margin-right="2"
     fit-margin-left="2"
     inkscape:snap-bbox="true"
     inkscape:snap-bbox-midpoints="true">
    <inkscape:grid
       type="xygrid"
       id="grid4485"
       empspacing="8"
       spacingx="1.0583333"
       spacingy="1.0583333"
       originx="0.52916671"
       originy="0.52917" />
  </sodipodi:namedview>
  <metadata
     id="metadata5">
    <rdf:RDF>
      <cc:Work
         rdf:about="">
        <dc:format>image/svg+xml</dc:format>
        <dc:type
           rdf:resource="http://purl.org/dc/dcmitype/StillImage" />
        <dc:title></dc:title>
      </cc:Work>
    </rdf:RDF>
  </metadata>
  <g
     inkscape:label="Layer 1"
     inkscape:groupmode="layer"
     id="layer1"
     transform="translate(0.52916677,-262.60415)">
    <path
       style="opacity:1;fill:#ffffff;fill-opacity:1;stroke:none;stroke-width:8.0010004;stroke-linecap:round;stroke-linejoin:round;stroke-miterlimit:2;stroke-dasharray:none;stroke-dashoffset:0.99968505;stroke-opacity:1"
       d="m 72,0 c -4.431978,0 -8,3.5680217 -8,8 v 48 c 0,4.431978 3.568022,8 8,8 h 48 c 4.43198,0 8,-3.568022 8,-8 V 8 c 0,-4.4319783 -3.56802,-8 -8,-8 z m 4,4 h 40 c 4.43198,0 8,3.5680217 8,8 v 36 c 0,4.431978 -3.56802,8 -8,8 H 76 c -4.431978,0 -8,-3.568022 -8,-8 V 12 c 0,-4.4319783 3.568022,-8 8,-8 z"
       transform="matrix(0.26458333,0,0,0.26458333,0,263.13332)"
       id="rect15275"
       inkscape:connector-curvature="0" />
    <path
       id="path15280"
       d="m 19.049999,280.06665 c -1.172627,0 -2.116666,0.94404 -2.116666,2.11667 v 12.7 c 0,1.17263 0.944039,2.11667 2.116666,2.11667 h 12.7 c 1.172628,0 2.116667,-0.94404 2.116667,-2.11667 v -12.7 c 0,-1.17263 -0.944039,-2.11667 -2.116667,-2.11667 z m 1.058334,1.05834 h 10.583333 c 1.172628,0 2.116667,0.94404 2.116667,2.11666 v 9.525 c 0,1.17263 -0.944039,2.11667 -2.116667,2.11667 H 20.108333 c -1.172628,0 -2.116667,-0.94404 -2.116667,-2.11667 v -9.525 c 0,-1.17262 0.944039,-2.11666 2.116667,-2.11666 z"
       style="opacity:1;fill:#ffffff;fill-opacity:1;stroke:none;stroke-width:2.11693144;stroke-linecap:round;stroke-linejoin:round;stroke-miterlimit:2;stroke-dasharray:none;stroke-dashoffset:0.99968505;stroke-opacity:1"
       inkscape:connector-curvature="0" />
    <path
       inkscape:connector-curvature="0"
       style="opacity:1;fill:#ffffff;fill-opacity:1;stroke:none;stroke-width:2.11693144;stroke-linecap:round;stroke-linejoin:round;stroke-miterlimit:2;stroke-dasharray:none;stroke-dashoffset:0.99968505;stroke-opacity:1"
       d="m 2.1166659,280.06665 c -1.172627,0 -2.11666600000001,0.94404 -2.11666600000001,2.11667 v 12.7 c 0,1.17263 0.94403900000001,2.11667 2.11666600000001,2.11667 H 14.816666 c 1.172628,0 2.116667,-0.94404 2.116667,-2.11667 v -12.7 c 0,-1.17263 -0.944039,-2.11667 -2.116667,-2.11667 z m 1.058334,1.05834 H 13.758333 c 1.172628,0 2.116667,0.94404 2.116667,2.11666 v 9.525 c 0,1.17263 -0.944039,2.11667 -2.116667,2.11667 H 3.1749999 c -1.172628,0 -2.116667,-0.94404 -2.116667,-2.11667 v -9.525 c 0,-1.17262 0.944039,-2.11666 2.116667,-2.11666 z"
       id="path15282" />
    <path
       id="path15284"
       d="m 35.983332,280.06665 c -1.172627,0 -2.116666,0.94404 -2.116666,2.11667 v 12.7 c 0,1.17263 0.944039,2.11667 2.116666,2.11667 h 12.7 c 1.172628,0 2.116667,-0.94404 2.116667,-2.11667 v -12.7 c 0,-1.17263 -0.944039,-2.11667 -2.116667,-2.11667 z m 1.058334,1.05834 h 10.583333 c 1.172628,0 2.116667,0.94404 2.116667,2.11666 v 9.525 c 0,1.17263 -0.944039,2.11667 -2.116667,2.11667 H 37.041666 c -1.172628,0 -2.116667,-0.94404 -2.116667,-2.11667 v -9.525 c 0,-1.17262 0.944039,-2.11666 2.116667,-2.11666 z"
       style="opacity:1;fill:#ffffff;fill-opacity:1;stroke:none;stroke-width:2.11693144;stroke-linecap:round;stroke-linejoin:round;stroke-miterlimit:2;stroke-dasharray:none;stroke-dashoffset:0.99968505;stroke-opacity:1"
       inkscape:connector-curvature="0" />
    <path
       style="font-style:normal;font-weight:normal;font-size:10.58333302px;line-height:6.61458302px;font-family:sans-serif;letter-spacing:0px;word-spacing:0px;fill:#ffffff;fill-opacity:1;stroke:none;stroke-width:0.26458332px;stroke-linecap:butt;stroke-linejoin:miter;stroke-opacity:1"
       d="m 20.516577,267.21317 1.932698,7.7153 h 1.312582 l 1.64331,-6.69727 1.627809,6.69727 h 1.31258 l 1.937866,-7.7153 h -1.059368 l -1.617472,6.52157 -1.622639,-6.52157 h -1.173055 l -1.617472,6.52157 -1.62264,-6.52157 z"
       id="text15955"
       inkscape:connector-curvature="0" />
    <path
       style="font-style:normal;font-weight:normal;font-size:10.58333302px;line-height:6.61458302px;font-family:sans-serif;letter-spacing:0px;word-spacing:0px;fill:#ffffff;fill-opacity:1;stroke:none;stroke-width:0.26458332px;stroke-linecap:butt;stroke-linejoin:miter;stroke-opacity:1"
       d="m 7.8775553,284.14651 -2.9455568,7.71529 h 1.100708 l 0.7027994,-1.97921 H 10.21333 l 0.702799,1.97921 h 1.085205 l -2.9403885,-7.71529 z m 0.5891112,1.02836 1.4211019,3.83956 h -2.837036 z"
       id="text15959"
       inkscape:connector-curvature="0" />
    <path
       style="font-style:normal;font-weight:normal;font-size:10.58333302px;line-height:6.61458302px;font-family:sans-serif;letter-spacing:0px;word-spacing:0px;fill:#ffffff;fill-opacity:1;stroke:none;stroke-width:0.26458332px;stroke-linecap:butt;stroke-linejoin:miter;stroke-opacity:1"
       d="m 25.392248,284.00181 c -0.844048,0 -1.507229,0.19637 -1.989542,0.58911 -0.478869,0.39275 -0.718303,0.93018 -0.718303,1.61231 0,0.58911 0.173977,1.04903 0.521932,1.37976 0.347955,0.33073 0.911228,0.57361 1.689819,0.72864 l 0.635621,0.12402 c 0.530545,0.1068 0.911228,0.267 1.142048,0.48059 0.234267,0.2136 0.351401,0.50988 0.351401,0.88884 0,0.43408 -0.16192,0.76825 -0.485759,1.00252 -0.32384,0.23427 -0.783759,0.3514 -1.379761,0.3514 -0.392741,0 -0.792372,-0.0603 -1.198893,-0.18087 -0.406521,-0.12058 -0.821655,-0.29972 -1.245402,-0.53743 v 1.07487 c 0.440972,0.16192 0.866441,0.28422 1.276408,0.3669 0.413411,0.0827 0.802707,0.12402 1.167887,0.12402 0.968072,0 1.701878,-0.19292 2.201416,-0.57877 0.502984,-0.38585 0.754476,-0.95257 0.754476,-1.70016 0,-0.62701 -0.186034,-1.12654 -0.558105,-1.49861 -0.368625,-0.37552 -0.942234,-0.63735 -1.720825,-0.78549 l -0.630453,-0.12919 c -0.571886,-0.1068 -0.961182,-0.24632 -1.167887,-0.41858 -0.203261,-0.1757 -0.304891,-0.43408 -0.304891,-0.77514 0,-0.40652 0.153306,-0.72003 0.45992,-0.94051 0.310058,-0.22049 0.749308,-0.33073 1.317749,-0.33073 0.327284,0 0.666625,0.0465 1.018026,0.13952 0.351399,0.093 0.725191,0.23427 1.121378,0.42375 v -1.01803 c -0.392742,-0.13091 -0.776869,-0.22909 -1.152384,-0.29455 -0.375516,-0.0655 -0.744141,-0.0982 -1.105876,-0.0982 z"
       id="text15963"
       inkscape:connector-curvature="0" />
    <path
       style="font-style:normal;font-weight:normal;font-size:10.58333302px;line-height:6.61458302px;font-family:sans-serif;letter-spacing:0px;word-spacing:0px;fill:#ffffff;fill-opacity:1;stroke:none;stroke-width:0.26458332px;stroke-linecap:butt;stroke-linejoin:miter;stroke-opacity:1"
       d="m 39.090636,284.14651 v 7.71529 h 2.144573 c 1.488281,0 2.58382,-0.31178 3.286619,-0.93535 0.7028,-0.62356 1.054201,-1.60024 1.054201,-2.93005 0,-1.32292 -0.349679,-2.29443 -1.049031,-2.91455 -0.699354,-0.62356 -1.796618,-0.93534 -3.291789,-0.93534 z m 1.043864,0.85783 h 1.260906 c 1.064535,0 1.843124,0.24115 2.335773,0.72347 0.496094,0.47886 0.744141,1.23506 0.744141,2.26859 0,1.04042 -0.248047,1.80179 -0.744141,2.2841 -0.492649,0.48231 -1.271238,0.72347 -2.335773,0.72347 H 40.1345 Z"
       id="text15967"
       inkscape:connector-curvature="0" />
  </g>
</svg>
