<?xml version="1.0" encoding="UTF-8" standalone="no"?>
<!-- Created with Inkscape (http://www.inkscape.org/) -->

<svg
   xmlns:dc="http://purl.org/dc/elements/1.1/"
   xmlns:cc="http://creativecommons.org/ns#"
   xmlns:rdf="http://www.w3.org/1999/02/22-rdf-syntax-ns#"
   xmlns:svg="http://www.w3.org/2000/svg"
   xmlns="http://www.w3.org/2000/svg"
   xmlns:sodipodi="http://sodipodi.sourceforge.net/DTD/sodipodi-0.dtd"
   xmlns:inkscape="http://www.inkscape.org/namespaces/inkscape"
   width="130"
   height="129.69786"
   viewBox="0 0 34.395833 34.315894"
   version="1.1"
   id="svg8"
   inkscape:version="0.92.2 2405546, 2018-03-11"
   sodipodi:docname="bomb.svg">
  <defs
     id="defs2" />
  <sodipodi:namedview
     id="base"
     pagecolor="#ffffff"
     bordercolor="#666666"
     borderopacity="1.0"
     inkscape:pageopacity="0.0"
     inkscape:pageshadow="2"
     inkscape:zoom="5.6568542"
     inkscape:cx="65.339749"
     inkscape:cy="61.200051"
     inkscape:document-units="mm"
     inkscape:current-layer="layer1"
     showgrid="true"
     units="px"
     inkscape:window-width="1916"
     inkscape:window-height="1160"
     inkscape:window-x="0"
     inkscape:window-y="38"
     inkscape:window-maximized="0"
     inkscape:snap-bbox="true"
     inkscape:bbox-nodes="true"
     inkscape:snap-global="false"
     fit-margin-top="1"
     fit-margin-left="1"
     fit-margin-right="1"
     fit-margin-bottom="1"
     inkscape:snap-center="true"
     inkscape:snap-bbox-midpoints="false">
    <inkscape:grid
       type="xygrid"
       id="grid4485"
       empspacing="4"
       spacingx="4.2333333"
       spacingy="4.2333333"
       originx="0.26458306"
       originy="0.26505159" />
  </sodipodi:namedview>
  <metadata
     id="metadata5">
    <rdf:RDF>
      <cc:Work
         rdf:about="">
        <dc:format>image/svg+xml</dc:format>
        <dc:type
           rdf:resource="http://purl.org/dc/dcmitype/StillImage" />
        <dc:title></dc:title>
      </cc:Work>
    </rdf:RDF>
  </metadata>
  <g
     inkscape:label="Layer 1"
     inkscape:groupmode="layer"
     id="layer1"
     transform="translate(0.26458328,-262.94915)">
    <path
       style="opacity:1;fill:none;fill-opacity:1;stroke:#740909;stroke-width:1.05833328;stroke-linecap:round;stroke-linejoin:miter;stroke-miterlimit:2;stroke-dasharray:none;stroke-dashoffset:0.99968505;stroke-opacity:1"
       d="m 8.9958331,264.98541 a 4.233333,2.1166665 0 0 0 -4.2333332,2.11666 v 1.85209 a 4.233333,2.1166665 0 0 0 -4.23333321,2.11666 v 23.28334 c 0,1.07564 1.60605121,1.96201 3.68375371,2.09703 a 4.2333329,2.1166665 0 0 0 0.040825,0.003 c 0.094871,0.006 0.1911435,0.009 0.2878375,0.0111 a 4.2333329,2.1166665 0 0 0 0.220917,0.006 c 0.8838222,0 1.7037117,-0.13581 2.3825422,-0.36742 a 4.2333329,2.1166665 0 0 0 0.1018025,-0.038 c 0.075974,-0.0276 0.152236,-0.0552 0.2242755,-0.0853 a 4.2333329,2.1166665 0 0 0 0.128933,-0.0584 c 0.060697,-0.0275 0.1219015,-0.0545 0.179317,-0.0837 a 4.2333329,2.1166665 0 0 0 0.108004,-0.0594 c 0.061469,-0.0337 0.1235445,-0.0672 0.180609,-0.10284 a 4.2333329,2.1166665 0 0 0 0.02248,-0.0142 c 0.079952,-0.0508 0.155287,-0.10347 0.225826,-0.15787 a 4.2333329,2.1166665 0 0 0 0.01602,-0.0124 c 0.071599,-0.0561 0.137964,-0.11387 0.198954,-0.17338 a 4.2333329,2.1166665 0 0 0 0.00723,-0.007 c 0.062587,-0.0616 0.11925,-0.12498 0.169757,-0.18991 a 4.2333329,2.1166665 0 0 0 5e-4,-10e-4 c 0.05008,-0.0645 0.093799,-0.13059 0.1312585,-0.19792 a 4.2333329,2.1166665 0 0 0 0.00235,-0.004 c 0.035755,-0.0648 0.065444,-0.13058 0.088883,-0.19766 a 4.2333329,2.1166665 0 0 0 0.0044,-0.0124 c 0.02133,-0.0633 0.036935,-0.12745 0.046765,-0.19249 a 4.2333329,2.1166665 0 0 0 0.0039,-0.0251 c 0.00576,-0.0452 0.00956,-0.0908 0.00956,-0.13669 0,1.07565 1.6060504,1.96202 3.6837534,2.09703 a 4.2333329,2.1166665 0 0 0 0.04082,0.003 c 0.09487,0.006 0.191144,0.009 0.287838,0.0111 a 4.2333329,2.1166665 0 0 0 0.220917,0.005 4.2333329,2.1166665 0 0 0 0.422713,-0.0106 c 0.722252,-0.0358 1.390619,-0.16262 1.959829,-0.35682 a 4.2333329,2.1166665 0 0 0 0.101802,-0.038 c 0.07597,-0.0276 0.152236,-0.0552 0.224276,-0.0853 a 4.2333329,2.1166665 0 0 0 0.128933,-0.0584 c 0.0607,-0.0275 0.121901,-0.0545 0.179317,-0.0837 a 4.2333329,2.1166665 0 0 0 0.108004,-0.0594 c 0.06147,-0.0337 0.123544,-0.0672 0.180609,-0.10283 a 4.2333329,2.1166665 0 0 0 0.02248,-0.0142 c 0.07995,-0.0508 0.155287,-0.10347 0.225826,-0.15788 a 4.2333329,2.1166665 0 0 0 0.01602,-0.0124 c 0.0716,-0.0561 0.137964,-0.11386 0.198954,-0.17337 a 4.2333329,2.1166665 0 0 0 0.0072,-0.007 c 0.06259,-0.0616 0.11925,-0.12499 0.169757,-0.18991 a 4.2333329,2.1166665 0 0 0 5e-4,-10e-4 c 0.05008,-0.0645 0.0938,-0.1306 0.131258,-0.19793 a 4.2333329,2.1166665 0 0 0 0.0023,-0.004 c 0.03576,-0.0648 0.06545,-0.13058 0.08888,-0.19766 a 4.2333329,2.1166665 0 0 0 0.0044,-0.0124 c 0.02133,-0.0633 0.03693,-0.12744 0.04677,-0.19249 a 4.2333329,2.1166665 0 0 0 0.0039,-0.025 c 0.0058,-0.0452 0.0096,-0.0908 0.0096,-0.13668 v -23.28334 a 4.233333,2.1166665 0 0 0 -4.233334,-2.11666 v -1.85209 a 4.233333,2.1166665 0 0 0 -4.2333324,-2.11666 z"
       id="path7385"
       inkscape:connector-curvature="0"
       inkscape:transform-center-x="-8.466679"
       inkscape:transform-center-y="-15.743318" />
    <g
       id="use7361"
       transform="matrix(0.5,0,0,0.5,2.6458334,144.00208)"
       inkscape:transform-center-x="-8.466667"
       inkscape:transform-center-y="-17.727085">
      <g
         id="g7449">
        <path
           sodipodi:nodetypes="cssscc"
           inkscape:connector-curvature="0"
           style="opacity:1;fill:#ec1414;fill-opacity:1;stroke:none;stroke-width:2.11666656;stroke-linecap:round;stroke-linejoin:miter;stroke-miterlimit:2;stroke-dasharray:none;stroke-dashoffset:0.99968505;stroke-opacity:0.97029706"
           d="m 4.2333333,246.19998 v 46.56667 c 0,2.33801 3.7906557,4.23333 8.4666667,4.23333 4.676011,0 8.466667,-1.89532 8.466666,-4.23333 v -46.56667 z"
           id="path7443" />
        <ellipse
           ry="4.2333331"
           rx="8.4666662"
           cy="246.19998"
           cx="12.7"
           id="ellipse7445"
           style="opacity:1;fill:#f36666;fill-opacity:1;stroke:none;stroke-width:2.11666656;stroke-linecap:round;stroke-linejoin:miter;stroke-miterlimit:2;stroke-dasharray:none;stroke-dashoffset:0.99968505;stroke-opacity:0.97029706" />
        <path
           inkscape:connector-curvature="0"
           style="opacity:1;fill:#ac0e0e;fill-opacity:1;stroke:none;stroke-width:2.11666656;stroke-linecap:round;stroke-linejoin:miter;stroke-miterlimit:2;stroke-dasharray:none;stroke-dashoffset:0.99968505;stroke-opacity:0.97029706"
           d="m 21.166666,246.19998 c 0,8.10763 -4.23e-4,47.2688 -11.15229,50.57573 a 8.466666,4.233333 0 0 0 2.685624,0.22427 8.466666,4.233333 0 0 0 8.466666,-4.23333 z"
           id="path7447" />
      </g>
    </g>
    <path
       sodipodi:nodetypes="csc"
       inkscape:connector-curvature="0"
       id="path7309"
       d="m 8.8408438,266.80538 c 0.7483552,-5.32101 14.4424892,-3.67206 14.7818132,4.70106 0.171417,4.22986 -2.455991,6.44354 -2.455991,10.67688"
       style="opacity:1;fill:none;fill-opacity:1;stroke:#3e2723;stroke-width:1.05833328;stroke-linecap:round;stroke-linejoin:miter;stroke-miterlimit:2;stroke-dasharray:none;stroke-dashoffset:0.99968505;stroke-opacity:0.99507392"
       inkscape:transform-center-x="-16.048681"
       inkscape:transform-center-y="-24.073964" />
    <g
       id="g7357"
       transform="matrix(0.5,0,0,0.5,-1.5875001,147.97083)"
       inkscape:transform-center-x="-4.2333333"
       inkscape:transform-center-y="-13.758335">
      <g
         id="g7338">
        <path
           sodipodi:nodetypes="cssscc"
           inkscape:connector-curvature="0"
           style="opacity:1;fill:#ec1414;fill-opacity:1;stroke:none;stroke-width:2.11666656;stroke-linecap:round;stroke-linejoin:miter;stroke-miterlimit:2;stroke-dasharray:none;stroke-dashoffset:0.99968505;stroke-opacity:0.97029706"
           d="m 4.2333333,246.19998 v 46.56667 c 0,2.33801 3.7906557,4.23333 8.4666667,4.23333 4.676011,0 8.466667,-1.89532 8.466666,-4.23333 v -46.56667 z"
           id="rect7234" />
        <ellipse
           ry="4.2333331"
           rx="8.4666662"
           cy="246.19998"
           cx="12.7"
           id="ellipse7238"
           style="opacity:1;fill:#f36666;fill-opacity:1;stroke:none;stroke-width:2.11666656;stroke-linecap:round;stroke-linejoin:miter;stroke-miterlimit:2;stroke-dasharray:none;stroke-dashoffset:0.99968505;stroke-opacity:0.97029706" />
        <path
           inkscape:connector-curvature="0"
           style="opacity:1;fill:#ac0e0e;fill-opacity:1;stroke:none;stroke-width:2.11666656;stroke-linecap:round;stroke-linejoin:miter;stroke-miterlimit:2;stroke-dasharray:none;stroke-dashoffset:0.99968505;stroke-opacity:0.97029706"
           d="m 21.166666,246.19998 c 0,8.10763 -4.23e-4,47.2688 -11.15229,50.57573 a 8.466666,4.233333 0 0 0 2.685624,0.22427 8.466666,4.233333 0 0 0 8.466666,-4.23333 z"
           id="path7243" />
      </g>
    </g>
    <path
       sodipodi:nodetypes="csc"
       inkscape:connector-curvature="0"
       id="path7311"
       d="m 4.5139661,270.99195 c 0,-6.35 18.7693669,-7.85863 18.8280579,0.28063 0.03053,4.23322 -1.286687,6.53709 -1.286687,10.77042"
       style="opacity:1;fill:none;fill-opacity:1;stroke:#3e2723;stroke-width:1.05833328;stroke-linecap:round;stroke-linejoin:miter;stroke-miterlimit:2;stroke-dasharray:none;stroke-dashoffset:0.99968505;stroke-opacity:0.99507392"
       inkscape:transform-center-x="-13.787941"
       inkscape:transform-center-y="-22.996184" />
    <g
       transform="matrix(0.5,0,0,0.5,6.8791666,147.97083)"
       id="use7359"
       inkscape:transform-center-x="-12.700001"
       inkscape:transform-center-y="-13.758335">
      <g
         id="g7439">
        <path
           id="path7433"
           d="m 4.2333333,246.19998 v 46.56667 c 0,2.33801 3.7906557,4.23333 8.4666667,4.23333 4.676011,0 8.466667,-1.89532 8.466666,-4.23333 v -46.56667 z"
           style="opacity:1;fill:#ec1414;fill-opacity:1;stroke:none;stroke-width:2.11666656;stroke-linecap:round;stroke-linejoin:miter;stroke-miterlimit:2;stroke-dasharray:none;stroke-dashoffset:0.99968505;stroke-opacity:0.97029706"
           inkscape:connector-curvature="0"
           sodipodi:nodetypes="cssscc" />
        <ellipse
           style="opacity:1;fill:#f36666;fill-opacity:1;stroke:none;stroke-width:2.11666656;stroke-linecap:round;stroke-linejoin:miter;stroke-miterlimit:2;stroke-dasharray:none;stroke-dashoffset:0.99968505;stroke-opacity:0.97029706"
           id="ellipse7435"
           cx="12.7"
           cy="246.19998"
           rx="8.4666662"
           ry="4.2333331" />
        <path
           id="path7437"
           d="m 21.166666,246.19998 c 0,8.10763 -4.23e-4,47.2688 -11.15229,50.57573 a 8.466666,4.233333 0 0 0 2.685624,0.22427 8.466666,4.233333 0 0 0 8.466666,-4.23333 z"
           style="opacity:1;fill:#ac0e0e;fill-opacity:1;stroke:none;stroke-width:2.11666656;stroke-linecap:round;stroke-linejoin:miter;stroke-miterlimit:2;stroke-dasharray:none;stroke-dashoffset:0.99968505;stroke-opacity:0.97029706"
           inkscape:connector-curvature="0" />
      </g>
    </g>
    <path
       style="opacity:1;fill:none;fill-opacity:1;stroke:#3e2723;stroke-width:1.05833328;stroke-linecap:round;stroke-linejoin:miter;stroke-miterlimit:2;stroke-dasharray:none;stroke-dashoffset:0.99968505;stroke-opacity:0.99507392"
       d="m 13.12095,270.99194 c 0,-6.35 9.519491,-5.23921 9.519491,0.37418 1e-6,4.23334 -0.865737,6.77095 -0.865737,11.00429"
       id="path7307"
       inkscape:connector-curvature="0"
       sodipodi:nodetypes="csc"
       inkscape:transform-center-x="-17.670221"
       inkscape:transform-center-y="-22.316672" />
    <rect
       ry="2.1166594"
       y="281.65414"
       x="14.2875"
       height="14.816673"
       width="19.049999"
       id="rect7431"
       style="opacity:1;fill:none;fill-opacity:1;stroke:#212121;stroke-width:1.05833328;stroke-linecap:round;stroke-linejoin:miter;stroke-miterlimit:2;stroke-dasharray:none;stroke-dashoffset:0.99968505;stroke-opacity:0.97029706"
       inkscape:transform-center-x="-24.341668"
       inkscape:transform-center-y="-7.4083263" />
    <rect
       style="opacity:1;fill:#616161;fill-opacity:1;stroke:none;stroke-width:1.05833328;stroke-linecap:round;stroke-linejoin:miter;stroke-miterlimit:2;stroke-dasharray:none;stroke-dashoffset:0.99968505;stroke-opacity:0.97029706"
       id="rect7267"
       width="19.049999"
       height="14.816673"
       x="14.2875"
       y="281.65414"
       ry="2.1166594"
       inkscape:transform-center-x="-24.341668"
       inkscape:transform-center-y="-7.4083263" />
    <rect
       style="opacity:1;fill:#000000;fill-opacity:1;stroke:none;stroke-width:1.05833328;stroke-linecap:round;stroke-linejoin:miter;stroke-miterlimit:2;stroke-dasharray:none;stroke-dashoffset:0.99968505;stroke-opacity:0.97029706"
       id="rect7305"
       width="14.816667"
       height="10.583333"
       x="16.404165"
       y="283.77081"
       ry="6.0248667e-06"
       inkscape:transform-center-x="-24.341667"
       inkscape:transform-center-y="-7.4083281" />
  </g>
</svg>
