<?xml version="1.0" encoding="UTF-8" standalone="no"?>
<!-- Created with Inkscape (http://www.inkscape.org/) -->

<svg
   xmlns:dc="http://purl.org/dc/elements/1.1/"
   xmlns:cc="http://creativecommons.org/ns#"
   xmlns:rdf="http://www.w3.org/1999/02/22-rdf-syntax-ns#"
   xmlns:svg="http://www.w3.org/2000/svg"
   xmlns="http://www.w3.org/2000/svg"
   xmlns:sodipodi="http://sodipodi.sourceforge.net/DTD/sodipodi-0.dtd"
   xmlns:inkscape="http://www.inkscape.org/namespaces/inkscape"
   width="1920"
   height="1080"
   viewBox="0 0 507.99997 285.75001"
   version="1.1"
   id="svg8"
   inkscape:version="0.92.2 2405546, 2018-03-11"
   sodipodi:docname="title_screen.svg">
  <defs
     id="defs2" />
  <sodipodi:namedview
     id="base"
     pagecolor="#ffffff"
     bordercolor="#666666"
     borderopacity="1.0"
     inkscape:pageopacity="0.0"
     inkscape:pageshadow="2"
     inkscape:zoom="0.5"
     inkscape:cx="782.30378"
     inkscape:cy="691.27748"
     inkscape:document-units="mm"
     inkscape:current-layer="layer1"
     showgrid="true"
     units="px"
     inkscape:window-width="1916"
     inkscape:window-height="1160"
     inkscape:window-x="0"
     inkscape:window-y="38"
     inkscape:window-maximized="0"
     inkscape:snap-bbox="true"
     inkscape:snap-bbox-midpoints="true"
     inkscape:snap-global="true">
    <inkscape:grid
       type="xygrid"
       id="grid4485"
       empspacing="4"
       spacingx="4.2333333"
       spacingy="4.2333333" />
  </sodipodi:namedview>
  <metadata
     id="metadata5">
    <rdf:RDF>
      <cc:Work
         rdf:about="">
        <dc:format>image/svg+xml</dc:format>
        <dc:type
           rdf:resource="http://purl.org/dc/dcmitype/StillImage" />
        <dc:title />
      </cc:Work>
    </rdf:RDF>
  </metadata>
  <g
     inkscape:label="Layer 1"
     inkscape:groupmode="layer"
     id="layer1"
     transform="translate(0,-11.249983)">
    <g
       id="g886"
       transform="translate(-4.0916424e-6,-8.4666635)">
      <path
         style="font-style:normal;font-variant:normal;font-weight:normal;font-stretch:normal;font-size:70.73843384px;line-height:44.21151733px;font-family:'Pleasantly Plump';-inkscape-font-specification:'Pleasantly Plump';letter-spacing:0px;word-spacing:0px;fill:#03a9f4;fill-opacity:1;stroke:#0d47a1;stroke-width:32;stroke-linecap:butt;stroke-linejoin:miter;stroke-miterlimit:4;stroke-dasharray:none;stroke-opacity:1"
         d="m 423.43164,768.66016 c -8.19897,0 -16.57541,2.0509 -25.13086,6.15039 -4.81244,2.3171 -10.25043,5.70224 -16.31055,10.1582 -8.37721,6.41659 -15.50679,13.01209 -21.38867,19.78516 -8.37721,9.80312 -13.36655,14.70507 -14.9707,14.70507 -2.85182,0 -6.77299,-3.20841 -11.76367,-9.625 -3.2083,-4.27772 -5.88262,-7.39679 -8.02149,-9.35742 -8.37721,-8.19897 -17.64509,-15.14988 -27.80468,-20.85351 -12.12023,-6.95131 -22.72624,-10.42774 -31.81641,-10.42774 -13.36789,0 -25.22076,6.32749 -35.55859,18.98242 -10.33784,12.65494 -16.48665,27.71622 -18.44727,45.1836 0,1.24767 -0.17868,3.03055 -0.53516,5.34765 v 4.27735 7.7539 c 0.17824,2.49534 0.26758,5.07838 0.26758,7.75196 v 11.49609 c 0,11.05079 0.53409,20.76537 1.60352,29.14258 1.06943,8.37721 3.74376,19.60665 8.02148,33.6875 4.27773,14.08085 10.78389,25.57635 19.51758,34.48828 9.62488,9.98136 20.76498,14.97266 33.41992,14.97266 14.43733,0 24.59664,-4.36592 30.47852,-13.09961 4.99068,-9.98136 10.06936,-19.96395 15.23828,-29.94531 3.74301,5.34715 7.5768,10.60647 11.49805,15.77539 4.09948,4.99068 9.80159,7.48437 17.10937,7.48437 8.91193,0 15.86479,-4.27658 20.85547,-12.83203 4.99068,-8.55545 8.02041,-12.83399 9.08984,-12.83399 1.42591,10e-6 4.27696,4.09986 8.55469,12.29883 3.56477,6.77307 7.66463,13.45791 12.29883,20.05274 2.85182,3.74301 7.48575,7.12814 13.90234,10.1582 6.59483,2.85182 13.4564,4.2793 20.58594,4.2793 12.4767,0 24.15284,-6.68484 35.02539,-20.05274 10.87255,-13.36789 16.30859,-28.07181 16.30859,-44.11328 0,-1.60415 0.17868,-7.39754 0.53516,-17.3789 0.35648,-10.1596 0.5332,-17.91261 0.5332,-23.25977 0,-0.71295 0.17868,-1.87242 0.53516,-3.47656 v -6.6836 c 0,-23.52749 -4.45526,-44.64823 -13.36719,-63.36328 -11.5855,-24.41868 -28.34032,-36.6289 -50.26367,-36.6289 z m 507.96289,0.53515 c -25.30988,0 -47.14338,7.12959 -65.50195,21.38867 -19.60624,15.32852 -29.41016,34.48965 -29.41016,57.48243 0,7.84249 2.13829,16.04025 6.41602,24.5957 5.88187,11.76375 14.52632,19.78477 25.93359,24.0625 5.5254,2.13886 16.57616,3.74307 33.15235,4.8125 16.75442,0.89119 25.13281,3.65486 25.13281,8.28906 0,2.85182 -0.89144,4.72209 -2.67383,5.61328 -1.78239,0.8912 -4.36737,1.33789 -7.75391,1.33789 h -5.08007 c -6.23836,0 -13.45533,-1.07012 -21.6543,-3.20898 -8.19898,-2.13886 -14.70514,-3.20899 -19.51758,-3.20898 -8.02074,-10e-6 -14.16954,1.51486 -18.44727,4.54492 -4.27772,2.85181 -6.41796,6.6856 -6.41796,11.49804 0,9.80313 5.70406,19.78376 17.11132,29.94336 8.55546,7.48602 16.8445,12.65405 24.86524,15.50586 9.2684,3.56477 18.98102,6.32844 29.14062,8.28906 10.33784,1.78239 20.40977,2.67383 30.21289,2.67383 30.12232,0 54.18346,-7.66367 72.18556,-22.99218 16.0415,-13.72437 24.0625,-30.12379 24.0625,-49.19532 0,-10.87255 -3.1191,-20.85319 -9.3574,-29.94336 -6.2384,-9.2684 -14.1701,-15.95324 -23.795,-20.05273 -7.8425,-3.38653 -21.0315,-6.59494 -39.56831,-9.625 -11.76375,-1.96062 -17.64649,-5.4351 -17.64649,-10.42578 0,-1.96063 1.96157,-3.92219 5.88282,-5.88281 1.24767,-0.53472 3.20728,-1.24748 5.88086,-2.13868 9.62488,2.85182 19.07143,5.61549 28.33984,8.28907 9.26838,2.67357 16.04258,4.00976 20.32028,4.00976 6.9513,0 12.9215,-1.6042 17.9121,-4.8125 4.9907,-3.20829 7.4864,-7.57421 7.4864,-13.09961 0,-9.44664 -5.3467,-19.07188 -16.041,-28.875 -7.4861,-6.77306 -16.0431,-12.38778 -25.66802,-16.84375 -8.19897,-3.74301 -18.98171,-6.6834 -32.3496,-8.82226 -13.3679,-2.13887 -24.41866,-3.20899 -33.15235,-3.20899 z m 642.70707,0 c -31.1918,0 -53.5594,6.95091 -67.1055,20.85352 -15.8632,16.21971 -23.7949,45.09541 -23.7949,86.625 0,28.33993 6.1488,53.02449 18.4472,74.05664 11.2291,19.24976 26.469,28.875 45.7188,28.875 11.229,0 21.031,-3.47448 29.4082,-10.42578 7.1295,-9.26841 14.3485,-18.53824 21.6562,-27.80664 2.6736,2.67358 8.3777,8.64565 17.1114,17.91406 16.0414,15.15028 32.7963,22.72461 50.2636,22.72461 11.942,0 21.6546,-3.02973 29.1407,-9.08984 8.9119,-7.30779 13.3691,-18.00119 13.3691,-32.08204 0,-11.5855 -3.7444,-23.70639 -11.2305,-36.36132 -6.773,-11.58551 -14.7921,-21.65549 -24.0605,-30.21094 7.1295,-5.70364 14.2591,-11.49704 21.3887,-17.37891 6.4166,-7.8425 9.625,-17.02103 9.625,-27.53711 0,-19.78448 -10.8741,-35.29245 -32.6192,-46.52148 -17.6456,-9.09017 -37.6069,-13.63477 -59.8867,-13.63477 z m -410.8243,0.80274 c -27.9834,0 -53.0253,5.61472 -75.1269,16.84375 -22.1016,11.05079 -33.1524,23.88248 -33.1524,38.49804 0,13.54614 5.3467,25.13293 16.0411,34.75782 9.8031,8.73369 21.924,15.86327 36.3613,21.38867 0.1782,2.3171 0.355,5.16815 0.5332,8.55469 0.1782,3.20829 0.8036,8.28893 1.873,15.24023 2.8519,21.92334 8.1986,39.47831 16.0411,52.66797 9.9813,16.57619 23.4384,24.86523 40.3711,24.86523 17.1109,0 30.8359,-8.46577 41.1738,-25.39843 9.0901,-14.97204 13.6347,-32.70765 13.6347,-53.20508 V 879.3457 c 7.1296,-4.81244 17.4676,-11.05058 31.0137,-18.71484 9.8031,-8.02074 14.7031,-19.69492 14.7031,-35.02344 0,-18.18033 -12.8317,-32.52884 -38.498,-43.04492 -20.3192,-8.37721 -41.976,-12.56445 -64.9688,-12.56445 z m -558.77339,0.80078 c -25.48812,0 -42.51096,0.62342 -51.06641,1.87109 -12.83318,1.96063 -23.88394,6.41784 -33.15234,13.36914 -7.66426,5.70364 -13.27703,18.26926 -16.8418,37.69727 -2.67358,14.25908 -4.01172,29.85444 -4.01172,46.78711 0,22.99277 1.96156,42.1539 5.88281,57.48242 4.09949,15.32852 9.71421,27.0027 16.84375,35.02344 7.30778,8.02073 21.29894,13.81413 41.97461,17.3789 14.43733,2.49534 30.92413,3.74219 49.46094,3.74219 23.88397,0 42.68774,-2.85105 56.41211,-8.55469 15.50676,-6.41659 23.25976,-16.30984 23.25976,-29.67773 0,-13.72437 -5.3467,-24.14976 -16.04101,-31.2793 -10.51608,-7.30778 -24.14987,-10.96289 -40.9043,-10.96289 -1.42591,0 -5.97246,0.4467 -13.63672,1.33789 -1.60414,0.17824 -3.65309,0.26758 -6.14843,0.26758 -2.67358,0 -4.72449,-0.35736 -6.15039,-1.07031 -1.42591,-0.8912 -2.67276,-2.4954 -3.74219,-4.8125 4.27772,-2.67358 8.6456,-4.00977 13.10156,-4.00977 h 29.14063 c 5.88187,0 10.42647,-2.40631 13.63476,-7.21875 3.2083,-4.99068 4.8125,-10.78408 4.8125,-17.3789 0,-7.8425 -3.02973,-13.27854 -9.08984,-16.3086 -4.45597,-2.13886 -11.13886,-3.20898 -20.05078,-3.20898 -2.49534,0.17824 -4.99099,0.26758 -7.48633,0.26758 h -6.95117 c -6.06012,0 -10.51733,-0.53409 -13.36914,-1.60352 -2.67358,-1.06943 -4.00977,-3.20772 -4.00977,-6.41602 0,-1.24767 0.89144,-2.31779 2.67383,-3.20898 1.78238,-1.06943 3.20791,-1.60352 4.27734,-1.60352 4.45597,0.8912 8.7345,1.6933 12.83399,2.40625 4.27772,0.53472 10.60521,0.80079 18.98242,0.80079 13.36789,0 23.88261,-2.49565 31.54687,-7.48633 9.26841,-6.06011 13.9043,-15.41733 13.9043,-28.07227 0,-11.22903 -4.81262,-19.6948 -14.4375,-25.39844 -7.66426,-4.6342 -18.80436,-7.66393 -33.41992,-9.08984 -6.95131,-0.71295 -19.69561,-1.07031 -38.23242,-1.07031 z m 157.6289,0 c -16.57618,0 -30.39061,9.09115 -41.4414,27.27148 -9.98136,16.39795 -14.97266,34.9337 -14.97266,55.60938 v 34.22265 c 0,25.8446 4.90196,47.6781 14.70508,65.50196 11.22903,20.31919 26.82634,30.47851 46.78906,30.47851 14.7938,0 26.91273,-6.50421 36.35938,-19.51562 7.84249,-10.69432 13.54655,-25.13217 17.11132,-43.3125 2.67358,-13.3679 4.00977,-28.16115 4.00977,-44.38086 0,-26.37931 -4.18724,-49.10621 -12.56445,-68.17774 -11.0508,-25.13164 -27.71628,-37.69726 -49.9961,-37.69726 z m 621.99019,0 c -25.4881,0 -42.509,0.62342 -51.0644,1.87109 -12.8332,1.96063 -23.8839,6.41784 -33.1524,13.36914 -7.6642,5.70364 -13.2789,18.26926 -16.8437,37.69727 -2.6736,14.25908 -4.0098,29.85444 -4.0098,46.78711 0,22.99277 1.9596,42.1539 5.8809,57.48242 4.0995,15.32852 9.7142,27.0027 16.8437,35.02344 7.3078,8.02073 21.299,13.81413 41.9747,17.3789 14.4373,2.49534 30.9241,3.74219 49.4609,3.74219 23.884,0 42.6897,-2.85105 56.4141,-8.55469 15.5067,-6.41659 23.2597,-16.30984 23.2597,-29.67773 0,-13.72437 -5.3467,-24.14976 -16.041,-31.2793 -10.5161,-7.30778 -24.1518,-10.96289 -40.9062,-10.96289 -1.426,0 -5.9706,0.4467 -13.6348,1.33789 -1.6042,0.17824 -3.6551,0.26758 -6.1504,0.26758 -2.6736,0 -4.7225,-0.35736 -6.1484,-1.07031 -1.4259,-0.8912 -2.6747,-2.4954 -3.7442,-4.8125 4.2777,-2.67358 8.6456,-4.00977 13.1016,-4.00977 h 29.1406 c 5.8819,0 10.4284,-2.40631 13.6367,-7.21875 3.2083,-4.99068 4.8125,-10.78408 4.8125,-17.3789 0,-7.8425 -3.0297,-13.27854 -9.0898,-16.3086 -4.456,-2.13886 -11.1408,-3.20898 -20.0528,-3.20898 -2.4953,0.17824 -4.9909,0.26758 -7.4863,0.26758 h -6.9512 c -6.0601,0 -10.5153,-0.53409 -13.3671,-1.60352 -2.6736,-1.06943 -4.0118,-3.20772 -4.0118,-6.41602 0,-1.24767 0.8915,-2.31779 2.6739,-3.20898 1.7824,-1.06943 3.2079,-1.60352 4.2773,-1.60352 4.456,0.8912 8.7345,1.6933 12.834,2.40625 4.2777,0.53472 10.6052,0.80079 18.9824,0.80079 13.3679,0 23.8846,-2.49565 31.5488,-7.48633 9.2685,-6.06011 13.9024,-15.41733 13.9024,-28.07227 0,-11.22903 -4.8126,-19.6948 -14.4375,-25.39844 -7.6643,-4.6342 -18.8044,-7.66393 -33.4199,-9.08984 -6.9513,-0.71295 -19.6956,-1.07031 -38.2325,-1.07031 z m 203.0801,79.67383 c 4.8125,0 8.9123,0.8021 12.2989,2.40625 3.3865,1.60414 5.0781,4.18718 5.0781,7.75195 0,1.96062 -1.6042,3.56483 -4.8125,4.8125 -3.2083,1.24767 -7.2169,1.87305 -12.0293,1.87305 -3.5648,0 -7.1306,-0.80211 -10.6953,-2.40625 -3.5648,-1.78239 -5.3477,-4.01197 -5.3477,-6.68555 0,-1.78239 1.0701,-3.38659 3.209,-4.8125 2.8518,-1.96062 6.9517,-2.93945 12.2988,-2.93945 z"
         transform="matrix(0.26458333,0,0,0.26458333,0,11.249983)"
         id="path875"
         inkscape:connector-curvature="0" />
      <path
         style="font-style:normal;font-variant:normal;font-weight:normal;font-stretch:normal;font-size:76.86517334px;line-height:48.04073715px;font-family:'Pleasantly Plump';-inkscape-font-specification:'Pleasantly Plump';letter-spacing:0px;word-spacing:0px;fill:#e53935;fill-opacity:1;stroke:#b71c1c;stroke-width:32;stroke-linecap:butt;stroke-linejoin:miter;stroke-miterlimit:4;stroke-dasharray:none;stroke-opacity:1"
         d="m 1381.5762,483.44727 c -15.1068,0 -29.5361,9.39311 -43.2871,28.17968 -6.7787,9.29645 -12.3951,18.68957 -16.8496,28.17969 -3.2925,-4.0672 -9.4891,-12.39543 -18.5918,-24.98437 -16.2688,-19.94864 -33.6028,-29.92188 -52.002,-29.92188 -24.4032,0 -43.094,14.52477 -56.0703,43.57617 -10.0712,22.6601 -15.1055,48.99975 -15.1055,79.01953 0,25.75892 4.6469,48.90394 13.9434,69.4336 12.2016,27.11464 30.1176,40.67187 53.7461,40.67187 5.8103,0 12.0068,-1.25955 18.5918,-3.77734 8.328,-3.29249 15.1067,-7.9394 20.3359,-13.94336 5.4229,-6.19763 9.5871,-13.26827 12.4922,-21.20898 4.6482,-12.58895 7.5547,-18.88282 8.7168,-18.88282 1.9368,0 5.7135,4.74621 11.3301,14.23633 4.2608,7.35969 10.7474,15.49325 19.4629,24.40234 4.6482,4.84191 11.3314,9.00602 20.0468,12.49219 8.9091,3.48617 18.3022,5.22852 28.1797,5.22852 23.0475,0 40.1867,-12.29768 51.4199,-36.89453 8.7155,-19.17393 13.0743,-43.09376 13.0743,-71.75782 0,-28.85772 -4.8416,-55.0027 -14.5254,-78.4375 -12.589,-30.40713 -30.8924,-45.61132 -54.9082,-45.61132 z m -822.59964,2.0332 c -22.27274,0 -41.15631,2.1317 -56.65039,6.39258 -15.3004,4.26087 -26.04846,9.48986 -32.24609,15.6875 -6.77866,6.97233 -12.20234,19.65741 -16.26953,38.05664 C 449.93703,564.01641 448,582.2225 448,600.23438 c 0,34.08698 5.6164,61.58884 16.84961,82.50585 12.20159,22.85378 29.44015,34.28125 51.71289,34.28125 16.84981,0 30.11698,-6.19848 39.80078,-18.59375 8.9091,-11.42688 14.9129,-25.95165 18.01172,-43.57617 1.16206,-1.16205 2.517,-1.74414 4.06641,-1.74414 1.16205,0 3.58382,0.0973 7.26367,0.29102 2.90514,0 5.51964,-0.0973 7.84375,-0.29102 2.51779,-0.38735 5.71242,-0.96748 9.58594,-1.74219 26.14626,-5.42292 45.80464,-13.26837 58.97461,-23.5332 16.84981,-12.97629 25.27539,-30.98771 25.27539,-54.03515 0,-28.47038 -13.84925,-50.83864 -41.54493,-67.10743 -24.01582,-14.13835 -52.96997,-21.20898 -86.86328,-21.20898 z m -246.44531,0.58203 c -27.502,0 -51.2291,7.74615 -71.17773,23.24023 -21.30437,16.65614 -31.95508,37.47673 -31.95508,62.46094 0,8.52175 2.32443,17.43012 6.97265,26.72656 6.39131,12.78262 15.78443,21.49826 28.17969,26.14649 6.00396,2.32411 18.01157,4.06841 36.02344,5.23047 18.20555,0.96838 27.30859,3.97028 27.30859,9.00586 0,3.09881 -0.96949,5.13123 -2.90625,6.09961 -1.93676,0.96838 -4.74398,1.45312 -8.42383,1.45312 h -5.51953 c -6.77866,0 -14.6241,-1.16221 -23.5332,-3.48633 -8.9091,-2.32411 -15.97778,-3.48633 -21.20703,-3.48633 -8.71542,0 -15.3967,1.64697 -20.04492,4.93946 -4.64823,3.09881 -6.97266,7.26293 -6.97266,12.49219 0,10.65218 6.19848,21.49757 18.59375,32.53711 9.29645,8.13439 18.30216,13.75079 27.01758,16.8496 10.07115,3.87352 20.62648,6.87543 31.66601,9.00586 11.23321,1.93676 22.17595,2.90625 32.82813,2.90625 32.73125,0 58.87622,-8.32823 78.4375,-24.98437 17.43084,-14.91306 26.14648,-32.73174 26.14648,-53.45508 0,-11.81424 -3.3893,-22.65963 -10.16796,-32.53711 -6.77867,-10.07115 -15.39697,-17.33451 -25.85547,-21.78906 -8.52175,-3.67985 -22.85379,-7.16649 -42.9961,-10.45899 -12.78262,-2.13043 -19.17383,-5.90714 -19.17383,-11.33007 0,-2.13044 2.12976,-4.26019 6.39063,-6.39063 1.35573,-0.58103 3.48744,-1.35584 6.39258,-2.32422 10.4585,3.09882 20.72181,6.10072 30.79297,9.00586 10.07115,2.90514 17.43185,4.35742 22.08007,4.35742 7.55337,0 14.04192,-1.74234 19.46485,-5.22851 5.42293,-3.48617 8.13476,-8.23237 8.13476,-14.23633 0,-10.26483 -5.81108,-20.72282 -17.43164,-31.375 -8.13439,-7.35969 -17.43016,-13.46083 -27.88867,-18.30273 -8.9091,-4.0672 -20.62664,-7.26183 -35.15234,-9.58594 -14.5257,-2.32411 -26.53331,-3.48633 -36.02344,-3.48633 z m 485.59375,0 c -33.8933,0 -58.20054,7.55343 -72.91992,22.66016 -17.23717,17.62451 -25.85547,49.00044 -25.85547,94.12695 0,30.79449 6.68128,57.61693 20.04492,80.4707 12.20159,20.91701 28.76072,31.37696 49.67774,31.37696 12.20159,0 22.85425,-3.77672 31.95703,-11.33008 7.74704,-10.07116 15.59053,-20.14369 23.53125,-30.21485 2.90514,2.90514 9.10362,9.39369 18.59375,19.46485 17.43084,16.46246 35.63693,24.69336 54.61718,24.69336 12.9763,0 23.53163,-3.29197 31.66602,-9.87696 9.6838,-7.94071 14.52539,-19.56092 14.52539,-34.86132 0,-12.58895 -4.06678,-25.75877 -12.20117,-39.50977 -7.35969,-12.58894 -16.07533,-23.53168 -26.14649,-32.82812 7.74705,-6.19764 15.4932,-12.49151 23.24024,-18.88282 6.97234,-8.52174 10.45898,-18.49694 10.45898,-29.92383 0,-21.49803 -11.81488,-38.34723 -35.44336,-50.54882 -19.17392,-9.87748 -40.86471,-14.81641 -65.07421,-14.81641 z m 802.373,0.58008 c -35.4427,0 -64.9789,7.84349 -88.6074,23.53125 -17.6245,11.81424 -30.989,27.40583 -40.0918,46.77344 -6.1976,13.16997 -9.2949,24.69478 -9.2949,34.57226 0,33.1186 9.5858,60.32845 28.7598,81.63281 14.5257,16.07511 34.4741,28.18006 59.8457,36.31446 17.6245,5.6166 34.4756,8.42578 50.5508,8.42578 33.8933,0 61.4905,-9.68513 82.7949,-29.05274 17.4308,-15.68775 26.1465,-32.24689 26.1465,-49.67773 0,-20.14231 -7.9409,-35.63656 -23.8223,-46.48242 -12.0079,-8.1344 -25.4678,-12.20117 -40.3809,-12.20117 -16.4624,0 -30.6017,4.26145 -42.416,12.7832 -11.0395,7.94072 -16.5586,16.7537 -16.5586,26.4375 0,6.58498 2.0344,12.49145 6.1016,17.7207 2.1304,2.71147 5.3251,6.39084 9.5859,11.03906 h -3.7754 c -17.8182,-9.29644 -26.7285,-23.62849 -26.7285,-42.99609 0,-11.03953 3.0993,-20.43265 9.2969,-28.17969 6.9723,-8.71542 16.8502,-13.07226 29.6328,-13.07226 1.9368,0 9.6829,1.93702 23.2402,5.81054 5.423,1.54941 12.2016,2.32227 20.336,2.32227 11.8142,0 21.4994,-2.41982 29.0527,-7.26172 9.1028,-5.81028 13.6543,-14.52592 13.6543,-26.14648 0,-18.98025 -12.5897,-33.11957 -37.7676,-42.41602 -17.8182,-6.58498 -37.6693,-9.87695 -59.5547,-9.87695 z m -528.7773,1.16211 c -27.6957,0 -46.1918,0.67747 -55.4883,2.0332 -13.9447,2.13044 -25.95226,6.97398 -36.02342,14.52734 -8.32806,6.19764 -14.42921,19.85025 -18.30273,40.96094 -2.90514,15.49408 -4.35742,32.44062 -4.35742,50.83985 0,24.9842 2.12975,45.80479 6.39062,62.46093 4.45455,16.65614 10.5557,29.34318 18.30274,38.0586 7.94071,8.71542 23.14491,15.00929 45.61131,18.88281 15.6878,2.71146 33.6018,4.06641 53.7442,4.06641 25.9525,0 46.3857,-3.09925 61.2988,-9.29688 16.8498,-6.97234 25.2754,-17.72039 25.2754,-32.24609 0,-14.91306 -5.8111,-26.2432 -17.4317,-33.99024 -11.4269,-7.94071 -26.2436,-11.91015 -44.4492,-11.91015 -1.5494,0 -6.4864,0.48279 -14.8144,1.45117 -1.7431,0.19367 -3.9722,0.29101 -6.6836,0.29101 -2.9052,0 -5.1323,-0.3874 -6.6817,-1.16211 -1.5494,-0.96838 -2.9043,-2.71072 -4.0664,-5.22851 4.6482,-2.90514 9.3925,-4.35742 14.2344,-4.35742 h 31.666 c 6.3913,0 11.3303,-2.61645 14.8164,-7.84571 3.4862,-5.42293 5.2305,-11.7168 5.2305,-18.88281 0,-8.52174 -3.2939,-14.42821 -9.8789,-17.7207 -4.8419,-2.32411 -12.1033,-3.48633 -21.7871,-3.48633 -2.7115,0.19368 -5.4233,0.29102 -8.1348,0.29102 h -7.5527 c -6.585,0 -11.4286,-0.58209 -14.5274,-1.74414 -2.9051,-1.16206 -4.3574,-3.48649 -4.3574,-6.97266 0,-1.35573 0.9695,-2.51795 2.9063,-3.48633 1.9367,-1.16206 3.4863,-1.74219 4.6484,-1.74219 4.8419,0.96838 9.4888,1.84053 13.9434,2.61524 4.6482,0.58103 11.5241,0.87109 20.6269,0.87109 14.5257,0 25.9532,-2.71184 34.2813,-8.13476 10.0711,-6.58499 15.1054,-16.75291 15.1054,-30.50391 0,-12.20159 -5.229,-21.40198 -15.6875,-27.59961 -8.328,-5.03558 -20.433,-8.32754 -36.3144,-9.87695 -7.5534,-0.77471 -21.4007,-1.16211 -41.543,-1.16211 z m -510.41992,75.82422 c 2.71147,0 5.32596,0.58208 7.84375,1.74414 2.51779,0.96838 4.74488,1.64585 6.68164,2.0332 v 7.26172 c -2.71146,0.96838 -5.71337,1.93787 -9.00586,2.90625 -3.09881,0.96838 -5.61597,1.45312 -7.55273,1.45312 -0.77471,-0.38735 -1.45218,-0.58203 -2.0332,-0.58203 -3.48617,-0.96838 -7.36023,-1.84053 -11.6211,-2.61523 0,-0.96838 -0.3874,-2.22598 -1.16211,-3.77539 0,-1.16206 1.83969,-2.80902 5.51953,-4.93946 3.87352,-2.32411 7.65024,-3.48632 11.33008,-3.48632 z m 251.0586,10.75 c 5.22925,0 9.68343,0.87019 13.36328,2.61328 3.67984,1.74308 5.52148,4.55226 5.52148,8.42578 0,2.13044 -1.7443,3.87278 -5.23047,5.22851 -3.48617,1.35574 -7.84301,2.03321 -13.07226,2.03321 -3.87352,0 -7.74758,-0.8702 -11.6211,-2.61328 -3.87352,-1.93676 -5.81054,-4.35854 -5.81054,-7.26368 0,-1.93676 1.16221,-3.6791 3.48632,-5.22851 3.09882,-2.13044 7.553,-3.19531 13.36329,-3.19531 z"
         transform="matrix(0.26458333,0,0,0.26458333,0,11.249983)"
         id="path868"
         inkscape:connector-curvature="0" />
      <path
         style="font-style:normal;font-variant:normal;font-weight:normal;font-stretch:normal;font-size:114.70555878px;line-height:71.69097137px;font-family:'Pleasantly Plump';-inkscape-font-specification:'Pleasantly Plump';letter-spacing:0px;word-spacing:0px;fill:#ffc107;fill-opacity:1;stroke:#ff6f00;stroke-width:32;stroke-linecap:butt;stroke-linejoin:miter;stroke-miterlimit:4;stroke-dasharray:none;stroke-opacity:1"
         d="m 794.35938,87.849609 c -29.19121,0 -59.39306,3.178628 -90.60743,9.53711 -26.01197,5.202391 -42.19816,10.260451 -48.55664,15.173831 -17.34131,13.295 -28.75663,37.86246 -34.24804,73.70117 -2.31218,15.02914 -3.46875,35.6951 -3.46875,61.99609 0,36.9948 3.03405,68.20866 9.10351,93.64258 4.91337,19.94251 11.7063,36.70503 20.37695,50.28906 11.8499,18.20838 34.1042,30.63766 66.76368,37.28516 18.4974,3.75728 43.35399,5.63477 74.56836,5.63477 55.20317,-10e-6 101.73383,-7.94755 139.5957,-23.84376 44.22035,-18.4974 66.33203,-44.79776 66.33203,-78.90234 0,-13.87305 -4.76892,-28.1798 -14.30664,-42.91992 -8.38164,-13.29501 -18.20862,-24.56771 -29.48047,-33.81641 0,-4.0463 6.93554,-13.00585 20.80859,-26.8789 13.87305,-13.87305 20.81055,-29.33638 20.81055,-46.38867 0,-26.01197 -14.74047,-47.1097 -44.2207,-63.29493 C 925.28637,106.63651 896.09457,97.821534 860.25586,92.619141 838.57922,89.4399 816.61406,87.849609 794.35938,87.849609 Z m 697.41992,0.433594 c -50.5788,0 -86.8527,11.2727 -108.8184,33.816407 -25.7229,26.30099 -38.5839,73.12274 -38.5839,140.46484 0,45.95448 9.9715,85.98331 29.914,120.08789 18.2084,31.21437 42.9204,46.82227 74.1348,46.82227 18.2084,0 34.1035,-5.63635 47.6875,-16.9082 11.5609,-15.02914 23.2673,-30.05876 35.1172,-45.08789 4.3353,4.33532 13.584,14.01773 27.7461,29.04687 26.0119,24.56686 53.1797,36.84961 81.5039,36.84961 19.3644,0 35.115,-4.91349 47.2539,-14.74023 14.4511,-11.8499 21.6777,-29.19071 21.6777,-52.02344 0,-18.78642 -6.0701,-38.44039 -18.209,-58.96094 -10.9828,-18.78642 -23.9884,-35.11523 -39.0176,-48.98828 11.5609,-9.2487 23.1228,-18.64197 34.6836,-28.17969 10.4048,-12.71696 15.6055,-27.602 15.6055,-44.6543 0,-32.08142 -17.6299,-57.22521 -52.8906,-75.43359 -28.6132,-14.740115 -60.9836,-22.111327 -97.1113,-22.111327 z M 404.81055,90.017578 c -55.20318,0 -101.44665,16.907092 -138.73047,50.722652 -36.9948,33.81556 -55.49219,74.56921 -55.49219,122.25782 0,50.86785 20.2303,92.77611 60.69336,125.72461 38.15089,30.92534 83.81607,46.38671 136.99609,46.38672 61.27264,0 109.39554,-17.19624 144.36719,-51.58985 30.63632,-30.05827 45.95508,-66.90848 45.95508,-110.55078 0,-59.24949 -22.54345,-106.07124 -67.63086,-140.46484 -37.28382,-28.32415 -79.33666,-42.486332 -126.1582,-42.486332 z m 778.90825,0.867188 c -41.3302,0 -68.9317,1.012003 -82.8047,3.035156 -20.8096,3.179241 -38.7287,10.403928 -53.7579,21.675778 -12.4279,9.2487 -21.532,29.62552 -27.3124,61.12891 -4.3354,23.12175 -6.502,48.41011 -6.502,75.86719 0,37.28382 3.1786,68.35505 9.5371,93.21093 6.6475,24.85589 15.7516,43.78699 27.3125,56.79297 11.8499,13.00599 34.5379,22.3973 68.0645,28.17774 23.4107,4.0463 50.1448,6.07031 80.2031,6.07031 38.7289,0 69.2219,-4.62435 91.4765,-13.87305 25.145,-10.40478 37.7168,-26.44445 37.7168,-48.12109 0,-22.25469 -8.6704,-39.16373 -26.0117,-50.72461 -17.0523,-11.8499 -39.162,-17.77539 -66.3301,-17.77539 -2.3121,0 -9.6833,0.72286 -22.1113,2.16797 -2.6012,0.28902 -5.9244,0.43359 -9.9707,0.43359 -4.3353,0 -7.6585,-0.57829 -9.9707,-1.73437 -2.3122,-1.44511 -4.3362,-4.04545 -6.0703,-7.80274 6.9365,-4.33533 14.0186,-6.5039 21.2441,-6.5039 h 47.2539 c 9.5378,0 16.909,-3.90149 22.1114,-11.70508 5.2024,-8.09261 7.8027,-17.48588 7.8027,-28.17969 0,-12.71696 -4.9135,-21.53194 -14.7402,-26.44531 -7.2256,-3.46826 -18.0646,-5.20117 -32.5156,-5.20117 -4.0464,0.28902 -8.0924,0.43359 -12.1387,0.43359 h -11.2715 c -9.8268,0 -17.0514,-0.86743 -21.6758,-2.60156 -4.3353,-1.73413 -6.5039,-5.20386 -6.5039,-10.40625 0,-2.02316 1.4457,-3.75606 4.3359,-5.20117 2.8903,-1.73414 5.2015,-2.60157 6.9356,-2.60157 7.2255,1.44511 14.163,2.74626 20.8105,3.90235 6.9366,0.86706 17.1973,1.30078 30.7813,1.30078 21.6766,0 38.7283,-4.04606 51.1562,-12.13867 15.0292,-9.82675 22.543,-25.00093 22.543,-45.52149 0,-18.20838 -7.803,-31.93684 -23.4102,-41.18554 -12.4279,-7.514574 -30.4916,-12.428064 -54.1914,-14.740239 -11.2718,-1.156088 -31.9378,-1.734375 -61.996,-1.734375 z M 803.46289,179.75977 c 4.62435,0 9.97156,1.58833 16.04102,4.76757 6.06946,2.89022 9.10547,5.92623 9.10547,9.10547 -10e-6,2.89022 -2.31315,6.35799 -6.9375,10.4043 -4.62436,3.75728 -11.27075,5.63476 -19.94141,5.63477 -5.49142,-10e-6 -11.85063,-2.02206 -19.07617,-6.06836 -5.2024,-2.89022 -7.80274,-6.21342 -7.80274,-9.97071 3.75729,-3.17924 6.79134,-5.49239 9.10352,-6.9375 7.22555,-4.62435 13.72737,-6.93554 19.50781,-6.93554 z M 400.04102,204.4707 c 8.67065,0 16.47363,5.92354 23.41015,17.77344 7.22555,11.8499 10.83985,27.89152 10.83985,48.12305 0,14.16207 -2.45773,27.02311 -7.3711,38.58398 -6.35848,14.74012 -15.4626,22.11133 -27.3125,22.11133 -8.38163,0 -16.04004,-5.34721 -22.97656,-16.04102 -8.09261,-12.13891 -12.13867,-27.60225 -12.13867,-46.38867 0,-11.84989 2.60034,-24.42179 7.80273,-37.71679 6.93653,-17.63034 16.18522,-26.44532 27.7461,-26.44532 z m 1112.98048,15.60742 c 7.8036,10e-6 14.4519,1.2992 19.9433,3.9004 5.4915,2.60119 8.2364,6.79182 8.2364,12.57226 0,3.17924 -2.6004,5.78154 -7.8028,7.80469 -5.2024,2.02315 -11.7061,3.03515 -19.5097,3.03515 -5.7805,0 -11.5614,-1.30114 -17.3418,-3.90234 -5.7805,-2.89022 -8.6699,-6.50256 -8.6699,-10.83789 0,-2.89022 1.7329,-5.49251 5.2011,-7.80469 4.6244,-3.17924 11.2727,-4.76758 19.9434,-4.76758 z m -708.69142,84.53907 c 5.78044,0.86706 10.11564,1.73254 13.00586,2.59961 8.67065,2.60119 13.00781,5.92635 13.00781,9.97265 0,5.78044 -2.60229,10.11564 -7.80469,13.00586 -5.20239,2.6012 -11.5616,3.90039 -19.07617,3.90039 -6.35848,0 -11.99288,-1.01005 -16.90625,-3.0332 -4.91337,-2.31218 -7.37109,-5.92647 -7.37109,-10.83984 0,-4.91338 2.45772,-8.67029 7.37109,-11.27149 5.20239,-2.89022 11.12593,-4.33398 17.77344,-4.33398 z"
         transform="matrix(0.26458333,0,0,0.26458333,0,11.249983)"
         id="path861"
         inkscape:connector-curvature="0" />
      <path
         id="text824"
         transform="matrix(0.26458333,0,0,0.26458333,0,11.249983)"
         d="m 794.35938,87.849609 c -29.19121,0 -59.39306,3.178628 -90.60743,9.53711 -26.01197,5.202391 -42.19816,10.260451 -48.55664,15.173831 -17.34131,13.295 -28.75663,37.86246 -34.24804,73.70117 -2.31218,15.02914 -3.46875,35.6951 -3.46875,61.99609 0,36.9948 3.03405,68.20866 9.10351,93.64258 4.91337,19.94251 11.7063,36.70503 20.37695,50.28906 11.8499,18.20838 34.1042,30.63766 66.76368,37.28516 18.4974,3.75728 43.35399,5.63477 74.56836,5.63477 55.20317,-10e-6 101.73383,-7.94755 139.5957,-23.84376 44.22035,-18.4974 66.33203,-44.79776 66.33203,-78.90234 0,-13.87305 -4.76892,-28.1798 -14.30664,-42.91992 -8.38164,-13.29501 -18.20862,-24.56771 -29.48047,-33.81641 0,-4.0463 6.93554,-13.00585 20.80859,-26.8789 13.87305,-13.87305 20.81055,-29.33638 20.81055,-46.38867 0,-26.01197 -14.74047,-47.1097 -44.2207,-63.29493 C 925.28637,106.63651 896.09457,97.821534 860.25586,92.619141 838.57922,89.4399 816.61406,87.849609 794.35938,87.849609 Z m 697.41992,0.433594 c -50.5788,0 -86.8527,11.2727 -108.8184,33.816407 -25.7229,26.30099 -38.5839,73.12274 -38.5839,140.46484 0,45.95448 9.9715,85.98331 29.914,120.08789 18.2084,31.21437 42.9204,46.82227 74.1348,46.82227 18.2084,0 34.1035,-5.63635 47.6875,-16.9082 11.5609,-15.02914 23.2673,-30.05876 35.1172,-45.08789 4.3353,4.33532 13.584,14.01773 27.7461,29.04687 26.0119,24.56686 53.1797,36.84961 81.5039,36.84961 19.3644,0 35.115,-4.91349 47.2539,-14.74023 14.4511,-11.8499 21.6777,-29.19071 21.6777,-52.02344 0,-18.78642 -6.0701,-38.44039 -18.209,-58.96094 -10.9828,-18.78642 -23.9884,-35.11523 -39.0176,-48.98828 11.5609,-9.2487 23.1228,-18.64197 34.6836,-28.17969 10.4048,-12.71696 15.6055,-27.602 15.6055,-44.6543 0,-32.08142 -17.6299,-57.22521 -52.8906,-75.43359 -28.6132,-14.740115 -60.9836,-22.111327 -97.1113,-22.111327 z M 404.81055,90.017578 c -55.20318,0 -101.44665,16.907092 -138.73047,50.722652 -36.9948,33.81556 -55.49219,74.56921 -55.49219,122.25782 0,50.86785 20.2303,92.77611 60.69336,125.72461 38.15089,30.92534 83.81607,46.38671 136.99609,46.38672 61.27264,0 109.39554,-17.19624 144.36719,-51.58985 30.63632,-30.05827 45.95508,-66.90848 45.95508,-110.55078 0,-59.24949 -22.54345,-106.07124 -67.63086,-140.46484 -37.28382,-28.32415 -79.33666,-42.486332 -126.1582,-42.486332 z m 778.90825,0.867188 c -41.3302,0 -68.9317,1.012003 -82.8047,3.035156 -20.8096,3.179241 -38.7287,10.403928 -53.7579,21.675778 -12.4279,9.2487 -21.532,29.62552 -27.3124,61.12891 -4.3354,23.12175 -6.502,48.41011 -6.502,75.86719 0,37.28382 3.1786,68.35505 9.5371,93.21093 6.6475,24.85589 15.7516,43.78699 27.3125,56.79297 11.8499,13.00599 34.5379,22.3973 68.0645,28.17774 23.4107,4.0463 50.1448,6.07031 80.2031,6.07031 38.7289,0 69.2219,-4.62435 91.4765,-13.87305 25.145,-10.40478 37.7168,-26.44445 37.7168,-48.12109 0,-22.25469 -8.6704,-39.16373 -26.0117,-50.72461 -17.0523,-11.8499 -39.162,-17.77539 -66.3301,-17.77539 -2.3121,0 -9.6833,0.72286 -22.1113,2.16797 -2.6012,0.28902 -5.9244,0.43359 -9.9707,0.43359 -4.3353,0 -7.6585,-0.57829 -9.9707,-1.73437 -2.3122,-1.44511 -4.3362,-4.04545 -6.0703,-7.80274 6.9365,-4.33533 14.0186,-6.5039 21.2441,-6.5039 h 47.2539 c 9.5378,0 16.909,-3.90149 22.1114,-11.70508 5.2024,-8.09261 7.8027,-17.48588 7.8027,-28.17969 0,-12.71696 -4.9135,-21.53194 -14.7402,-26.44531 -7.2256,-3.46826 -18.0646,-5.20117 -32.5156,-5.20117 -4.0464,0.28902 -8.0924,0.43359 -12.1387,0.43359 h -11.2715 c -9.8268,0 -17.0514,-0.86743 -21.6758,-2.60156 -4.3353,-1.73413 -6.5039,-5.20386 -6.5039,-10.40625 0,-2.02316 1.4457,-3.75606 4.3359,-5.20117 2.8903,-1.73414 5.2015,-2.60157 6.9356,-2.60157 7.2255,1.44511 14.163,2.74626 20.8105,3.90235 6.9366,0.86706 17.1973,1.30078 30.7813,1.30078 21.6766,0 38.7283,-4.04606 51.1562,-12.13867 15.0292,-9.82675 22.543,-25.00093 22.543,-45.52149 0,-18.20838 -7.803,-31.93684 -23.4102,-41.18554 -12.4279,-7.514574 -30.4916,-12.428064 -54.1914,-14.740239 -11.2718,-1.156088 -31.9378,-1.734375 -61.996,-1.734375 z M 803.46289,179.75977 c 4.62435,0 9.97156,1.58833 16.04102,4.76757 6.06946,2.89022 9.10547,5.92623 9.10547,9.10547 -10e-6,2.89022 -2.31315,6.35799 -6.9375,10.4043 -4.62436,3.75728 -11.27075,5.63476 -19.94141,5.63477 -5.49142,-10e-6 -11.85063,-2.02206 -19.07617,-6.06836 -5.2024,-2.89022 -7.80274,-6.21342 -7.80274,-9.97071 3.75729,-3.17924 6.79134,-5.49239 9.10352,-6.9375 7.22555,-4.62435 13.72737,-6.93554 19.50781,-6.93554 z M 400.04102,204.4707 c 8.67065,0 16.47363,5.92354 23.41015,17.77344 7.22555,11.8499 10.83985,27.89152 10.83985,48.12305 0,14.16207 -2.45773,27.02311 -7.3711,38.58398 -6.35848,14.74012 -15.4626,22.11133 -27.3125,22.11133 -8.38163,0 -16.04004,-5.34721 -22.97656,-16.04102 -8.09261,-12.13891 -12.13867,-27.60225 -12.13867,-46.38867 0,-11.84989 2.60034,-24.42179 7.80273,-37.71679 6.93653,-17.63034 16.18522,-26.44532 27.7461,-26.44532 z m 1112.98048,15.60742 c 7.8036,10e-6 14.4519,1.2992 19.9433,3.9004 5.4915,2.60119 8.2364,6.79182 8.2364,12.57226 0,3.17924 -2.6004,5.78154 -7.8028,7.80469 -5.2024,2.02315 -11.7061,3.03515 -19.5097,3.03515 -5.7805,0 -11.5614,-1.30114 -17.3418,-3.90234 -5.7805,-2.89022 -8.6699,-6.50256 -8.6699,-10.83789 0,-2.89022 1.7329,-5.49251 5.2011,-7.80469 4.6244,-3.17924 11.2727,-4.76758 19.9434,-4.76758 z m -708.69142,84.53907 c 5.78044,0.86706 10.11564,1.73254 13.00586,2.59961 8.67065,2.60119 13.00781,5.92635 13.00781,9.97265 0,5.78044 -2.60229,10.11564 -7.80469,13.00586 -5.20239,2.6012 -11.5616,3.90039 -19.07617,3.90039 -6.35848,0 -11.99288,-1.01005 -16.90625,-3.0332 -4.91337,-2.31218 -7.37109,-5.92647 -7.37109,-10.83984 0,-4.91338 2.45772,-8.67029 7.37109,-11.27149 5.20239,-2.89022 11.12593,-4.33398 17.77344,-4.33398 z"
         style="font-style:normal;font-variant:normal;font-weight:normal;font-stretch:normal;font-size:114.70555878px;line-height:71.69097137px;font-family:'Pleasantly Plump';-inkscape-font-specification:'Pleasantly Plump';letter-spacing:0px;word-spacing:0px;fill:#ffc107;fill-opacity:1;stroke:none;stroke-width:16;stroke-linecap:butt;stroke-linejoin:miter;stroke-miterlimit:4;stroke-dasharray:none;stroke-opacity:1"
         inkscape:connector-curvature="0" />
      <path
         id="text828"
         transform="matrix(0.26458333,0,0,0.26458333,0,11.249983)"
         d="m 1381.5762,483.44727 c -15.1068,0 -29.5361,9.39311 -43.2871,28.17968 -6.7787,9.29645 -12.3951,18.68957 -16.8496,28.17969 -3.2925,-4.0672 -9.4891,-12.39543 -18.5918,-24.98437 -16.2688,-19.94864 -33.6028,-29.92188 -52.002,-29.92188 -24.4032,0 -43.094,14.52477 -56.0703,43.57617 -10.0712,22.6601 -15.1055,48.99975 -15.1055,79.01953 0,25.75892 4.6469,48.90394 13.9434,69.4336 12.2016,27.11464 30.1176,40.67187 53.7461,40.67187 5.8103,0 12.0068,-1.25955 18.5918,-3.77734 8.328,-3.29249 15.1067,-7.9394 20.3359,-13.94336 5.4229,-6.19763 9.5871,-13.26827 12.4922,-21.20898 4.6482,-12.58895 7.5547,-18.88282 8.7168,-18.88282 1.9368,0 5.7135,4.74621 11.3301,14.23633 4.2608,7.35969 10.7474,15.49325 19.4629,24.40234 4.6482,4.84191 11.3314,9.00602 20.0468,12.49219 8.9091,3.48617 18.3022,5.22852 28.1797,5.22852 23.0475,0 40.1867,-12.29768 51.4199,-36.89453 8.7155,-19.17393 13.0743,-43.09376 13.0743,-71.75782 0,-28.85772 -4.8416,-55.0027 -14.5254,-78.4375 -12.589,-30.40713 -30.8924,-45.61132 -54.9082,-45.61132 z m -822.59964,2.0332 c -22.27274,0 -41.15631,2.1317 -56.65039,6.39258 -15.3004,4.26087 -26.04846,9.48986 -32.24609,15.6875 -6.77866,6.97233 -12.20234,19.65741 -16.26953,38.05664 C 449.93703,564.01641 448,582.2225 448,600.23438 c 0,34.08698 5.6164,61.58884 16.84961,82.50585 12.20159,22.85378 29.44015,34.28125 51.71289,34.28125 16.84981,0 30.11698,-6.19848 39.80078,-18.59375 8.9091,-11.42688 14.9129,-25.95165 18.01172,-43.57617 1.16206,-1.16205 2.517,-1.74414 4.06641,-1.74414 1.16205,0 3.58382,0.0973 7.26367,0.29102 2.90514,0 5.51964,-0.0973 7.84375,-0.29102 2.51779,-0.38735 5.71242,-0.96748 9.58594,-1.74219 26.14626,-5.42292 45.80464,-13.26837 58.97461,-23.5332 16.84981,-12.97629 25.27539,-30.98771 25.27539,-54.03515 0,-28.47038 -13.84925,-50.83864 -41.54493,-67.10743 -24.01582,-14.13835 -52.96997,-21.20898 -86.86328,-21.20898 z m -246.44531,0.58203 c -27.502,0 -51.2291,7.74615 -71.17773,23.24023 -21.30437,16.65614 -31.95508,37.47673 -31.95508,62.46094 0,8.52175 2.32443,17.43012 6.97265,26.72656 6.39131,12.78262 15.78443,21.49826 28.17969,26.14649 6.00396,2.32411 18.01157,4.06841 36.02344,5.23047 18.20555,0.96838 27.30859,3.97028 27.30859,9.00586 0,3.09881 -0.96949,5.13123 -2.90625,6.09961 -1.93676,0.96838 -4.74398,1.45312 -8.42383,1.45312 h -5.51953 c -6.77866,0 -14.6241,-1.16221 -23.5332,-3.48633 -8.9091,-2.32411 -15.97778,-3.48633 -21.20703,-3.48633 -8.71542,0 -15.3967,1.64697 -20.04492,4.93946 -4.64823,3.09881 -6.97266,7.26293 -6.97266,12.49219 0,10.65218 6.19848,21.49757 18.59375,32.53711 9.29645,8.13439 18.30216,13.75079 27.01758,16.8496 10.07115,3.87352 20.62648,6.87543 31.66601,9.00586 11.23321,1.93676 22.17595,2.90625 32.82813,2.90625 32.73125,0 58.87622,-8.32823 78.4375,-24.98437 17.43084,-14.91306 26.14648,-32.73174 26.14648,-53.45508 0,-11.81424 -3.3893,-22.65963 -10.16796,-32.53711 -6.77867,-10.07115 -15.39697,-17.33451 -25.85547,-21.78906 -8.52175,-3.67985 -22.85379,-7.16649 -42.9961,-10.45899 -12.78262,-2.13043 -19.17383,-5.90714 -19.17383,-11.33007 0,-2.13044 2.12976,-4.26019 6.39063,-6.39063 1.35573,-0.58103 3.48744,-1.35584 6.39258,-2.32422 10.4585,3.09882 20.72181,6.10072 30.79297,9.00586 10.07115,2.90514 17.43185,4.35742 22.08007,4.35742 7.55337,0 14.04192,-1.74234 19.46485,-5.22851 5.42293,-3.48617 8.13476,-8.23237 8.13476,-14.23633 0,-10.26483 -5.81108,-20.72282 -17.43164,-31.375 -8.13439,-7.35969 -17.43016,-13.46083 -27.88867,-18.30273 -8.9091,-4.0672 -20.62664,-7.26183 -35.15234,-9.58594 -14.5257,-2.32411 -26.53331,-3.48633 -36.02344,-3.48633 z m 485.59375,0 c -33.8933,0 -58.20054,7.55343 -72.91992,22.66016 -17.23717,17.62451 -25.85547,49.00044 -25.85547,94.12695 0,30.79449 6.68128,57.61693 20.04492,80.4707 12.20159,20.91701 28.76072,31.37696 49.67774,31.37696 12.20159,0 22.85425,-3.77672 31.95703,-11.33008 7.74704,-10.07116 15.59053,-20.14369 23.53125,-30.21485 2.90514,2.90514 9.10362,9.39369 18.59375,19.46485 17.43084,16.46246 35.63693,24.69336 54.61718,24.69336 12.9763,0 23.53163,-3.29197 31.66602,-9.87696 9.6838,-7.94071 14.52539,-19.56092 14.52539,-34.86132 0,-12.58895 -4.06678,-25.75877 -12.20117,-39.50977 -7.35969,-12.58894 -16.07533,-23.53168 -26.14649,-32.82812 7.74705,-6.19764 15.4932,-12.49151 23.24024,-18.88282 6.97234,-8.52174 10.45898,-18.49694 10.45898,-29.92383 0,-21.49803 -11.81488,-38.34723 -35.44336,-50.54882 -19.17392,-9.87748 -40.86471,-14.81641 -65.07421,-14.81641 z m 802.373,0.58008 c -35.4427,0 -64.9789,7.84349 -88.6074,23.53125 -17.6245,11.81424 -30.989,27.40583 -40.0918,46.77344 -6.1976,13.16997 -9.2949,24.69478 -9.2949,34.57226 0,33.1186 9.5858,60.32845 28.7598,81.63281 14.5257,16.07511 34.4741,28.18006 59.8457,36.31446 17.6245,5.6166 34.4756,8.42578 50.5508,8.42578 33.8933,0 61.4905,-9.68513 82.7949,-29.05274 17.4308,-15.68775 26.1465,-32.24689 26.1465,-49.67773 0,-20.14231 -7.9409,-35.63656 -23.8223,-46.48242 -12.0079,-8.1344 -25.4678,-12.20117 -40.3809,-12.20117 -16.4624,0 -30.6017,4.26145 -42.416,12.7832 -11.0395,7.94072 -16.5586,16.7537 -16.5586,26.4375 0,6.58498 2.0344,12.49145 6.1016,17.7207 2.1304,2.71147 5.3251,6.39084 9.5859,11.03906 h -3.7754 c -17.8182,-9.29644 -26.7285,-23.62849 -26.7285,-42.99609 0,-11.03953 3.0993,-20.43265 9.2969,-28.17969 6.9723,-8.71542 16.8502,-13.07226 29.6328,-13.07226 1.9368,0 9.6829,1.93702 23.2402,5.81054 5.423,1.54941 12.2016,2.32227 20.336,2.32227 11.8142,0 21.4994,-2.41982 29.0527,-7.26172 9.1028,-5.81028 13.6543,-14.52592 13.6543,-26.14648 0,-18.98025 -12.5897,-33.11957 -37.7676,-42.41602 -17.8182,-6.58498 -37.6693,-9.87695 -59.5547,-9.87695 z m -528.7773,1.16211 c -27.6957,0 -46.1918,0.67747 -55.4883,2.0332 -13.9447,2.13044 -25.95226,6.97398 -36.02342,14.52734 -8.32806,6.19764 -14.42921,19.85025 -18.30273,40.96094 -2.90514,15.49408 -4.35742,32.44062 -4.35742,50.83985 0,24.9842 2.12975,45.80479 6.39062,62.46093 4.45455,16.65614 10.5557,29.34318 18.30274,38.0586 7.94071,8.71542 23.14491,15.00929 45.61131,18.88281 15.6878,2.71146 33.6018,4.06641 53.7442,4.06641 25.9525,0 46.3857,-3.09925 61.2988,-9.29688 16.8498,-6.97234 25.2754,-17.72039 25.2754,-32.24609 0,-14.91306 -5.8111,-26.2432 -17.4317,-33.99024 -11.4269,-7.94071 -26.2436,-11.91015 -44.4492,-11.91015 -1.5494,0 -6.4864,0.48279 -14.8144,1.45117 -1.7431,0.19367 -3.9722,0.29101 -6.6836,0.29101 -2.9052,0 -5.1323,-0.3874 -6.6817,-1.16211 -1.5494,-0.96838 -2.9043,-2.71072 -4.0664,-5.22851 4.6482,-2.90514 9.3925,-4.35742 14.2344,-4.35742 h 31.666 c 6.3913,0 11.3303,-2.61645 14.8164,-7.84571 3.4862,-5.42293 5.2305,-11.7168 5.2305,-18.88281 0,-8.52174 -3.2939,-14.42821 -9.8789,-17.7207 -4.8419,-2.32411 -12.1033,-3.48633 -21.7871,-3.48633 -2.7115,0.19368 -5.4233,0.29102 -8.1348,0.29102 h -7.5527 c -6.585,0 -11.4286,-0.58209 -14.5274,-1.74414 -2.9051,-1.16206 -4.3574,-3.48649 -4.3574,-6.97266 0,-1.35573 0.9695,-2.51795 2.9063,-3.48633 1.9367,-1.16206 3.4863,-1.74219 4.6484,-1.74219 4.8419,0.96838 9.4888,1.84053 13.9434,2.61524 4.6482,0.58103 11.5241,0.87109 20.6269,0.87109 14.5257,0 25.9532,-2.71184 34.2813,-8.13476 10.0711,-6.58499 15.1054,-16.75291 15.1054,-30.50391 0,-12.20159 -5.229,-21.40198 -15.6875,-27.59961 -8.328,-5.03558 -20.433,-8.32754 -36.3144,-9.87695 -7.5534,-0.77471 -21.4007,-1.16211 -41.543,-1.16211 z m -510.41992,75.82422 c 2.71147,0 5.32596,0.58208 7.84375,1.74414 2.51779,0.96838 4.74488,1.64585 6.68164,2.0332 v 7.26172 c -2.71146,0.96838 -5.71337,1.93787 -9.00586,2.90625 -3.09881,0.96838 -5.61597,1.45312 -7.55273,1.45312 -0.77471,-0.38735 -1.45218,-0.58203 -2.0332,-0.58203 -3.48617,-0.96838 -7.36023,-1.84053 -11.6211,-2.61523 0,-0.96838 -0.3874,-2.22598 -1.16211,-3.77539 0,-1.16206 1.83969,-2.80902 5.51953,-4.93946 3.87352,-2.32411 7.65024,-3.48632 11.33008,-3.48632 z m 251.0586,10.75 c 5.22925,0 9.68343,0.87019 13.36328,2.61328 3.67984,1.74308 5.52148,4.55226 5.52148,8.42578 0,2.13044 -1.7443,3.87278 -5.23047,5.22851 -3.48617,1.35574 -7.84301,2.03321 -13.07226,2.03321 -3.87352,0 -7.74758,-0.8702 -11.6211,-2.61328 -3.87352,-1.93676 -5.81054,-4.35854 -5.81054,-7.26368 0,-1.93676 1.16221,-3.6791 3.48632,-5.22851 3.09882,-2.13044 7.553,-3.19531 13.36329,-3.19531 z"
         style="font-style:normal;font-variant:normal;font-weight:normal;font-stretch:normal;font-size:76.86517334px;line-height:48.04073715px;font-family:'Pleasantly Plump';-inkscape-font-specification:'Pleasantly Plump';letter-spacing:0px;word-spacing:0px;fill:#e53935;fill-opacity:1;stroke:none;stroke-width:16;stroke-linecap:butt;stroke-linejoin:miter;stroke-miterlimit:4;stroke-dasharray:none;stroke-opacity:1"
         inkscape:connector-curvature="0" />
      <path
         id="text832"
         transform="matrix(0.26458333,0,0,0.26458333,0,11.249983)"
         d="m 423.43164,768.66016 c -8.19897,0 -16.57541,2.0509 -25.13086,6.15039 -4.81244,2.3171 -10.25043,5.70224 -16.31055,10.1582 -8.37721,6.41659 -15.50679,13.01209 -21.38867,19.78516 -8.37721,9.80312 -13.36655,14.70507 -14.9707,14.70507 -2.85182,0 -6.77299,-3.20841 -11.76367,-9.625 -3.2083,-4.27772 -5.88262,-7.39679 -8.02149,-9.35742 -8.37721,-8.19897 -17.64509,-15.14988 -27.80468,-20.85351 -12.12023,-6.95131 -22.72624,-10.42774 -31.81641,-10.42774 -13.36789,0 -25.22076,6.32749 -35.55859,18.98242 -10.33784,12.65494 -16.48665,27.71622 -18.44727,45.1836 0,1.24767 -0.17868,3.03055 -0.53516,5.34765 v 4.27735 7.7539 c 0.17824,2.49534 0.26758,5.07838 0.26758,7.75196 v 11.49609 c 0,11.05079 0.53409,20.76537 1.60352,29.14258 1.06943,8.37721 3.74376,19.60665 8.02148,33.6875 4.27773,14.08085 10.78389,25.57635 19.51758,34.48828 9.62488,9.98136 20.76498,14.97266 33.41992,14.97266 14.43733,0 24.59664,-4.36592 30.47852,-13.09961 4.99068,-9.98136 10.06936,-19.96395 15.23828,-29.94531 3.74301,5.34715 7.5768,10.60647 11.49805,15.77539 4.09948,4.99068 9.80159,7.48437 17.10937,7.48437 8.91193,0 15.86479,-4.27658 20.85547,-12.83203 4.99068,-8.55545 8.02041,-12.83399 9.08984,-12.83399 1.42591,10e-6 4.27696,4.09986 8.55469,12.29883 3.56477,6.77307 7.66463,13.45791 12.29883,20.05274 2.85182,3.74301 7.48575,7.12814 13.90234,10.1582 6.59483,2.85182 13.4564,4.2793 20.58594,4.2793 12.4767,0 24.15284,-6.68484 35.02539,-20.05274 10.87255,-13.36789 16.30859,-28.07181 16.30859,-44.11328 0,-1.60415 0.17868,-7.39754 0.53516,-17.3789 0.35648,-10.1596 0.5332,-17.91261 0.5332,-23.25977 0,-0.71295 0.17868,-1.87242 0.53516,-3.47656 v -6.6836 c 0,-23.52749 -4.45526,-44.64823 -13.36719,-63.36328 -11.5855,-24.41868 -28.34032,-36.6289 -50.26367,-36.6289 z m 507.96289,0.53515 c -25.30988,0 -47.14338,7.12959 -65.50195,21.38867 -19.60624,15.32852 -29.41016,34.48965 -29.41016,57.48243 0,7.84249 2.13829,16.04025 6.41602,24.5957 5.88187,11.76375 14.52632,19.78477 25.93359,24.0625 5.5254,2.13886 16.57616,3.74307 33.15235,4.8125 16.75442,0.89119 25.13281,3.65486 25.13281,8.28906 0,2.85182 -0.89144,4.72209 -2.67383,5.61328 -1.78239,0.8912 -4.36737,1.33789 -7.75391,1.33789 h -5.08007 c -6.23836,0 -13.45533,-1.07012 -21.6543,-3.20898 -8.19898,-2.13886 -14.70514,-3.20899 -19.51758,-3.20898 -8.02074,-10e-6 -14.16954,1.51486 -18.44727,4.54492 -4.27772,2.85181 -6.41796,6.6856 -6.41796,11.49804 0,9.80313 5.70406,19.78376 17.11132,29.94336 8.55546,7.48602 16.8445,12.65405 24.86524,15.50586 9.2684,3.56477 18.98102,6.32844 29.14062,8.28906 10.33784,1.78239 20.40977,2.67383 30.21289,2.67383 30.12232,0 54.18346,-7.66367 72.18556,-22.99218 16.0415,-13.72437 24.0625,-30.12379 24.0625,-49.19532 0,-10.87255 -3.1191,-20.85319 -9.3574,-29.94336 -6.2384,-9.2684 -14.1701,-15.95324 -23.795,-20.05273 -7.8425,-3.38653 -21.0315,-6.59494 -39.56831,-9.625 -11.76375,-1.96062 -17.64649,-5.4351 -17.64649,-10.42578 0,-1.96063 1.96157,-3.92219 5.88282,-5.88281 1.24767,-0.53472 3.20728,-1.24748 5.88086,-2.13868 9.62488,2.85182 19.07143,5.61549 28.33984,8.28907 9.26838,2.67357 16.04258,4.00976 20.32028,4.00976 6.9513,0 12.9215,-1.6042 17.9121,-4.8125 4.9907,-3.20829 7.4864,-7.57421 7.4864,-13.09961 0,-9.44664 -5.3467,-19.07188 -16.041,-28.875 -7.4861,-6.77306 -16.0431,-12.38778 -25.66802,-16.84375 -8.19897,-3.74301 -18.98171,-6.6834 -32.3496,-8.82226 -13.3679,-2.13887 -24.41866,-3.20899 -33.15235,-3.20899 z m 642.70707,0 c -31.1918,0 -53.5594,6.95091 -67.1055,20.85352 -15.8632,16.21971 -23.7949,45.09541 -23.7949,86.625 0,28.33993 6.1488,53.02449 18.4472,74.05664 11.2291,19.24976 26.469,28.875 45.7188,28.875 11.229,0 21.031,-3.47448 29.4082,-10.42578 7.1295,-9.26841 14.3485,-18.53824 21.6562,-27.80664 2.6736,2.67358 8.3777,8.64565 17.1114,17.91406 16.0414,15.15028 32.7963,22.72461 50.2636,22.72461 11.942,0 21.6546,-3.02973 29.1407,-9.08984 8.9119,-7.30779 13.3691,-18.00119 13.3691,-32.08204 0,-11.5855 -3.7444,-23.70639 -11.2305,-36.36132 -6.773,-11.58551 -14.7921,-21.65549 -24.0605,-30.21094 7.1295,-5.70364 14.2591,-11.49704 21.3887,-17.37891 6.4166,-7.8425 9.625,-17.02103 9.625,-27.53711 0,-19.78448 -10.8741,-35.29245 -32.6192,-46.52148 -17.6456,-9.09017 -37.6069,-13.63477 -59.8867,-13.63477 z m -410.8243,0.80274 c -27.9834,0 -53.0253,5.61472 -75.1269,16.84375 -22.1016,11.05079 -33.1524,23.88248 -33.1524,38.49804 0,13.54614 5.3467,25.13293 16.0411,34.75782 9.8031,8.73369 21.924,15.86327 36.3613,21.38867 0.1782,2.3171 0.355,5.16815 0.5332,8.55469 0.1782,3.20829 0.8036,8.28893 1.873,15.24023 2.8519,21.92334 8.1986,39.47831 16.0411,52.66797 9.9813,16.57619 23.4384,24.86523 40.3711,24.86523 17.1109,0 30.8359,-8.46577 41.1738,-25.39843 9.0901,-14.97204 13.6347,-32.70765 13.6347,-53.20508 V 879.3457 c 7.1296,-4.81244 17.4676,-11.05058 31.0137,-18.71484 9.8031,-8.02074 14.7031,-19.69492 14.7031,-35.02344 0,-18.18033 -12.8317,-32.52884 -38.498,-43.04492 -20.3192,-8.37721 -41.976,-12.56445 -64.9688,-12.56445 z m -558.77339,0.80078 c -25.48812,0 -42.51096,0.62342 -51.06641,1.87109 -12.83318,1.96063 -23.88394,6.41784 -33.15234,13.36914 -7.66426,5.70364 -13.27703,18.26926 -16.8418,37.69727 -2.67358,14.25908 -4.01172,29.85444 -4.01172,46.78711 0,22.99277 1.96156,42.1539 5.88281,57.48242 4.09949,15.32852 9.71421,27.0027 16.84375,35.02344 7.30778,8.02073 21.29894,13.81413 41.97461,17.3789 14.43733,2.49534 30.92413,3.74219 49.46094,3.74219 23.88397,0 42.68774,-2.85105 56.41211,-8.55469 15.50676,-6.41659 23.25976,-16.30984 23.25976,-29.67773 0,-13.72437 -5.3467,-24.14976 -16.04101,-31.2793 -10.51608,-7.30778 -24.14987,-10.96289 -40.9043,-10.96289 -1.42591,0 -5.97246,0.4467 -13.63672,1.33789 -1.60414,0.17824 -3.65309,0.26758 -6.14843,0.26758 -2.67358,0 -4.72449,-0.35736 -6.15039,-1.07031 -1.42591,-0.8912 -2.67276,-2.4954 -3.74219,-4.8125 4.27772,-2.67358 8.6456,-4.00977 13.10156,-4.00977 h 29.14063 c 5.88187,0 10.42647,-2.40631 13.63476,-7.21875 3.2083,-4.99068 4.8125,-10.78408 4.8125,-17.3789 0,-7.8425 -3.02973,-13.27854 -9.08984,-16.3086 -4.45597,-2.13886 -11.13886,-3.20898 -20.05078,-3.20898 -2.49534,0.17824 -4.99099,0.26758 -7.48633,0.26758 h -6.95117 c -6.06012,0 -10.51733,-0.53409 -13.36914,-1.60352 -2.67358,-1.06943 -4.00977,-3.20772 -4.00977,-6.41602 0,-1.24767 0.89144,-2.31779 2.67383,-3.20898 1.78238,-1.06943 3.20791,-1.60352 4.27734,-1.60352 4.45597,0.8912 8.7345,1.6933 12.83399,2.40625 4.27772,0.53472 10.60521,0.80079 18.98242,0.80079 13.36789,0 23.88261,-2.49565 31.54687,-7.48633 9.26841,-6.06011 13.9043,-15.41733 13.9043,-28.07227 0,-11.22903 -4.81262,-19.6948 -14.4375,-25.39844 -7.66426,-4.6342 -18.80436,-7.66393 -33.41992,-9.08984 -6.95131,-0.71295 -19.69561,-1.07031 -38.23242,-1.07031 z m 157.6289,0 c -16.57618,0 -30.39061,9.09115 -41.4414,27.27148 -9.98136,16.39795 -14.97266,34.9337 -14.97266,55.60938 v 34.22265 c 0,25.8446 4.90196,47.6781 14.70508,65.50196 11.22903,20.31919 26.82634,30.47851 46.78906,30.47851 14.7938,0 26.91273,-6.50421 36.35938,-19.51562 7.84249,-10.69432 13.54655,-25.13217 17.11132,-43.3125 2.67358,-13.3679 4.00977,-28.16115 4.00977,-44.38086 0,-26.37931 -4.18724,-49.10621 -12.56445,-68.17774 -11.0508,-25.13164 -27.71628,-37.69726 -49.9961,-37.69726 z m 621.99019,0 c -25.4881,0 -42.509,0.62342 -51.0644,1.87109 -12.8332,1.96063 -23.8839,6.41784 -33.1524,13.36914 -7.6642,5.70364 -13.2789,18.26926 -16.8437,37.69727 -2.6736,14.25908 -4.0098,29.85444 -4.0098,46.78711 0,22.99277 1.9596,42.1539 5.8809,57.48242 4.0995,15.32852 9.7142,27.0027 16.8437,35.02344 7.3078,8.02073 21.299,13.81413 41.9747,17.3789 14.4373,2.49534 30.9241,3.74219 49.4609,3.74219 23.884,0 42.6897,-2.85105 56.4141,-8.55469 15.5067,-6.41659 23.2597,-16.30984 23.2597,-29.67773 0,-13.72437 -5.3467,-24.14976 -16.041,-31.2793 -10.5161,-7.30778 -24.1518,-10.96289 -40.9062,-10.96289 -1.426,0 -5.9706,0.4467 -13.6348,1.33789 -1.6042,0.17824 -3.6551,0.26758 -6.1504,0.26758 -2.6736,0 -4.7225,-0.35736 -6.1484,-1.07031 -1.4259,-0.8912 -2.6747,-2.4954 -3.7442,-4.8125 4.2777,-2.67358 8.6456,-4.00977 13.1016,-4.00977 h 29.1406 c 5.8819,0 10.4284,-2.40631 13.6367,-7.21875 3.2083,-4.99068 4.8125,-10.78408 4.8125,-17.3789 0,-7.8425 -3.0297,-13.27854 -9.0898,-16.3086 -4.456,-2.13886 -11.1408,-3.20898 -20.0528,-3.20898 -2.4953,0.17824 -4.9909,0.26758 -7.4863,0.26758 h -6.9512 c -6.0601,0 -10.5153,-0.53409 -13.3671,-1.60352 -2.6736,-1.06943 -4.0118,-3.20772 -4.0118,-6.41602 0,-1.24767 0.8915,-2.31779 2.6739,-3.20898 1.7824,-1.06943 3.2079,-1.60352 4.2773,-1.60352 4.456,0.8912 8.7345,1.6933 12.834,2.40625 4.2777,0.53472 10.6052,0.80079 18.9824,0.80079 13.3679,0 23.8846,-2.49565 31.5488,-7.48633 9.2685,-6.06011 13.9024,-15.41733 13.9024,-28.07227 0,-11.22903 -4.8126,-19.6948 -14.4375,-25.39844 -7.6643,-4.6342 -18.8044,-7.66393 -33.4199,-9.08984 -6.9513,-0.71295 -19.6956,-1.07031 -38.2325,-1.07031 z m 203.0801,79.67383 c 4.8125,0 8.9123,0.8021 12.2989,2.40625 3.3865,1.60414 5.0781,4.18718 5.0781,7.75195 0,1.96062 -1.6042,3.56483 -4.8125,4.8125 -3.2083,1.24767 -7.2169,1.87305 -12.0293,1.87305 -3.5648,0 -7.1306,-0.80211 -10.6953,-2.40625 -3.5648,-1.78239 -5.3477,-4.01197 -5.3477,-6.68555 0,-1.78239 1.0701,-3.38659 3.209,-4.8125 2.8518,-1.96062 6.9517,-2.93945 12.2988,-2.93945 z"
         style="font-style:normal;font-variant:normal;font-weight:normal;font-stretch:normal;font-size:70.73843384px;line-height:44.21151733px;font-family:'Pleasantly Plump';-inkscape-font-specification:'Pleasantly Plump';letter-spacing:0px;word-spacing:0px;fill:#03a9f4;fill-opacity:1;stroke:none;stroke-width:16;stroke-linecap:butt;stroke-linejoin:miter;stroke-miterlimit:4;stroke-dasharray:none;stroke-opacity:1"
         inkscape:connector-curvature="0" />
      <path
         id="path856"
         transform="matrix(0.26458333,0,0,0.26458333,0,11.249983)"
         d="m 1301.2285,108.19336 c 4.0557,6.95381 6.0879,15.06937 6.0879,24.35156 0,20.52056 -7.5138,35.69473 -22.543,45.52149 -12.4279,8.0926 -29.4796,12.13867 -51.1562,12.13867 -13.584,0 -23.8447,-0.43373 -30.7813,-1.30078 -6.6475,-1.15609 -13.585,-2.45724 -20.8105,-3.90235 -1.7341,0 -4.0453,0.86742 -6.9356,2.60157 -2.8902,1.44511 -4.3359,3.17801 -4.3359,5.20117 0,5.20239 2.1686,8.67212 6.5039,10.40625 2.7747,1.04048 6.5051,1.76339 11.1524,2.17968 0.6828,-0.63737 1.5737,-1.23415 2.6796,-1.7871 2.8903,-1.73415 5.2015,-2.60157 6.9356,-2.60157 7.2255,1.44511 14.163,2.74626 20.8105,3.90235 1.5029,0.18785 3.1929,0.35087 5.0079,0.49804 4.335,0.0378 8.335,0.23644 11.996,0.59766 4.1732,0.12302 8.6615,0.20508 13.7774,0.20508 21.6766,0 38.7283,-4.04607 51.1562,-12.13867 15.0292,-9.82676 22.543,-25.00093 22.543,-45.52149 0,-17.67738 -7.3777,-31.11891 -22.0879,-40.35156 z m 369.9903,15.96094 c 10.1654,13.22571 15.2558,28.44827 15.2558,45.67382 0,17.05231 -5.2006,31.93734 -15.6055,44.6543 -11.5607,9.53772 -23.1227,18.93099 -34.6836,28.17969 15.0293,13.87305 28.0348,30.20186 39.0176,48.98828 12.1389,20.52055 18.209,40.17445 18.209,58.96094 0,22.83273 -7.2266,40.17356 -21.6777,52.02344 -12.1389,9.82673 -27.8895,14.74023 -47.2539,14.74023 -26.1971,0 -51.4041,-10.51583 -75.6231,-31.53125 3.265,3.44289 6.0381,6.35076 10.1192,10.68164 26.0119,24.56685 53.1797,36.84961 81.5039,36.84961 19.3644,0 35.115,-4.9135 47.2539,-14.74023 14.4511,-11.84988 21.6777,-29.19071 21.6777,-52.02344 0,-18.78645 -6.0701,-38.44039 -18.209,-58.96094 -10.9828,-18.78642 -23.9883,-35.11523 -39.0176,-48.98828 11.5609,-9.2487 23.1229,-18.64197 34.6836,-28.17969 10.4049,-12.71696 15.6055,-27.60199 15.6055,-44.6543 0,-24.65757 -10.4262,-45.21186 -31.2558,-61.67382 z m -707.35747,5.30859 c 8.12181,10.94565 12.18945,23.24336 12.18945,36.89649 0,17.05228 -6.93749,32.51562 -20.81055,46.38867 -13.87302,13.87305 -20.80859,22.83261 -20.80859,26.8789 5.71785,4.69158 11.06291,9.90569 16.03711,15.63867 0.37316,-4.1987 7.2823,-13.02836 20.77148,-26.51757 13.87306,-13.87305 20.81055,-29.33639 20.81055,-46.38867 0,-20.76445 -9.40377,-38.39413 -28.18945,-52.89649 z m -422.09961,11.91016 c 27.21981,31.03048 40.83789,69.55944 40.83789,115.5957 0,43.6423 -15.31876,80.49254 -45.95508,110.55078 -34.97166,34.39363 -83.09454,51.58985 -144.36719,51.58985 -53.18021,0 -98.8452,-15.46142 -136.99609,-46.38672 -2.14301,-1.74503 -4.21659,-3.52112 -6.24609,-5.31641 6.57636,7.47714 13.98167,14.5868 22.24609,21.31641 38.15089,30.9253 83.81607,46.38672 136.99609,46.38672 61.27265,0 109.39553,-17.19622 144.36719,-51.58985 30.63632,-30.05824 45.95508,-66.90848 45.95508,-110.55078 0,-54.30938 -18.95567,-98.1701 -56.83789,-131.5957 z m 245.70117,22.38672 c -5.78045,0 -12.28226,2.3112 -19.50781,6.93554 -2.3122,1.44511 -5.34625,3.75826 -9.10352,6.9375 0,3.7573 2.60033,7.08049 7.80274,9.97071 3.55831,1.99265 6.90504,3.48892 10.04297,4.5 2.90484,-2.38548 5.34341,-4.21172 7.25781,-5.40821 7.22555,-4.62434 13.72736,-6.93554 19.50781,-6.93554 2.50146,0 5.22207,0.48022 8.14649,1.41015 0.66465,-1.26161 1,-2.44152 1,-3.53711 -10e-6,-3.17924 -3.03601,-6.21525 -9.10547,-9.10547 -6.06943,-3.17924 -11.41669,-4.76757 -16.04102,-4.76757 z M 384.04102,188.4707 c -11.56097,0 -20.80956,8.81498 -27.7461,26.44532 -5.20239,13.295 -7.80273,25.8669 -7.80273,37.71679 0,18.78642 4.04606,34.24977 12.13867,46.38867 4.64396,7.15941 9.61279,11.90905 14.9043,14.2754 -7.35641,-11.86882 -11.04297,-26.75252 -11.04297,-44.66407 0,-11.84989 2.60034,-24.42179 7.80273,-37.71679 6.93653,-17.63034 16.1852,-26.44532 27.7461,-26.44532 2.4807,0 4.88787,0.50284 7.22656,1.47266 -6.89092,-11.64365 -14.63173,-17.47266 -23.22656,-17.47266 z m 1112.98048,15.60742 c -8.6707,0 -15.319,1.58834 -19.9434,4.76758 -3.4682,2.31218 -5.2011,4.91447 -5.2011,7.80469 0,4.33533 2.8894,7.94767 8.6699,10.83789 2.5972,1.16878 5.1956,2.05939 7.7929,2.70313 0.7174,-1.92555 2.2845,-3.70983 4.7383,-5.34571 4.6244,-3.17924 11.2727,-4.76757 19.9434,-4.76758 4.4142,10e-6 8.4446,0.43175 12.1191,1.26368 0.037,-0.25984 0.061,-0.52298 0.061,-0.79102 0,-5.78044 -2.7449,-9.97107 -8.2364,-12.57226 -5.4913,-2.6012 -12.1397,-3.90039 -19.9433,-3.9004 z m -229.1738,21.23633 c 1.1591,3.44711 1.7519,7.34332 1.7519,11.71094 0,10.69381 -2.6003,20.08708 -7.8027,28.17969 -5.2024,7.80359 -12.5736,11.70508 -22.1114,11.70508 h -47.2539 c -7.2255,0 -14.3076,2.16857 -21.2441,6.5039 1.7341,3.75729 3.7581,6.35763 6.0703,7.80274 2.3122,1.15607 5.6354,1.73437 9.9707,1.73437 4.0463,0 7.3695,-0.14457 9.9707,-0.43359 12.4281,-1.44511 19.7992,-2.16797 22.1113,-2.16797 10.3023,0 19.8732,0.85647 28.7207,2.56055 h 7.6543 c 9.5378,0 16.909,-3.90149 22.1114,-11.70508 5.2024,-8.09261 7.8027,-17.48588 7.8027,-28.17969 0,-12.71696 -4.9135,-21.53194 -14.7402,-26.44531 -0.9415,-0.45193 -1.9475,-0.87262 -3.0117,-1.26563 z m -316.19731,31.33399 c 4.38219,5.18562 8.47082,10.78177 12.26172,16.79492 9.53771,14.74012 14.30664,29.04687 14.30664,42.91992 0,34.10476 -22.11167,60.40492 -66.33203,78.90234 -37.86187,15.89621 -84.39253,23.84376 -139.5957,23.84376 -31.21437,-10e-6 -56.07098,-1.87747 -74.56836,-5.63477 -20.78721,-4.23102 -37.35209,-10.80782 -49.70899,-19.72266 12.09145,17.35777 33.99334,29.26726 65.70899,35.72266 18.49738,3.7573 43.35399,5.63477 74.56836,5.63477 55.20317,0 101.73383,-7.94755 139.5957,-23.84376 44.22036,-18.49742 66.33203,-44.79776 66.33203,-78.90234 0,-13.87305 -4.76893,-28.1798 -14.30664,-42.91992 -8.07708,-12.81193 -17.50063,-23.74054 -28.26172,-32.79492 z m -163.32031,31.96875 c -6.64751,0 -12.57107,1.44376 -17.77344,4.33398 -4.91339,2.6012 -7.37109,6.35811 -7.37109,11.27149 0,4.91337 2.4577,8.52766 7.37109,10.83984 2.74224,1.12916 5.71818,1.93115 8.91016,2.42969 0.76898,-3.5976 3.13039,-6.44484 7.08984,-8.54102 5.20237,-2.89022 11.12593,-4.33398 17.77344,-4.33398 3.68202,0.5523 6.70946,1.10441 9.21875,1.65625 0.52833,-1.54839 0.79492,-3.24214 0.79492,-5.08399 0,-4.0463 -4.33716,-7.37147 -13.00781,-9.97265 -2.89021,-0.86708 -7.22541,-1.73255 -13.00586,-2.59961 z m 513.95312,35.94922 c 6.2435,9.50377 9.3691,20.92962 9.3691,34.2832 0,21.67665 -12.5717,37.71628 -37.7168,48.12109 -22.2546,9.2487 -52.7476,13.87305 -91.4765,13.87305 -30.0583,0 -56.7924,-2.02403 -80.2031,-6.07031 -25.6898,-4.42927 -45.0083,-10.98121 -57.9707,-19.65235 1.8927,2.67405 3.8594,5.172 5.9062,7.47461 11.8499,13.006 34.5379,22.39729 68.0645,28.17774 23.4107,4.04628 50.1448,6.07031 80.2031,6.07031 38.7289,0 69.2219,-4.62435 91.4765,-13.87305 25.1451,-10.40481 37.7168,-26.44444 37.7168,-48.12109 0,-21.97538 -8.4604,-38.73486 -25.3691,-50.2832 z m 212.9473,26.91211 c -11.8499,15.02914 -23.5563,30.05875 -35.1172,45.08789 -13.584,11.27187 -29.4791,16.9082 -47.6875,16.9082 -18.2531,0 -34.2782,-5.34563 -48.084,-16.01953 16.9174,21.33841 38.2758,32.01953 64.084,32.01953 18.2084,0 34.1035,-5.63633 47.6875,-16.9082 11.4699,-14.91085 23.0855,-29.82157 34.8398,-44.73243 -7.1005,-7.47558 -12.8717,-13.50452 -15.7226,-16.35546 z"
         style="font-style:normal;font-variant:normal;font-weight:normal;font-stretch:normal;font-size:114.70555878px;line-height:71.69097137px;font-family:'Pleasantly Plump';-inkscape-font-specification:'Pleasantly Plump';letter-spacing:0px;word-spacing:0px;fill:#ff8f00;fill-opacity:1;stroke:none;stroke-width:15.99999905;stroke-linecap:butt;stroke-linejoin:miter;stroke-miterlimit:4;stroke-dasharray:none;stroke-opacity:1"
         inkscape:connector-curvature="0" />
      <path
         id="path863"
         transform="matrix(0.26458333,0,0,0.26458333,0,11.249983)"
         d="m 1408.8887,491.55664 c 4.2901,6.03619 8.1578,13.19818 11.5957,21.50195 9.6838,23.43481 14.5254,49.57979 14.5254,78.4375 0,28.66405 -4.3587,52.58389 -13.0743,71.75782 -11.2331,24.59686 -28.3724,36.89453 -51.4199,36.89453 -9.8775,0 -19.2706,-1.74236 -28.1797,-5.22852 -5.3408,-2.13635 -9.9107,-4.52831 -13.7246,-7.17383 2.8494,3.43014 6.061,6.98451 9.6778,10.68164 4.6482,4.84191 11.3314,9.00602 20.0468,12.49219 8.9091,3.48617 18.3022,5.22852 28.1797,5.22852 23.0475,0 40.1867,-12.29768 51.4199,-36.89453 8.2662,-18.18549 12.607,-40.64865 13.0333,-67.3711 -2.9716,-11.20699 -4.4649,-23.32489 -4.4649,-36.36328 0,-2.98015 0.2876,-6.11257 0.8516,-9.39258 -2.4209,-13.02941 -6.0438,-25.38621 -10.8711,-37.06836 -7.2843,-17.59422 -16.4854,-30.08795 -27.5957,-37.50195 z m -262.1309,5.73047 c 1.6628,3.91086 2.5078,8.29091 2.5078,13.15625 0,13.75098 -5.0344,23.91891 -15.1054,30.50391 -8.3282,5.42294 -19.7556,8.13476 -34.2813,8.13476 -9.1028,0 -15.9787,-0.29007 -20.6269,-0.87109 -4.4546,-0.77473 -9.1015,-1.64685 -13.9434,-2.61524 -1.1621,0 -2.7117,0.58014 -4.6484,1.74219 -1.9368,0.96839 -2.9063,2.13061 -2.9063,3.48633 0,3.48616 1.4523,5.8106 4.3574,6.97266 3.0988,1.16205 7.9423,1.74414 14.5274,1.74414 h 7.5527 c 2.7115,0 5.4233,-0.0975 8.1348,-0.29102 9.6838,0 16.9452,1.16218 21.7871,3.48633 1.3322,0.66609 2.5231,1.44413 3.5859,2.32422 13.6596,-0.21988 24.4854,-2.91993 32.461,-8.11328 10.0711,-6.58499 15.1054,-16.75291 15.1054,-30.50391 0,-12.20159 -5.229,-21.40198 -15.6875,-27.59961 -0.8935,-0.54027 -1.8398,-1.05651 -2.8203,-1.55664 z m 139.7754,1.16406 c 0.1043,0.12702 0.2102,0.24326 0.3145,0.3711 9.1027,12.58892 15.2993,20.91715 18.5918,24.98437 0.509,-1.08451 1.0367,-2.16803 1.5761,-3.25 -1.35,-1.85378 -2.658,-3.64612 -4.1679,-5.73437 -5.3238,-6.52791 -10.7626,-11.97951 -16.3145,-16.3711 z m 390.6602,6.34571 c 3.0808,5.45451 4.6269,11.4994 4.6269,18.13867 0,11.62057 -4.5515,20.33621 -13.6543,26.14648 -7.5533,4.84192 -17.2385,7.26172 -29.0527,7.26172 -8.1344,0 -14.9129,-0.77285 -20.336,-2.32227 -13.5572,-3.87352 -21.3034,-5.81054 -23.2402,-5.81054 -12.7826,0 -22.6605,4.35686 -29.6328,13.07226 -6.1976,7.74705 -9.2969,17.14014 -9.2969,28.17969 0,17.62472 7.3829,31.07671 22.1387,40.36133 -2.8217,-4.80787 -4.6706,-10.16572 -5.5449,-16.07422 -1.1807,-3.15396 -1.7774,-6.50314 -1.7774,-10.05078 0,-4.0961 0.9996,-8.03397 2.9746,-11.81836 1.5264,-5.38447 4.0278,-10.25007 7.5059,-14.59766 6.9723,-8.71542 16.8502,-13.07226 29.6328,-13.07226 0.8682,0 2.969,0.41107 6.1719,1.18945 4.0661,-0.6082 8.2917,-0.92187 12.6894,-0.92187 11.6767,0 22.4581,2.50544 32.3536,7.49218 8.4163,-0.84345 15.5587,-3.1352 21.414,-6.88867 9.1028,-5.81028 13.6543,-14.52592 13.6543,-26.14648 0,-14.02379 -6.8817,-25.40116 -20.6269,-34.13867 z m -762.05473,2.88867 c 5.44493,8.17742 8.17578,17.42241 8.17578,27.74218 0,11.42691 -3.48662,21.40209 -10.45898,29.92383 -7.74701,6.39133 -15.49319,12.68518 -23.24024,18.88282 10.07116,9.29642 18.7868,20.23919 26.14649,32.82812 8.13437,13.75102 12.20117,26.9208 12.20117,39.50977 0,15.30039 -4.8416,26.92065 -14.52539,34.86132 -8.13441,6.585 -18.68973,9.87696 -31.66602,9.87696 -17.06185,0 -33.49672,-6.67382 -49.30664,-19.97657 2.95232,3.09627 6.37855,6.70837 10.68946,11.28321 17.43084,16.46246 35.63693,24.69336 54.61718,24.69336 12.9763,0 23.53163,-3.29197 31.66602,-9.87696 9.6838,-7.94071 14.52539,-19.56092 14.52539,-34.86132 0,-12.58895 -4.06678,-25.75877 -12.20117,-39.50977 -7.35969,-12.58894 -16.07533,-23.53169 -26.14649,-32.82812 7.74705,-6.19764 15.4932,-12.49151 23.24024,-18.88282 6.97234,-8.52174 10.45898,-18.49694 10.45898,-29.92383 0,-17.7517 -8.06478,-32.32931 -24.17578,-43.74218 z m -509.66406,4.62695 c 5.02453,6.91689 7.55273,13.75044 7.55273,20.5 0,6.00397 -2.71182,10.75017 -8.13476,14.23633 -5.42294,3.4862 -11.9115,5.22851 -19.46485,5.22851 -4.64825,0 -12.0088,-1.45228 -22.08007,-4.35742 -10.07119,-2.90513 -20.33448,-5.90702 -30.79297,-9.00586 -2.90514,0.96839 -5.03685,1.74319 -6.39258,2.32422 -4.26087,2.13045 -6.39063,4.26018 -6.39063,6.39063 0,5.42294 6.39121,9.19963 19.17383,11.33007 0.0703,0.0115 0.133,0.0237 0.20313,0.0352 0.84888,-0.58518 1.84316,-1.1706 3.01367,-1.75586 1.35573,-0.58103 3.48744,-1.35584 6.39258,-2.32422 10.4585,3.09882 20.72181,6.10072 30.79297,9.00586 10.07115,2.90514 17.43185,4.35742 22.08007,4.35742 7.55337,0 14.04192,-1.74234 19.46485,-5.22851 5.42293,-3.48617 8.13476,-8.23237 8.13476,-14.23633 0,-10.26483 -5.81108,-20.72282 -17.43164,-31.375 -1.97122,-1.78348 -4.01345,-3.48934 -6.12109,-5.125 z m 251.98047,2.18164 c 9.28024,12.39132 13.92969,26.82271 13.92969,43.30274 0,23.04744 -8.42558,41.05886 -25.27539,54.03515 -13.16996,10.26482 -32.82837,18.1103 -58.97461,23.5332 -3.87353,0.77473 -7.06817,1.35483 -9.58594,1.74219 -2.32411,0.19351 -4.93862,0.29102 -7.84375,0.29102 -3.67986,-0.19389 -6.10162,-0.29102 -7.26367,-0.29102 -1.54938,0 -2.90436,0.58209 -4.06641,1.74414 -3.09883,17.62451 -9.10262,32.1493 -18.01172,43.57617 -9.68379,12.39531 -22.95097,18.59375 -39.80078,18.59375 -11.22474,0 -21.16876,-2.90631 -29.83594,-8.71093 11.65017,16.47016 26.9281,24.71093 45.83594,24.71093 16.84981,0 30.11698,-6.19848 39.80078,-18.59375 8.9091,-11.42688 14.9129,-25.95165 18.01172,-43.57617 1.16206,-1.16205 2.517,-1.74414 4.06641,-1.74414 1.16205,0 3.58382,0.0973 7.26367,0.29102 2.90514,0 5.51964,-0.0973 7.84375,-0.29102 2.51779,-0.38735 5.71242,-0.96748 9.58594,-1.74219 26.14626,-5.42292 45.80464,-13.26837 58.97461,-23.5332 10.38417,-7.997 17.56399,-17.90858 21.54882,-29.73047 -0.20475,-3.69022 -0.30859,-7.44 -0.30859,-11.25195 0,-11.63027 0.57579,-22.33903 1.7207,-32.14258 -3.99912,-15.69802 -13.19985,-29.1038 -27.61523,-40.21289 z m -112.1543,33.13477 c -3.67982,0 -7.45655,1.16218 -11.33008,3.48632 -3.67986,2.13041 -5.51953,3.7774 -5.51953,4.93946 0.77473,1.54941 1.16211,2.807 1.16211,3.77539 4.26085,0.77469 8.13493,1.64684 11.6211,2.61523 0.58102,0 1.25847,0.19471 2.0332,0.58203 1.93674,0 4.4539,-0.48473 7.55273,-1.45312 3.29246,-0.96839 6.29439,-1.93786 9.00586,-2.90625 v -7.26172 c -1.93678,-0.38733 -4.16383,-1.06481 -6.68164,-2.0332 -2.51777,-1.16206 -5.13228,-1.74414 -7.84375,-1.74414 z m 251.0586,10.75 c -5.81031,0 -10.26449,1.06486 -13.36329,3.19531 -2.3241,1.54942 -3.48632,3.29173 -3.48632,5.22851 0,2.90514 1.93702,5.3269 5.81054,7.26368 3.87349,1.74308 7.74757,2.61328 11.6211,2.61328 1.3487,0 2.63647,-0.0466 3.86914,-0.13672 2.55579,-1.24606 5.79289,-1.9576 9.72656,-2.12109 3.12417,-1.32245 4.70703,-2.98718 4.70703,-5.00391 0,-3.87353 -1.84162,-6.6827 -5.52148,-8.42578 -3.67987,-1.74308 -8.13404,-2.61328 -13.36328,-2.61328 z m 327.37892,18.25586 c 0.1632,1.21193 0.2539,2.4807 0.2539,3.82226 0,7.16599 -1.7443,13.45991 -5.2305,18.88281 -3.4861,5.22928 -8.4251,7.84571 -14.8164,7.84571 h -31.666 c -4.8419,0 -9.5862,1.45228 -14.2344,4.35742 1.1621,2.51777 2.517,4.26016 4.0664,5.22851 1.5494,0.77473 3.7765,1.16211 6.6817,1.16211 2.7114,0 4.9405,-0.0975 6.6836,-0.29101 8.328,-0.96835 13.265,-1.45117 14.8144,-1.45117 13.3405,0 24.8539,2.14082 34.5547,6.40429 4.0726,-1.03757 7.3804,-3.45241 9.916,-7.25586 3.4862,-5.42293 5.2305,-11.7168 5.2305,-18.88281 0,-8.52174 -3.2939,-14.42821 -9.8789,-17.7207 -1.7919,-0.86012 -3.9202,-1.55974 -6.375,-2.10156 z m -716.45705,13.83398 c 0.17098,0.24716 0.34693,0.48764 0.51563,0.73828 6.77865,9.87746 10.16796,20.72287 10.16796,32.53711 0,20.72334 -8.71564,38.54201 -26.14648,53.45508 -19.56135,16.65611 -45.70625,24.98437 -78.4375,24.98437 -10.65218,0 -21.59492,-0.9695 -32.82813,-2.90625 -11.03953,-2.13044 -21.59486,-5.13233 -31.66601,-9.00586 -7.12996,-2.53508 -14.45779,-6.78427 -21.97656,-12.68945 2.85526,3.92163 6.49936,7.86799 10.95898,11.83985 9.29645,8.13438 18.30216,13.75079 27.01758,16.8496 10.07115,3.87352 20.62648,6.87543 31.66601,9.00586 11.23321,1.93676 22.17595,2.90625 32.82813,2.90625 32.73125,0 58.87622,-8.32823 78.4375,-24.98437 17.43084,-14.91306 26.14648,-32.73174 26.14648,-53.45508 0,-11.81424 -3.38931,-22.65963 -10.16796,-32.53711 -4.64197,-6.89662 -10.14814,-12.47534 -16.51563,-16.73828 z m 1279.03125,1.9082 c 5.5237,8.64563 8.2891,18.90621 8.2891,30.78516 0,17.43084 -8.7157,33.98997 -26.1465,49.67773 -21.3044,19.36763 -48.9017,29.05274 -82.7949,29.05274 -16.0752,0 -32.9263,-2.80918 -50.5508,-8.42578 -18.8868,-6.0553 -34.7622,-14.31394 -47.6387,-24.76953 1.2211,1.51146 2.4823,2.9988 3.793,4.45507 14.5257,16.07511 34.4741,28.18006 59.8457,36.31446 17.6245,5.6166 34.4756,8.42578 50.5508,8.42578 33.8933,0 61.4905,-9.68513 82.7949,-29.05274 17.4308,-15.68775 26.1465,-32.24689 26.1465,-49.67773 0,-20.14231 -7.9409,-35.63656 -23.8223,-46.48242 -0.1543,-0.10453 -0.312,-0.19955 -0.4668,-0.30274 z M 219.67383,604.29688 c 6.17598,9.6473 14.46283,16.43454 24.87695,20.33984 6.00396,2.32411 18.01157,4.06841 36.02344,5.23047 1.48262,0.0789 2.88225,0.17541 4.24414,0.28125 1.66415,-0.23771 3.05713,-0.62524 4.1582,-1.17578 1.93676,-0.96836 2.90625,-3.00082 2.90625,-6.09961 0,-5.03558 -9.10304,-8.03747 -27.30859,-9.00586 -18.01187,-1.16206 -30.01948,-2.90636 -36.02344,-5.23047 -3.15376,-1.18266 -6.11188,-2.63057 -8.87695,-4.33984 z m 927.97847,37.82226 c 3.0078,5.7322 4.5196,12.3858 4.5196,19.97266 0,14.52567 -8.4256,25.27377 -25.2754,32.24609 -14.9131,6.19763 -35.3463,9.29688 -61.2988,9.29688 -20.1424,0 -38.0564,-1.35494 -53.7442,-4.06641 -15.32124,-2.6416 -27.25827,-6.41142 -35.8242,-11.30469 1.93893,3.12545 4.00707,5.94034 6.21289,8.42188 7.94071,8.71542 23.14491,15.00929 45.61131,18.88281 15.6878,2.71146 33.6018,4.06641 53.7442,4.06641 25.9525,0 46.3857,-3.09925 61.2988,-9.29688 16.8498,-6.97234 25.2754,-17.72039 25.2754,-32.24609 0,-14.91306 -5.8111,-26.2432 -17.4317,-33.99024 -1.0003,-0.69518 -2.0355,-1.34811 -3.0879,-1.98242 z m 143.8438,1.66992 c -1.1621,0 -4.0686,6.29385 -8.7168,18.88282 -2.9051,7.94071 -7.0693,15.01135 -12.4922,21.20898 -5.2292,6.00397 -12.0079,10.65086 -20.3359,13.94336 -6.585,2.51777 -12.7815,3.77734 -18.5918,3.77734 -10.6977,0 -20.2205,-2.78779 -28.5762,-8.3457 11.4406,16.22598 26.2977,24.3457 44.5762,24.3457 5.8103,0 12.0068,-1.25955 18.5918,-3.77734 8.328,-3.29249 15.1067,-7.9394 20.3359,-13.94336 5.4229,-6.19763 9.5871,-13.26828 12.4922,-21.20898 2.955,-8.00327 5.1996,-13.43841 6.7461,-16.35352 -0.9714,-1.45567 -1.8889,-2.89329 -2.6992,-4.29297 -5.6166,-9.49013 -9.3933,-14.23633 -11.3301,-14.23633 z m -482.93555,13.36328 c -7.94075,10.07116 -15.7842,20.14369 -23.53125,30.21485 -9.10277,7.55338 -19.75543,11.33008 -31.95703,11.33008 -10.98451,0 -20.76478,-2.88935 -29.34571,-8.65821 11.69281,16.43315 26.80582,24.65821 45.34571,24.65821 12.20159,0 22.85425,-3.77672 31.95703,-11.33008 7.64484,-9.93831 15.38531,-19.87807 23.21875,-29.81641 -7.60581,-8.05212 -13.14108,-13.85201 -15.6875,-16.39844 z"
         style="font-style:normal;font-variant:normal;font-weight:normal;font-stretch:normal;font-size:76.86517334px;line-height:48.04073715px;font-family:'Pleasantly Plump';-inkscape-font-specification:'Pleasantly Plump';letter-spacing:0px;word-spacing:0px;fill:#d32f2f;fill-opacity:1;stroke:none;stroke-width:16;stroke-linecap:butt;stroke-linejoin:miter;stroke-miterlimit:4;stroke-dasharray:none;stroke-opacity:1"
         inkscape:connector-curvature="0" />
      <path
         id="path870"
         transform="matrix(0.26458333,0,0,0.26458333,0,11.249983)"
         d="m 450.28125,776.3418 c 2.66892,3.849 5.14256,8.15964 7.41406,12.94726 8.91194,18.71505 13.36719,39.8358 13.36719,63.36328 v 6.6836 c -0.35641,1.60414 -0.53516,2.76359 -0.53516,3.47656 0,5.34716 -0.17679,13.10017 -0.5332,23.25977 -0.35641,9.98139 -0.53516,15.77476 -0.53516,17.3789 0,16.04149 -5.43602,30.7454 -16.30859,44.11328 -10.87253,13.36789 -22.54872,20.05274 -35.02539,20.05274 -7.12955,0 -13.99112,-1.42749 -20.58594,-4.2793 -0.94306,-0.44534 -1.83512,-0.90064 -2.70117,-1.36133 1.53787,2.41148 3.12081,4.81517 4.79883,7.20313 2.85182,3.74301 7.48575,7.12814 13.90234,10.1582 6.59483,2.85182 13.4564,4.2793 20.58594,4.2793 12.4767,0 24.15284,-6.68484 35.02539,-20.05274 10.87255,-13.36789 16.30859,-28.07181 16.30859,-44.11328 0,-1.60415 0.17868,-7.39754 0.53516,-17.3789 0.0778,-2.2179 0.11506,-3.87672 0.17578,-5.86524 -1.82314,-12.11406 -2.73828,-26.00681 -2.73828,-41.68359 0,-6.20317 0.18393,-12.22214 0.54297,-18.06641 -2.22415,-11.03849 -5.64302,-21.43179 -10.2793,-31.16797 -6.28304,-13.24272 -14.09044,-22.88609 -23.41406,-28.94726 z m 337.97266,1.74023 c 2.88177,4.22963 5.50828,9.0317 7.875,14.41406 8.37721,19.07154 12.56445,41.79845 12.56445,68.17774 0,16.21973 -1.3362,31.01293 -4.00977,44.38086 -3.56477,18.18032 -9.26884,32.61817 -17.11132,43.3125 -9.44667,13.0114 -21.56559,19.51562 -36.35938,19.51562 -9.9036,0 -18.73191,-2.50301 -26.48633,-7.5039 10.79533,15.66714 24.95713,23.5039 42.48633,23.5039 14.7938,0 26.91273,-6.50421 36.35938,-19.51562 7.84249,-10.69432 13.54655,-25.13217 17.11132,-43.3125 2.67358,-13.3679 4.00977,-28.16115 4.00977,-44.38086 0,-11.05985 -0.74648,-21.46856 -2.21875,-31.24414 -1.01607,-3.53263 -1.6633,-7.00462 -1.89258,-10.40625 -4e-5,-6.6e-4 5e-5,-0.001 0,-0.002 -2.051,-9.5103 -4.8648,-18.35622 -8.45312,-26.52539 -6.19394,-14.08619 -14.15335,-24.22318 -23.875,-30.41406 z M 672.625,779.06445 c 1.30916,3.38966 1.96875,7.15168 1.96875,11.29297 0,12.65496 -4.63591,22.01214 -13.9043,28.07227 -7.66427,4.99067 -18.17899,7.48633 -31.54687,7.48633 -8.37721,0 -14.70472,-0.26606 -18.98242,-0.80079 -4.09951,-0.71297 -8.378,-1.51503 -12.83399,-2.40625 -1.06942,0 -2.49495,0.5341 -4.27734,1.60352 -1.78239,0.89117 -2.67383,1.96132 -2.67383,3.20898 0,3.20829 1.33617,5.3466 4.00977,6.41602 2.8518,1.06946 7.309,1.60352 13.36914,1.60352 h 6.95117 c 2.49536,0 4.99097,-0.0892 7.48633,-0.26758 8.9119,0 15.59483,1.07015 20.05078,3.20898 1.83276,0.91639 3.38367,2.05559 4.66211,3.41211 12.52983,-0.21236 22.46218,-2.6964 29.78515,-7.46484 9.26841,-6.06011 13.9043,-15.41733 13.9043,-28.07227 0,-11.22903 -4.81262,-19.6948 -14.4375,-25.39844 -1.10218,-0.66643 -2.2853,-1.29445 -3.53125,-1.89453 z m 779.6191,0 c 1.3092,3.38966 1.9688,7.15168 1.9688,11.29297 0,12.65496 -4.6339,22.01214 -13.9024,28.07227 -7.6642,4.99067 -18.1809,7.48633 -31.5488,7.48633 -8.3772,0 -14.7047,-0.26606 -18.9824,-0.80079 -4.0995,-0.71297 -8.378,-1.51503 -12.834,-2.40625 -1.0694,0 -2.4949,0.5341 -4.2773,1.60352 -1.7824,0.89117 -2.6739,1.96132 -2.6739,3.20898 0,3.20829 1.3382,5.3466 4.0118,6.41602 2.8518,1.06946 7.3071,1.60352 13.3671,1.60352 h 6.9512 c 2.4954,0 4.9911,-0.0892 7.4863,-0.26758 8.9121,0 15.5968,1.07015 20.0528,3.20898 1.8327,0.91639 3.3837,2.05559 4.6621,3.41211 12.5291,-0.21259 22.4626,-2.69664 29.7851,-7.46484 9.2685,-6.06011 13.9024,-15.41733 13.9024,-28.07227 0,-11.22903 -4.8126,-19.6948 -14.4375,-25.39844 -1.1022,-0.66643 -2.2853,-1.29445 -3.5313,-1.89453 z m 228.7325,9.45508 c 4.7059,7.35236 7.0625,15.62857 7.0625,24.83203 0,10.51608 -3.2084,19.69459 -9.625,27.53711 -7.1296,5.88185 -14.2592,11.67526 -21.3887,17.37891 9.2684,8.55545 17.2875,18.62544 24.0605,30.21094 7.4861,12.65491 11.2305,24.77582 11.2305,36.36132 0,14.08086 -4.4572,24.77424 -13.3691,32.08204 -7.4861,6.06009 -17.1987,9.08984 -29.1407,9.08984 -15.5793,0 -30.59,-6.04365 -45.0351,-18.0957 2.845,2.9788 6.4272,6.76087 10.7715,11.37109 16.0414,15.15028 32.7963,22.72461 50.2636,22.72461 11.942,0 21.6546,-3.02974 29.1407,-9.08984 8.9119,-7.30779 13.3691,-18.00119 13.3691,-32.08204 0,-11.5855 -3.7444,-23.70639 -11.2305,-36.36132 -6.773,-11.58551 -14.7921,-21.65549 -24.0605,-30.21094 7.1295,-5.70364 14.2591,-11.49704 21.3887,-17.37891 6.4166,-7.8425 9.625,-17.02103 9.625,-27.53711 0,-16.63448 -7.6902,-30.24528 -23.0625,-40.83203 z m -435.0918,3.17969 c 3.2334,5.48751 4.8593,11.45514 4.8593,17.9082 0,15.32852 -4.9,27.00268 -14.7031,35.02344 -13.5461,7.66424 -23.8841,13.90241 -31.0137,18.71484 v 24.86524 c 0,20.49743 -4.5446,38.23304 -13.6347,53.20508 -10.3379,16.93266 -24.0629,25.39843 -41.1738,25.39843 -8.3975,0 -15.9392,-2.042 -22.627,-6.11914 9.786,14.74065 22.6593,22.11914 38.627,22.11914 17.1108,0 30.8359,-8.46577 41.1738,-25.39843 9.0901,-14.97204 13.6347,-32.70765 13.6347,-53.20508 V 879.3457 c 7.1296,-4.81244 17.4676,-11.05058 31.0137,-18.71484 4.9937,-4.08575 8.7068,-9.12551 11.1563,-15.10742 0.2965,-10.14003 1.1017,-19.77219 2.414,-28.89649 -2.4776,-9.5333 -9.0536,-17.84165 -19.7265,-24.92773 z m -929.17972,0.62695 c 0.38735,0.50228 0.75779,0.96873 1.16211,1.50781 4.41047,5.6706 7.9846,8.83095 10.72461,9.49024 -0.98697,-1.10441 -1.91913,-2.0896 -2.7461,-2.84766 -2.93534,-2.87288 -5.98653,-5.58393 -9.14062,-8.15039 z m 699.44532,0.4375 c 4.298,6.13221 6.4551,12.19282 6.4551,18.18164 0,5.52541 -2.4957,9.89132 -7.4864,13.09961 -4.9906,3.20829 -10.9608,4.8125 -17.91207,4.8125 -4.27771,0 -11.05193,-1.33616 -20.32031,-4.00976 -9.26839,-2.67357 -18.71498,-5.43722 -28.33984,-8.28907 -2.67361,0.89122 -4.6332,1.60395 -5.88086,2.13868 -3.92126,1.96063 -5.88282,3.92218 -5.88282,5.88281 0,4.99068 5.88275,8.46519 17.64649,10.42578 0.96035,0.15698 1.8457,0.31667 2.77734,0.47461 0.4532,-0.26148 0.93608,-0.52175 1.45899,-0.7832 1.24767,-0.53472 3.20728,-1.24748 5.88086,-2.13868 9.62487,2.85182 19.07143,5.61549 28.33984,8.28907 9.26838,2.67357 16.04258,4.00976 20.32028,4.00976 6.9513,0 12.9215,-1.6042 17.9121,-4.8125 4.9907,-3.20829 7.4864,-7.57421 7.4864,-13.09961 0,-9.44664 -5.3467,-19.07188 -16.041,-28.875 -2.0548,-1.85908 -4.198,-3.6221 -6.4141,-5.30664 z m 555.0527,41.70899 c -5.3471,0 -9.447,0.97882 -12.2988,2.93945 -2.1389,1.4259 -3.209,3.03011 -3.209,4.8125 0,2.6736 1.7829,4.90316 5.3477,6.68555 3.5647,1.60414 7.1305,2.40625 10.6953,2.40625 4.8124,0 8.821,-0.62539 12.0293,-1.87305 3.2083,-1.2477 4.8125,-2.85187 4.8125,-4.8125 0,-3.56478 -1.6917,-6.14781 -5.0781,-7.75195 -3.3867,-1.60415 -7.4864,-2.40625 -12.2989,-2.40625 z m -509.0312,15.38867 c 2.3713,3.62649 5.3178,7.04195 8.8672,10.23633 6.0841,5.42045 13.0622,10.22159 20.9316,14.40625 -0.01,-0.14124 -0.03,-0.32825 -0.037,-0.46289 -0.1783,-3.38657 -0.3552,-6.23761 -0.5332,-8.55469 -11.1193,-4.25554 -20.8579,-9.46639 -29.2285,-15.625 z m -410.9551,2.46484 c 0.0715,0.79514 0.11523,1.61292 0.11523,2.46485 0,6.59482 -1.60417,12.38822 -4.8125,17.3789 -3.20829,4.81247 -7.75287,7.21875 -13.63476,7.21875 h -29.14063 c -4.45595,0 -8.82382,1.33621 -13.10156,4.00977 1.06945,2.31711 2.31625,3.92128 3.74219,4.8125 1.42586,0.71316 3.47679,1.07031 6.15039,1.07031 2.49532,0 4.54429,-0.0892 6.14843,-0.26758 7.66424,-0.89117 12.21078,-1.33789 13.63672,-1.33789 13.29231,0 24.61314,2.31018 33.97852,6.91016 3.33551,-1.06743 6.0778,-3.20166 8.2207,-6.41602 3.2083,-4.99068 4.8125,-10.78408 4.8125,-17.3789 0,-7.8425 -3.02973,-13.27854 -9.08984,-16.3086 -1.91979,-0.92149 -4.27872,-1.63162 -7.02539,-2.15625 z m 779.6211,0 c 0.072,0.79514 0.1152,1.61292 0.1152,2.46485 0,6.59482 -1.6042,12.38822 -4.8125,17.3789 -3.2083,4.81247 -7.7548,7.21875 -13.6367,7.21875 h -29.1406 c -4.456,0 -8.8239,1.33621 -13.1016,4.00977 1.0695,2.31711 2.3183,3.92128 3.7442,4.8125 1.4259,0.71316 3.4748,1.07031 6.1484,1.07031 2.4953,0 4.5462,-0.0892 6.1504,-0.26758 7.6642,-0.89117 12.2087,-1.33789 13.6348,-1.33789 13.2917,0 24.6128,2.31053 33.9785,6.91016 3.3361,-1.06743 6.0797,-3.20166 8.2226,-6.41602 3.2083,-4.99068 4.8125,-10.78408 4.8125,-17.3789 0,-7.8425 -3.0297,-13.27854 -9.0898,-16.3086 -1.9196,-0.9214 -4.2787,-1.63163 -7.0254,-2.15625 z m -412.9531,12.49414 c 6.1759,9.0535 9.2656,18.98856 9.2656,29.80664 0,19.07154 -8.021,35.47094 -24.0625,49.19532 -18.00213,15.32851 -42.06321,22.99218 -72.18556,22.99218 -9.80311,0 -19.87505,-0.89144 -30.21289,-2.67383 -10.15959,-1.96062 -19.8722,-4.72428 -29.14062,-8.28906 -6.3069,-2.24245 -12.78214,-5.93928 -19.41992,-11.04687 2.691,3.82131 6.20577,7.66776 10.55468,11.54101 8.55546,7.48602 16.8445,12.65405 24.86524,15.50586 9.2684,3.56477 18.98102,6.32845 29.14062,8.28906 10.33784,1.78239 20.40977,2.67383 30.21289,2.67383 30.12232,0 54.18346,-7.66367 72.18556,-22.99218 16.0415,-13.72437 24.0625,-30.12379 24.0625,-49.19532 0,-10.87255 -3.1191,-20.85319 -9.3574,-29.94336 -4.4426,-6.60035 -9.7482,-11.88401 -15.9082,-15.86328 z m -172.47855,12.34961 c 5.32006,8.65095 12.41968,14.88936 21.30859,18.70508 2.25115,0.46219 4.65157,1.01805 7.24024,1.69336 8.19897,2.13887 15.41592,3.20898 21.6543,3.20898 h 5.08007 c 3.38654,0 5.97152,-0.44671 7.75391,-1.33789 1.78239,-0.89121 2.67383,-2.76147 2.67383,-5.61328 0,-4.63419 -8.3784,-7.39789 -25.13281,-8.28906 -16.57618,-1.06942 -27.62694,-2.67363 -33.15235,-4.8125 -2.62374,-0.9839 -5.09435,-2.17473 -7.42578,-3.55469 z m -171.92969,35.10352 c 2.51868,5.10695 3.78906,10.98395 3.78906,17.64453 0,13.36789 -7.753,23.26115 -23.25976,29.67773 -13.72437,5.70365 -32.52814,8.55469 -56.41211,8.55469 -18.53681,0 -35.02363,-1.24687 -49.46094,-3.74219 -13.67612,-2.35795 -24.40921,-5.69615 -32.23633,-10.0039 1.93802,3.23429 4.02569,6.10946 6.26172,8.625 7.30778,8.02073 21.29894,13.81413 41.97461,17.3789 14.43733,2.49534 30.92413,3.74219 49.46094,3.74219 23.88397,0 42.68774,-2.85105 56.41211,-8.55469 15.50676,-6.41659 23.25976,-16.30984 23.25976,-29.67773 0,-13.72437 -5.3467,-24.14976 -16.04101,-31.2793 -1.20668,-0.83854 -2.45927,-1.62288 -3.74805,-2.36523 z m 779.62114,0 c 2.5186,5.10695 3.789,10.98395 3.789,17.64453 0,13.36789 -7.7531,23.26115 -23.2597,29.67773 -13.7245,5.70365 -32.5301,8.55469 -56.4141,8.55469 -18.5368,0 -35.0236,-1.24687 -49.4609,-3.74219 -13.6762,-2.35795 -24.4092,-5.69615 -32.2364,-10.0039 1.938,3.23429 4.0257,6.10946 6.2617,8.625 7.3078,8.02073 21.299,13.81413 41.9747,17.3789 14.4373,2.49534 30.9241,3.74219 49.4609,3.74219 23.884,0 42.6897,-2.85105 56.4141,-8.55469 15.5067,-6.41659 23.2597,-16.30984 23.2597,-29.67773 0,-13.72437 -5.3467,-24.14976 -16.041,-31.2793 -1.2067,-0.83854 -2.4592,-1.62288 -3.748,-2.36523 z m -1090.3145,8.55468 c -1.06941,0 -4.09916,4.27854 -9.08984,12.83399 -4.99068,8.55545 -11.94354,12.83203 -20.85547,12.83203 -3.07667,0 -5.86536,-0.44776 -8.37305,-1.33203 2.39054,3.31353 4.80347,6.60466 7.26368,9.84766 4.09948,4.99068 9.80159,7.48437 17.10937,7.48437 8.91193,0 15.86479,-4.27658 20.85547,-12.83203 2.35834,-4.04288 4.26345,-7.09591 5.74609,-9.22852 -1.42866,-2.42558 -2.81274,-4.85791 -4.10156,-7.30664 -4.27779,-8.19896 -7.12876,-12.29879 -8.55469,-12.29883 z m -58.55273,2.40626 c -5.16892,9.98135 -10.2476,19.96395 -15.23828,29.94531 -5.88188,8.73369 -16.04119,13.09961 -30.47852,13.09961 -8.91869,0 -17.08233,-2.48948 -24.49609,-7.44727 2.17054,3.04326 4.52567,5.87206 7.07617,8.47461 9.62488,9.98136 20.76498,14.97266 33.41992,14.97266 14.43733,0 24.59664,-4.36592 30.47852,-13.09961 4.52417,-9.04834 9.13031,-18.09796 13.80078,-27.14649 -1.10381,-0.87951 -2.12796,-1.88334 -3.06445,-3.02343 -3.92125,-5.16892 -7.75504,-10.42823 -11.49805,-15.77539 z m 1278.20113,2.13867 c -7.3077,9.26838 -14.5267,18.53822 -21.6562,27.80664 -8.3772,6.9513 -18.1792,10.42578 -29.4082,10.42578 -9.8133,0 -18.5816,-2.50705 -26.3106,-7.50977 10.839,15.67096 24.9422,23.50977 42.3106,23.50977 11.229,0 21.031,-3.47448 29.4082,-10.42578 7.0253,-9.13299 14.1395,-18.26737 21.3379,-27.40039 -7.784,-8.25049 -13.1845,-13.90911 -15.6817,-16.40625 z"
         style="font-style:normal;font-variant:normal;font-weight:normal;font-stretch:normal;font-size:70.73843384px;line-height:44.21151733px;font-family:'Pleasantly Plump';-inkscape-font-specification:'Pleasantly Plump';letter-spacing:0px;word-spacing:0px;fill:#1976d2;fill-opacity:1;stroke:none;stroke-width:16;stroke-linecap:butt;stroke-linejoin:miter;stroke-miterlimit:4;stroke-dasharray:none;stroke-opacity:1"
         inkscape:connector-curvature="0" />
    </g>
  </g>
</svg>
